<svg width="304" height="169" viewBox="0 0 304 169" fill="none" xmlns="http://www.w3.org/2000/svg">
<g opacity="0.3">
<path d="M246.013 153.191L245.302 165.774C245.416 166.021 245.58 166.241 245.784 166.421C245.988 166.601 246.227 166.736 246.487 166.818C247.248 166.953 263.854 166.818 263.854 166.818C263.97 166.143 263.924 165.451 263.719 164.798C263.596 164.368 263.365 163.977 263.049 163.662C262.734 163.346 262.343 163.115 261.913 162.992C261.078 162.783 255.312 160.143 254.821 159.934C254.33 159.725 254.059 156.39 254.059 156.39L246.013 153.191Z" fill="white" stroke="#263238" stroke-width="1.10919" stroke-miterlimit="10"/>
<path d="M263.854 166.812C263.922 166.365 263.922 165.911 263.854 165.464L245.324 164.967L245.279 165.768C245.393 166.015 245.557 166.236 245.761 166.415C245.965 166.595 246.205 166.73 246.464 166.812C247.248 166.948 263.854 166.812 263.854 166.812Z" fill="white" stroke="#263238" stroke-width="1.10919" stroke-miterlimit="10"/>
<path d="M249.46 89.4423C249.46 89.4423 250.888 120.318 250.73 121.266L245.347 153.722C245.347 153.722 249.934 156.255 252.152 156.729C253.878 157.053 255.623 157.264 257.377 157.361C257.377 157.361 264.661 127.755 264.977 126.017C265.293 124.279 261.332 86.7791 261.332 86.7791L249.46 89.4423Z" fill="#263238" stroke="#263238" stroke-width="1.10919" stroke-miterlimit="10"/>
<path d="M249.68 149.856C249.68 149.856 243.22 158.749 243.981 159.652C244.743 160.555 250.374 165.904 251.768 166.53C253.162 167.156 265.874 166.53 265.874 166.53C266.004 166.167 266.074 165.786 266.083 165.401C266.083 164.837 266.015 162.693 265.254 162.067C264.492 161.44 258.72 158.732 258.483 158.315C258.246 157.897 257.997 154.495 257.997 154.495L249.68 149.856Z" fill="white" stroke="#263238" stroke-width="1.10919" stroke-miterlimit="10"/>
<path d="M265.869 166.53C265.998 166.167 266.068 165.786 266.077 165.402V165.142L257.253 165.475C257.253 165.475 254.544 165.887 253.088 164.708C251.864 163.72 246.509 158.839 244.794 157.271C244.145 158.456 243.767 159.375 243.981 159.635C244.749 160.538 250.374 165.887 251.768 166.513C253.162 167.139 265.869 166.53 265.869 166.53Z" fill="white" stroke="#263238" stroke-width="1.10919" stroke-miterlimit="10"/>
<path d="M244.884 75.0371C244.884 75.0371 245.838 84.2174 246.628 85.6449C247.418 87.0725 248.687 89.2844 248.687 89.2844L260.683 123.01L248.337 150.24C248.337 150.24 257.365 156.097 259.261 156.729C260.074 157.05 260.926 157.262 261.795 157.361C261.795 157.361 276.358 123.325 276.358 120.95C276.358 118.575 266.201 84.539 266.201 84.539L266.89 72.8196L244.884 75.0371Z" fill="#263238" stroke="#263238" stroke-width="1.10919" stroke-miterlimit="10"/>
<path d="M256.891 77.8864L263.549 80.5497L258.031 76.1711L261.834 77.8864" stroke="#696969" stroke-width="1.10919" stroke-linecap="round" stroke-linejoin="round"/>
<path d="M253.066 101.021L260.7 123.01L249.618 148.497" stroke="#696969" stroke-width="1.10919" stroke-miterlimit="10"/>
<path d="M251.52 96.5688L252.304 98.8371" stroke="#696969" stroke-width="1.10919" stroke-miterlimit="10"/>
<path d="M275.523 58.0024C275.523 58.0024 279.269 54.4815 280.037 54.0527C280.804 53.6239 283.857 52.7041 284.077 51.6546C284.297 50.6051 284.004 45.4479 283.704 45.668C283.405 45.888 279.439 51.5079 279.439 51.5079L274.27 55.5536L275.523 58.0024Z" fill="white" stroke="#263238" stroke-width="1.10919" stroke-miterlimit="10"/>
<path d="M280.844 49.8435L280.392 53.2854" stroke="#263238" stroke-width="1.10919" stroke-miterlimit="10"/>
<path d="M282.04 48.0435L282.192 52.2415" stroke="#263238" stroke-width="1.10919" stroke-miterlimit="10"/>
<path d="M283.253 46.6216C283.253 46.6216 283.18 51.0397 283.253 51.4911V46.6216Z" fill="white"/>
<path d="M283.253 46.6216C283.253 46.6216 283.18 51.0397 283.253 51.4911" stroke="#263238" stroke-width="1.10919" stroke-miterlimit="10"/>
<path d="M284.286 50.4415C284.286 50.4415 285.561 48.8673 285.262 47.8234C285.179 47.5211 285.028 47.2421 284.819 47.0082C284.611 46.7742 284.351 46.5917 284.06 46.4749L284.286 50.4415Z" fill="white" stroke="#263238" stroke-width="1.10919" stroke-miterlimit="10"/>
<path d="M275.077 53.9624C275.303 54.1091 277.097 56.8796 277.097 56.8796L274.84 59.8757C274.84 59.8757 275.969 61.9747 275.291 62.4995C274.614 63.0242 269 65.9414 269 65.9414L267.127 58.3805C267.127 58.3805 271.319 55.7567 271.545 55.8357C271.767 55.9512 271.969 56.1017 272.143 56.2815L275.077 53.9624Z" fill="#F6851F" stroke="#263238" stroke-width="1.10919" stroke-miterlimit="10"/>
<path d="M277.464 52.9523L278.243 53.4883L286.492 41.6843L285.713 41.1426L277.464 52.9523Z" fill="#263238" stroke="#263238" stroke-width="1.10919" stroke-miterlimit="10"/>
<path d="M253.991 31.2175C253.528 31.4432 246.989 39.3653 244.574 42.463C242.159 45.5607 242.396 50.6164 242.509 53.3699C242.621 56.1235 241.38 76.5606 241.38 76.5606C241.38 76.5606 251.367 75.7593 257.337 75.1838C263.307 74.6083 271.799 74.0553 271.799 74.0553C271.799 74.0553 269.389 63.4982 268.244 58.7867C267.099 54.0753 265.259 47.3099 263.995 44.1163C263.123 41.9704 262.085 39.8952 260.892 37.9095L253.991 31.2175Z" fill="#F6851F" stroke="#263238" stroke-width="1.10919" stroke-miterlimit="10"/>
<path d="M266.156 31.5616L262.483 35.6919L256.841 28.5767L260.17 24.6721C260.17 24.6721 262.122 22.607 263.273 22.8327C264.424 23.0584 266.156 31.5616 266.156 31.5616Z" fill="white" stroke="#263238" stroke-width="1.10919" stroke-miterlimit="10"/>
<path d="M262.257 27.313L264.497 33.5592L266.156 31.5618L262.257 27.313Z" fill="#263238" stroke="#263238" stroke-width="1.10919" stroke-miterlimit="10"/>
<path d="M261.812 24.5594C261.812 24.5594 260.435 26.7374 259.289 26.2804C258.144 25.8233 255.041 22.4886 253.647 18.3809C252.253 14.2731 257.32 13.5565 258.121 11.9541C258.923 10.3516 259.617 10.1146 260.762 4.48906C261.908 -1.1365 274.767 1.04714 276.719 4.03202C278.671 7.0169 278.327 12.9866 283.721 11.0343C289.116 9.08204 294.973 7.01689 296.236 11.8356C297.5 16.6543 293.364 22.5112 294.86 24.582C296.355 26.6528 301.174 25.1462 300.829 27.1042C300.485 29.0621 297.957 30.3204 298.759 30.7774C299.56 31.2345 304.04 28.9436 302.776 31.0088C301.512 33.0739 298.877 35.2576 298.533 34.3378C298.189 33.4181 298.533 32.2727 297.269 32.9611C296.005 33.6494 292.191 36.403 290.611 34.9134C289.031 33.4237 291.068 28.0239 288.427 27.4484C285.787 26.8728 279.36 28.7123 277.176 28.8251C274.992 28.938 274.767 28.2609 270.749 26.3029C266.732 24.345 261.812 24.5594 261.812 24.5594Z" fill="#263238" stroke="#263238" stroke-width="1.10919" stroke-miterlimit="10"/>
<path d="M262.714 21.3262C262.714 21.3262 269.485 21.6704 273.847 20.5194C275.842 20.0541 277.8 19.4411 279.704 18.6855C279.704 18.6855 279.817 23.16 278.671 24.424C277.526 25.6879 276.031 26.8333 276.031 27.753C276.031 28.6727 277.159 30.1624 276.488 30.9692C275.816 31.7761 274.191 31.7705 273.734 31.7705C273.277 31.7705 269.604 35.218 268.571 35.218C267.539 35.218 262.365 28.3286 262.257 27.3185C262.195 26.0949 262.195 24.8689 262.257 23.6453" fill="white"/>
<path d="M262.714 21.3262C262.714 21.3262 269.485 21.6704 273.847 20.5194C275.842 20.0541 277.8 19.4411 279.704 18.6855C279.704 18.6855 279.817 23.16 278.671 24.424C277.526 25.6879 276.031 26.8333 276.031 27.753C276.031 28.6727 277.159 30.1624 276.488 30.9692C275.816 31.7761 274.191 31.7705 273.734 31.7705C273.277 31.7705 269.604 35.218 268.571 35.218C267.539 35.218 262.365 28.3286 262.257 27.3185C262.195 26.0949 262.195 24.8689 262.257 23.6453" stroke="#263238" stroke-width="1.10919" stroke-miterlimit="10"/>
<path d="M274.789 25.3606L273.525 26.8502C273.127 26.7898 272.754 26.6178 272.45 26.3542C272.145 26.0905 271.921 25.7461 271.804 25.3606" stroke="#263238" stroke-width="1.10919" stroke-miterlimit="10"/>
<path d="M270.518 28.8025C270.518 28.8025 270.405 30.6419 271.9 30.8733" stroke="#263238" stroke-width="1.10919" stroke-miterlimit="10"/>
<path d="M273.39 23.4084C273.39 23.4084 275.455 22.7201 276.375 24.441" stroke="#263238" stroke-width="1.10919" stroke-miterlimit="10"/>
<path d="M264.435 23.0641C264.435 23.0641 262.743 17.9859 261.106 19.8479C259.47 21.7099 260.418 24.9261 261.671 25.5919C262.041 25.7905 262.455 25.8944 262.875 25.8944C263.296 25.8944 263.709 25.7905 264.08 25.5919" fill="white"/>
<path d="M264.435 23.0641C264.435 23.0641 262.743 17.9859 261.106 19.8479C259.47 21.7099 260.418 24.9261 261.671 25.5919C262.041 25.7905 262.455 25.8944 262.875 25.8944C263.296 25.8944 263.709 25.7905 264.08 25.5919" stroke="#263238" stroke-width="1.10919" stroke-miterlimit="10"/>
<path d="M257.298 26.7375C257.298 26.7375 264.87 34.2025 264.633 35.2351C264.396 36.2677 263.138 36.9278 263.138 36.9278C263.138 36.9278 263.482 38.993 262.912 39.45C262.54 39.7328 262.107 39.9258 261.648 40.0143C261.648 40.0143 254.476 32.6113 253.529 31.4433C252.581 30.2753 253.303 29.7224 253.873 29.491C254.283 29.3399 254.706 29.2247 255.137 29.1468C255.137 29.1468 255.944 26.4046 257.298 26.7375Z" fill="#F6851F" stroke="#263238" stroke-width="1.10919" stroke-miterlimit="10"/>
<path d="M246.334 43.4165C245.893 46.086 245.655 48.7853 245.623 51.4909C245.623 55.5253 247.282 75.353 248.117 76.4251C248.952 77.4971 252.27 78.4394 253.698 77.4915C255.125 76.5436 267.471 68.5876 267.59 67.2786C267.708 65.9695 265.688 61.2242 264.859 60.8687C264.029 60.5132 263.312 60.6317 262.128 61.6982C260.775 62.7483 259.35 63.7006 257.862 64.5476C257.862 64.5476 257.032 49.3524 256.084 45.6679C255.137 41.9833 254.657 41.278 254.064 41.041" fill="#F6851F"/>
<path d="M246.334 43.4165C245.893 46.086 245.655 48.7853 245.623 51.4909C245.623 55.5253 247.282 75.353 248.117 76.4251C248.952 77.4971 252.27 78.4394 253.698 77.4915C255.125 76.5436 267.471 68.5876 267.59 67.2786C267.708 65.9695 265.688 61.2242 264.859 60.8687C264.029 60.5132 263.313 60.6317 262.128 61.6982C260.775 62.7483 259.35 63.7006 257.862 64.5476C257.862 64.5476 257.032 49.3524 256.084 45.6679C255.137 41.9833 254.657 41.278 254.064 41.041" stroke="#263238" stroke-width="1.10919" stroke-miterlimit="10"/>
<path d="M268.227 58.7642C268.227 58.7642 271.613 50.6559 271.861 50.0635C272.109 49.471 272.933 48.5174 273.644 48.3989C274.355 48.2804 279.817 47.0955 280.291 46.977C280.765 46.8585 281.126 47.451 279.817 48.2804C278.508 49.1099 275.303 49.471 275.303 49.471L274.823 53.0314C274.823 53.0314 278.034 50.5374 278.034 51.8465C278.034 53.1555 275.658 53.9793 275.303 54.1035C274.947 54.2276 273.999 55.7455 273.661 55.9994C273.116 56.2486 272.549 56.447 271.968 56.5918C271.968 56.5918 271.731 58.0194 271.257 58.4933C270.783 58.9673 268.645 60.5134 268.645 60.5134L268.227 58.7642Z" fill="white" stroke="#263238" stroke-width="1.10919" stroke-miterlimit="10"/>
<path d="M271.861 50.0634C271.861 50.0634 273.238 48.3706 273.441 48.3706C274.412 49.0568 275.341 49.8011 276.222 50.5994C276.392 50.763 275.331 52.4896 275.167 52.7661C275.004 53.0426 274.942 53.2683 274.496 53.1047C274.194 52.9799 273.913 52.8106 273.661 52.6025" fill="white"/>
<path d="M271.861 50.0634C271.861 50.0634 273.238 48.3706 273.441 48.3706C274.412 49.0568 275.341 49.8011 276.222 50.5994C276.392 50.763 275.331 52.4896 275.167 52.7661C275.004 53.0426 274.942 53.2683 274.496 53.1047C274.194 52.9799 273.913 52.8106 273.661 52.6025" stroke="#263238" stroke-width="1.10919" stroke-miterlimit="10"/>
<path d="M271.494 51.4459C271.494 51.4459 272.995 49.7532 273.215 49.7532C273.435 49.7532 275.331 51.2541 275.331 51.5306C275.331 51.807 274.998 53.4829 274.722 53.5393C274.33 53.5413 273.938 53.5035 273.554 53.4264" fill="white"/>
<path d="M271.494 51.4459C271.494 51.4459 272.995 49.7532 273.215 49.7532C273.435 49.7532 275.331 51.2541 275.331 51.5306C275.331 51.807 274.998 53.4829 274.722 53.5393C274.33 53.5413 273.938 53.5035 273.554 53.4264" stroke="#263238" stroke-width="1.10919" stroke-miterlimit="10"/>
<path d="M271.438 53.0597C271.838 52.6215 272.287 52.2297 272.775 51.8917C273.215 51.666 274.219 52.6139 274.829 53.0202C275.438 53.4264 276.166 53.6578 275.833 54.0471C275.5 54.4364 274.219 53.8835 273.943 53.8835C273.634 53.8325 273.334 53.7374 273.051 53.6014L272.329 55.7737" fill="white"/>
<path d="M271.438 53.0597C271.838 52.6215 272.287 52.2297 272.775 51.8917C273.215 51.666 274.219 52.6139 274.829 53.0202C275.438 53.4264 276.166 53.6578 275.833 54.0471C275.5 54.4364 274.219 53.8835 273.943 53.8835C273.634 53.8325 273.334 53.7374 273.051 53.6014L272.329 55.7737" stroke="#263238" stroke-width="1.10919" stroke-miterlimit="10"/>
<path d="M264.266 61.2243L268.419 57.9009L270.321 61.4613L266.754 65.1402C266.754 65.1402 264.266 64.6662 264.266 61.2243Z" fill="#F6851F" stroke="#263238" stroke-width="1.10919" stroke-miterlimit="10"/>
<path d="M19.1846 159.031C17.4823 158.496 15.8902 157.659 14.4844 156.56C12.6055 154.94 6.66959 150.539 4.95428 149.411C3.23896 148.282 3.44773 153.496 4.02891 156.182C4.49894 158.502 5.48432 160.687 6.91222 162.575C7.99558 163.861 15.0656 166.524 15.8556 166.705C16.6455 166.885 19.8053 166.942 20.4486 166.637C21.0918 166.333 19.7489 161.26 19.1846 159.031Z" fill="white" stroke="#263238" stroke-width="1.10919" stroke-miterlimit="10"/>
<path d="M7.27333 160.38C5.62008 158.258 4.45208 151.752 4.4013 149.258C3.2728 149.523 3.52107 153.829 4.02889 156.199C4.49892 158.519 5.4843 160.703 6.91221 162.591C7.99557 163.878 15.0656 166.541 15.8556 166.722C16.9234 166.863 18.0019 166.904 19.0774 166.846C15.2349 165.497 8.93786 162.513 7.27333 160.38Z" fill="white" stroke="#263238" stroke-width="1.10919" stroke-miterlimit="10"/>
<path d="M96.3174 120.369C96.3174 120.369 94.3651 123.986 93.3776 126.085C92.3902 128.184 91.5438 129.696 91.5438 129.696C91.5438 129.696 90.6015 127.856 89.8849 128.201C89.385 128.425 88.8631 128.597 88.3276 128.714C88.3276 128.714 87.4361 125.52 86.0706 123.845C84.7051 122.169 83.5484 122.976 82.2845 121.858C80.4958 120.279 79.7736 119.805 78.5774 118.845C77.1047 117.666 74.8533 122.66 74.8138 124.544C74.7743 126.429 84.4286 138.272 86.838 141.511C89.2473 144.75 91.6793 146.787 93.2479 144.818C94.8165 142.848 95.5613 140.975 96.7462 134.661C97.9311 128.347 100.826 118.693 96.3174 120.369Z" fill="#F6851F" stroke="#263238" stroke-width="1.10919" stroke-miterlimit="10"/>
<path d="M78.5662 118.845L74.182 115.556C73.708 114.625 72.7544 112.689 72.2353 111.341C71.5244 109.507 71.214 108.339 69.5834 107.064C67.9527 105.789 64.0932 104.243 63.6023 103.718C63.1114 103.193 62.9139 105.196 63.8054 106.127C64.2029 106.609 64.7045 106.995 65.2725 107.256C65.2725 107.256 58.9134 106.466 58.9021 106.962C58.8908 107.459 64.3076 114.298 66.2656 115.883C67.0837 116.56 68.9119 117.198 69.9501 117.943C70.4624 118.31 70.9351 118.73 71.3607 119.195C71.1181 119.331 71.0391 119.325 71.0109 119.308C71.2366 119.624 74.6052 124.431 75.6377 124.223C76.6703 124.014 80.1235 123.704 78.5662 118.845Z" fill="white" stroke="#263238" stroke-width="1.10919" stroke-miterlimit="10"/>
<path d="M59.0813 99.3775L58.3958 99.8445L67.204 112.776L67.8895 112.309L59.0813 99.3775Z" fill="#263238" stroke="#263238" stroke-width="1.10919" stroke-miterlimit="10"/>
<path d="M60.8771 103.509C60.8771 103.509 57.4916 107.165 57.8979 107.504C58.3041 107.842 59.5906 109.112 59.9404 108.954C60.2903 108.796 62.0733 105.851 62.1636 105.518C62.2539 105.185 60.8771 103.509 60.8771 103.509Z" fill="white" stroke="#263238" stroke-width="1.10919" stroke-miterlimit="10"/>
<path d="M62.5696 105.964C62.5696 105.964 60.008 109.722 60.2506 110.06C60.4932 110.399 63.732 114.185 64.1383 114.439C64.5445 114.693 66.8297 112.503 66.8297 112.503L62.5696 105.964Z" fill="white" stroke="#263238" stroke-width="1.10919" stroke-miterlimit="10"/>
<path d="M63.9352 108.119C63.9352 108.119 61.5427 111.882 61.791 111.888" stroke="#263238" stroke-width="1.10919" stroke-miterlimit="10"/>
<path d="M65.5378 110.72L63.3315 113.327" stroke="#263238" stroke-width="1.10919" stroke-miterlimit="10"/>
<path d="M65.2725 107.239L67.3263 108.187C67.3263 108.187 66.8129 113.231 69.5833 114.958" fill="white"/>
<path d="M65.2725 107.239L67.3263 108.187C67.3263 108.187 66.8129 113.231 69.5833 114.958" stroke="#263238" stroke-width="1.10919" stroke-miterlimit="10"/>
<path d="M94.4723 146.73C94.4723 146.73 74.5092 122.891 72.3425 120.329C70.1758 117.768 65.2894 116.707 62.423 117.598C59.5566 118.49 56.0695 126.502 55.3755 129.814C54.6815 133.126 49.0108 147.424 48.0403 149.303C47.0698 151.182 45.5914 153.214 45.5745 154.009C45.5576 154.805 45.5463 155.431 45.5463 155.431L44.5532 157.626C44.5532 157.626 49.1349 158.19 51.0421 157.914C52.9492 157.637 55.6802 155.471 56.1767 154.37C56.6733 153.27 58.0726 150.562 59.7597 149.377C62.1634 147.684 66.3445 136.36 66.3445 136.36L74.244 153.62C74.244 153.62 89.8737 155.826 93.3664 155.42C96.8591 155.014 94.4723 146.73 94.4723 146.73Z" fill="#263238" stroke="#263238" stroke-width="1.10919" stroke-miterlimit="10"/>
<path d="M93.7164 144.818C93.7164 144.818 91.2788 147.932 91.2676 148.57V149.202L77.9287 150.539C77.9287 150.539 64.1554 150.268 62.0902 150.703C60.0251 151.137 30.0973 159.104 28.1902 159.387C26.283 159.669 25.3689 158.061 24.579 158.044C23.789 158.027 23.0047 157.378 21.8988 157.355C20.7928 157.333 19.811 158.901 19.1734 159.048C18.7629 159.2 18.3341 159.296 17.8982 159.336C17.4243 159.336 17.7628 158.207 17.4243 159.336C17.0857 160.464 16.2337 163.585 16.9954 165.023C17.4866 165.919 18.1756 166.691 19.0098 167.28C19.0098 167.28 44.6662 167.309 48.915 167.393C53.1638 167.478 66.356 166.316 67.9415 166.186C69.527 166.056 92.4581 167.455 96.0975 167.529C99.7369 167.602 111.778 167.529 113.86 166.293C115.942 165.057 118.611 158.151 118.188 155.454C117.765 152.757 95.7477 145.038 95.7477 145.038L93.7164 144.818Z" fill="#263238" stroke="#263238" stroke-width="1.10919" stroke-miterlimit="10"/>
<path d="M92.8078 142.583C92.5826 143.133 92.5161 143.735 92.616 144.321C92.7514 145.45 117.539 157.299 118.34 156.859C119.141 156.419 119.706 151.814 119.706 151.814L92.836 141.156L92.8078 142.583Z" fill="#F6851F" stroke="#263238" stroke-width="1.10919" stroke-miterlimit="10"/>
<path d="M103.37 104.626C103.37 104.626 98.817 110.872 97.1355 115.748C95.4541 120.623 92.7513 137.353 91.7639 139.395C90.7765 141.438 90.7482 142.702 92.1645 143.046C93.5808 143.39 107.089 149.354 111.642 151.182C116.196 153.011 120.281 154.681 120.969 151.843C121.658 149.004 121.697 147.266 121.618 142.989C121.539 138.712 121.466 118.597 121.105 112.734C120.744 106.872 117.606 97.3022 113.487 97.5392C109.368 97.7762 103.37 104.626 103.37 104.626Z" fill="#F6851F" stroke="#263238" stroke-width="1.10919" stroke-miterlimit="10"/>
<path d="M111.998 82.643C111.513 79.2011 109.865 76.3911 107.05 74.6307C107.495 74.1334 108.098 73.8055 108.757 73.7026C109.417 73.5997 110.091 73.7283 110.666 74.0664C110.666 74.0664 111.044 72.7235 109.95 72.2552C109.628 72.1304 109.28 72.0888 108.938 72.1342C108.595 72.1795 108.27 72.3104 107.992 72.5147C107.992 72.5147 108.178 70.7148 109.397 69.8402C110.616 68.9656 112.991 70.2126 112.991 70.2126C112.991 70.2126 112.483 65.5463 109.465 66.387C106.446 67.2277 106.846 69.7725 106.846 69.7725C106.846 69.7725 106.282 67.6622 104.488 67.476C102.694 67.2898 101.311 68.7625 101.311 68.7625C101.311 68.7625 102.84 67.4421 104.448 69.7274C104.873 70.275 105.154 70.92 105.266 71.6037C105.379 72.2875 105.319 72.9885 105.092 73.6432C104.614 73.4564 104.126 73.2963 103.63 73.1636C99.3871 72.0351 94.5458 73.2539 92.4806 75.3191C90.8295 75.7261 89.2808 76.4716 87.9328 77.5083C85.6758 79.4212 87.7861 82.0618 88.0964 82.423L88.2657 83.3709C88.4793 85.2933 88.7938 87.2031 89.208 89.0924C89.6312 90.4522 90.3704 90.9149 90.3365 91.6654C90.3026 92.4158 89.0669 95.096 89.9472 96.0101C90.8274 96.9241 91.5891 96.6477 91.5891 96.6477C91.5891 96.6477 95.048 103.921 96.5602 103.345C98.0724 102.77 100.674 100.123 100.674 100.123L104.087 102.296L110.379 95.3612L109.25 92.3368C109.25 92.3368 112.658 87.3094 111.998 82.643Z" fill="white" stroke="#263238" stroke-width="1.10919" stroke-miterlimit="10"/>
<path d="M90.9006 82.3158C92.7287 81.4469 97.4064 80.3748 96.6051 81.7798C95.8039 83.1848 95.6233 85.6449 96.6503 85.9214C97.6772 86.1979 99.8552 87.6649 100.6 88.1784C101.345 88.6919 102.293 88.342 102.293 87.5634C102.293 86.7847 103.117 85.2499 104.781 86.0568C106.446 86.8637 106.547 88.421 106.124 90.2266C105.899 91.2689 105.278 92.1832 104.392 92.777C104.392 92.777 106.378 94.3738 109.436 92.8447L109.239 92.3256C109.239 92.3256 112.624 87.2869 111.981 82.6205C111.496 79.1786 109.848 76.3687 107.032 74.6082C107.477 74.1109 108.081 73.783 108.74 73.6801C109.399 73.5773 110.074 73.7058 110.649 74.044C110.649 74.044 111.027 72.701 109.933 72.2327C109.611 72.108 109.263 72.0663 108.92 72.1117C108.578 72.1571 108.253 72.2879 107.975 72.4923C107.975 72.4923 108.161 70.6923 109.38 69.8177C110.599 68.9431 112.974 70.1901 112.974 70.1901C112.974 70.1901 112.466 65.5238 109.447 66.3645C106.429 67.2053 106.829 69.75 106.829 69.75C106.829 69.75 106.265 67.6397 104.471 67.4535C102.676 67.2673 101.294 68.74 101.294 68.74C101.294 68.74 102.823 67.4197 104.431 69.7049C104.856 70.2525 105.137 70.8975 105.249 71.5813C105.362 72.2651 105.302 72.9661 105.075 73.6208C104.597 73.434 104.109 73.2738 103.613 73.1411C99.37 72.0127 94.5287 73.2314 92.4635 75.2966C90.8124 75.7037 89.2638 76.4492 87.9157 77.4859C85.6587 79.3987 87.769 82.0394 88.0793 82.4005C88.0963 82.4343 89.0724 83.1848 90.9006 82.3158Z" fill="#263238" stroke="#263238" stroke-width="1.10919" stroke-miterlimit="10"/>
<path d="M92.3227 89.0698L92.2888 90.7626C92.8481 90.9109 93.4346 90.9239 93.9999 90.8002C94.5651 90.6766 95.0927 90.4199 95.5389 90.0516" stroke="#263238" stroke-width="1.10919" stroke-miterlimit="10"/>
<path d="M90.4099 87.4844C90.8519 86.9382 91.474 86.5671 92.1646 86.4379C92.8553 86.3087 93.5695 86.4296 94.1791 86.7791" stroke="#263238" stroke-width="1.10919" stroke-miterlimit="10"/>
<path d="M93.7219 96.8621C93.7219 96.8621 95.9225 96.7775 97.2654 94.2158" stroke="#263238" stroke-width="1.10919" stroke-miterlimit="10"/>
<path d="M97.6774 99.785C96.3683 100.406 94.7207 98.6904 93.9477 98.5493C93.3214 98.4308 93.4286 99.6778 93.4963 100.163C94.5571 101.935 95.8154 103.65 96.5828 103.357C98.0949 102.792 100.696 100.135 100.696 100.135L100.815 100.214C101.163 99.6313 101.382 98.981 101.458 98.3067C101.475 97.2741 98.9808 99.1925 97.6774 99.785Z" fill="#263238" stroke="#263238" stroke-width="1.10919" stroke-miterlimit="10"/>
<path d="M117.042 93.8097C117.042 93.8097 112.32 92.2919 109.572 95.2485C106.824 98.2052 99.3645 106.923 100.95 106.957C102.536 106.991 105.312 102.606 108.505 101.241C111.699 99.8754 113.584 99.9205 114.661 102.155C115.739 104.389 119.407 118.716 120.868 116.21C122.329 113.705 124.97 108.695 123.638 103.915C122.307 99.1362 118.605 94.7915 117.042 93.8097Z" fill="white" stroke="#263238" stroke-width="1.10919" stroke-miterlimit="10"/>
<path d="M104.99 110.833C104.99 110.833 101.04 117.722 100.662 121.514C100.284 125.306 99.0147 141.122 99.0147 141.122C99.0147 141.122 97.4517 140.14 96.6392 141.071C95.8267 142.002 95.3132 144.056 95.3132 144.056C95.3132 144.056 93.1127 143.379 92.6161 144.321C92.3321 144.868 92.0037 145.391 91.6343 145.884L77.9287 150.539C77.9287 150.539 99.5959 151.758 101.339 151.634C102.404 151.548 103.413 151.123 104.217 150.421C104.217 150.421 105.616 151.549 108.009 150.652C110.401 149.755 111.219 148.66 111.885 146.77C112.551 144.88 115.7 121.83 115.7 121.83" fill="#F6851F"/>
<path d="M104.99 110.833C104.99 110.833 101.04 117.722 100.662 121.514C100.284 125.306 99.0147 141.122 99.0147 141.122C99.0147 141.122 97.4517 140.14 96.6392 141.071C95.8267 142.002 95.3132 144.056 95.3132 144.056C95.3132 144.056 93.1127 143.379 92.6161 144.321C92.3321 144.868 92.0037 145.391 91.6343 145.884L77.9287 150.539C77.9287 150.539 99.5959 151.758 101.339 151.634C102.404 151.548 103.413 151.123 104.217 150.421C104.217 150.421 105.616 151.549 108.009 150.652C110.401 149.755 111.219 148.66 111.885 146.77C112.551 144.88 115.7 121.83 115.7 121.83" stroke="#263238" stroke-width="1.10919" stroke-miterlimit="10"/>
<path d="M77.9287 150.539C77.9287 150.539 84.5135 150.912 90.7146 151.222C89.8174 149.761 90.235 147.65 90.7146 146.211L77.9287 150.539Z" fill="white" stroke="#263238" stroke-width="1.10919" stroke-miterlimit="10"/>
<path d="M0 166.846H293.573" stroke="#263238" stroke-width="1.10919" stroke-miterlimit="10"/>
</g>
</svg>
