<svg width="751" height="422" viewBox="0 0 751 422" fill="none" xmlns="http://www.w3.org/2000/svg">
<path d="M608.944 384.794L607.184 416.525C607.466 417.148 607.872 417.703 608.377 418.157C608.883 418.61 609.475 418.951 610.117 419.157C612.002 419.499 653.106 419.157 653.106 419.157C653.393 417.456 653.278 415.71 652.771 414.063C652.466 412.981 651.896 411.995 651.114 411.198C650.332 410.402 649.364 409.821 648.301 409.51C646.234 408.983 631.961 402.324 630.745 401.798C629.53 401.271 628.86 392.862 628.86 392.862L608.944 384.794Z" fill="white" stroke="#263238" stroke-width="1.10919" stroke-miterlimit="10"/>
<path d="M653.106 419.143C653.273 418.015 653.273 416.869 653.106 415.742L607.24 414.49L607.128 416.51C607.41 417.133 607.816 417.689 608.322 418.142C608.827 418.595 609.419 418.936 610.061 419.143C612.002 419.484 653.106 419.143 653.106 419.143Z" fill="white" stroke="#263238" stroke-width="1.10919" stroke-miterlimit="10"/>
<path d="M617.477 224.033C617.477 224.033 621.011 301.895 620.62 304.285L607.296 386.132C607.296 386.132 618.65 392.52 624.139 393.716C628.412 394.532 632.732 395.064 637.072 395.309C637.072 395.309 655.103 320.649 655.885 316.266C656.668 311.884 646.863 217.317 646.863 217.317L617.477 224.033Z" fill="#263238" stroke="#263238" stroke-width="1.10919" stroke-miterlimit="10"/>
<path d="M618.022 376.384C618.022 376.384 602.03 398.809 603.916 401.086C605.801 403.363 619.74 416.852 623.19 418.431C626.639 420.011 658.106 418.431 658.106 418.431C658.426 417.517 658.601 416.556 658.623 415.586C658.623 414.163 658.455 408.756 656.57 407.176C654.684 405.597 640.396 398.767 639.81 397.714C639.223 396.661 638.609 388.081 638.609 388.081L618.022 376.384Z" fill="white" stroke="#263238" stroke-width="1.10919" stroke-miterlimit="10"/>
<path d="M658.092 418.432C658.412 417.517 658.587 416.556 658.609 415.586V414.931L636.765 415.771C636.765 415.771 630.061 416.809 626.458 413.836C623.427 411.345 610.173 399.037 605.927 395.082C604.321 398.07 603.385 400.389 603.916 401.044C605.815 403.32 619.74 416.809 623.19 418.389C626.639 419.968 658.092 418.432 658.092 418.432Z" fill="white" stroke="#263238" stroke-width="1.10919" stroke-miterlimit="10"/>
<path d="M606.15 187.706C606.15 187.706 608.511 210.857 610.466 214.457C612.421 218.057 615.564 223.634 615.564 223.634L645.257 308.682L614.698 377.352C614.698 377.352 637.044 392.122 641.737 393.715C643.75 394.525 645.858 395.061 648.008 395.309C648.008 395.309 684.056 309.479 684.056 303.488C684.056 297.498 658.916 211.668 658.916 211.668L660.62 182.114L606.15 187.706Z" fill="#263238" stroke="#263238" stroke-width="1.10919" stroke-miterlimit="10"/>
<path d="M635.871 194.892L652.352 201.608L638.693 190.566L648.106 194.892" stroke="#696969" stroke-width="1.10919" stroke-linecap="round" stroke-linejoin="round"/>
<path d="M626.402 253.231L645.299 308.682L617.868 372.955" stroke="#696969" stroke-width="1.10919" stroke-miterlimit="10"/>
<path d="M622.575 242.004L624.517 247.724" stroke="#696969" stroke-width="1.10919" stroke-miterlimit="10"/>
<path d="M681.989 144.748C681.989 144.748 691.263 135.869 693.162 134.788C695.062 133.706 702.618 131.387 703.163 128.74C703.707 126.094 702.981 113.088 702.241 113.643C701.501 114.198 691.682 128.37 691.682 128.37L678.889 138.573L681.989 144.748Z" fill="white" stroke="#263238" stroke-width="1.10919" stroke-miterlimit="10"/>
<path d="M695.16 124.173L694.042 132.852" stroke="#263238" stroke-width="1.10919" stroke-miterlimit="10"/>
<path d="M698.12 119.634L698.497 130.22" stroke="#263238" stroke-width="1.10919" stroke-miterlimit="10"/>
<path d="M701.124 116.048C701.124 116.048 700.941 127.189 701.124 128.327V116.048Z" fill="white"/>
<path d="M701.124 116.048C701.124 116.048 700.941 127.189 701.124 128.327" stroke="#263238" stroke-width="1.10919" stroke-miterlimit="10"/>
<path d="M703.679 125.681C703.679 125.681 706.836 121.711 706.095 119.079C705.891 118.316 705.516 117.613 704.999 117.023C704.483 116.433 703.84 115.973 703.121 115.678L703.679 125.681Z" fill="white" stroke="#263238" stroke-width="1.10919" stroke-miterlimit="10"/>
<path d="M680.886 134.56C681.444 134.93 685.886 141.916 685.886 141.916L680.299 149.472C680.299 149.472 683.092 154.765 681.416 156.089C679.741 157.412 665.844 164.768 665.844 164.768L661.207 145.701C661.207 145.701 671.584 139.085 672.143 139.284C672.692 139.575 673.192 139.955 673.623 140.408L680.886 134.56Z" fill="#F6851F" stroke="#263238" stroke-width="1.10919" stroke-miterlimit="10"/>
<path d="M686.793 132.013L688.721 133.365L709.14 103.597L707.213 102.231L686.793 132.013Z" fill="#263238" stroke="#263238" stroke-width="1.10919" stroke-miterlimit="10"/>
<path d="M628.692 77.2021C627.547 77.7713 611.36 97.749 605.382 105.561C599.404 113.373 599.991 126.122 600.27 133.066C600.55 140.01 597.477 191.548 597.477 191.548C597.477 191.548 622.198 189.527 636.975 188.076C651.751 186.624 672.771 185.23 672.771 185.23C672.771 185.23 666.807 158.607 663.972 146.726C661.137 134.844 656.584 117.784 653.455 109.73C651.295 104.318 648.727 99.0855 645.774 94.0779L628.692 77.2021Z" fill="#F6851F" stroke="#263238" stroke-width="1.10919" stroke-miterlimit="10"/>
<path d="M658.804 78.0701L649.712 88.4859L635.746 70.5429L643.986 60.6963C643.986 60.6963 648.818 55.4885 651.668 56.0576C654.517 56.6268 658.804 78.0701 658.804 78.0701Z" fill="white" stroke="#263238" stroke-width="1.10919" stroke-miterlimit="10"/>
<path d="M649.153 67.3555L654.698 83.1071L658.804 78.07L649.153 67.3555Z" fill="#263238" stroke="#263238" stroke-width="1.10919" stroke-miterlimit="10"/>
<path d="M648.05 60.4117C648.05 60.4117 644.642 65.9042 641.807 64.7516C638.972 63.5991 631.29 55.1896 627.841 44.8308C624.391 34.472 636.933 32.6649 638.916 28.6238C640.899 24.5827 642.617 23.9851 645.452 9.79866C648.288 -4.3878 680.118 1.11889 684.95 8.64611C689.782 16.1733 688.93 31.2278 702.283 26.3045C715.635 21.3812 730.132 16.1733 733.26 28.325C736.389 40.4767 726.151 55.2466 729.853 60.4687C733.554 65.6908 745.481 61.8916 744.629 66.8291C743.777 71.7666 737.52 74.9397 739.503 76.0923C741.487 77.2448 752.576 71.4678 749.448 76.6757C746.319 81.8835 739.797 87.3902 738.945 85.0709C738.093 82.7515 738.945 79.863 735.816 81.5989C732.688 83.3349 723.246 90.2787 719.336 86.5222C715.425 82.7657 720.467 69.1485 713.931 67.6971C707.394 66.2457 691.486 70.8844 686.081 71.169C680.676 71.4536 680.118 69.7461 670.173 64.8086C660.229 59.8711 648.05 60.4117 648.05 60.4117Z" fill="#263238" stroke="#263238" stroke-width="1.10919" stroke-miterlimit="10"/>
<path d="M650.285 52.2586C650.285 52.2586 667.045 53.1266 677.841 50.2238C682.779 49.0505 687.625 47.5047 692.338 45.5994C692.338 45.5994 692.618 56.8831 689.782 60.0704C686.947 63.2577 683.246 66.1462 683.246 68.4656C683.246 70.785 686.039 74.5414 684.377 76.5762C682.715 78.611 678.693 78.5967 677.562 78.5967C676.43 78.5967 667.338 87.2908 664.782 87.2908C662.226 87.2908 649.419 69.917 649.153 67.3699C649 64.2842 649 61.1925 649.153 58.1068" fill="white"/>
<path d="M650.285 52.2586C650.285 52.2586 667.045 53.1266 677.841 50.2238C682.779 49.0505 687.625 47.5047 692.338 45.5994C692.338 45.5994 692.618 56.8831 689.782 60.0704C686.947 63.2577 683.246 66.1462 683.246 68.4656C683.246 70.785 686.039 74.5414 684.377 76.5762C682.715 78.611 678.693 78.5967 677.562 78.5967C676.43 78.5967 667.338 87.2908 664.782 87.2908C662.226 87.2908 649.419 69.917 649.153 67.3699C649 64.2842 649 61.1925 649.153 58.1068" stroke="#263238" stroke-width="1.10919" stroke-miterlimit="10"/>
<path d="M680.173 62.4324L677.045 66.1889C676.059 66.0364 675.136 65.6027 674.382 64.9379C673.628 64.2731 673.075 63.4044 672.785 62.4324" stroke="#263238" stroke-width="1.10919" stroke-miterlimit="10"/>
<path d="M669.601 71.1121C669.601 71.1121 669.321 75.7508 673.022 76.3342" stroke="#263238" stroke-width="1.10919" stroke-miterlimit="10"/>
<path d="M676.71 57.5089C676.71 57.5089 681.821 55.773 684.098 60.1129" stroke="#263238" stroke-width="1.10919" stroke-miterlimit="10"/>
<path d="M654.545 56.6409C654.545 56.6409 650.355 43.8346 646.304 48.5302C642.254 53.2259 644.6 61.3365 647.701 63.0155C648.618 63.5162 649.642 63.7782 650.683 63.7782C651.723 63.7782 652.748 63.5162 653.665 63.0155" fill="white"/>
<path d="M654.545 56.6409C654.545 56.6409 650.355 43.8346 646.304 48.5302C642.254 53.2259 644.6 61.3365 647.701 63.0155C648.618 63.5162 649.642 63.7782 650.683 63.7782C651.723 63.7782 652.748 63.5162 653.665 63.0155" stroke="#263238" stroke-width="1.10919" stroke-miterlimit="10"/>
<path d="M636.877 65.9042C636.877 65.9042 655.62 84.7293 655.034 87.3333C654.447 89.9372 651.332 91.602 651.332 91.602C651.332 91.602 652.184 96.8099 650.774 97.9625C649.852 98.6754 648.782 99.1624 647.645 99.3854C647.645 99.3854 629.894 80.7167 627.547 77.7713C625.201 74.8259 626.989 73.4314 628.399 72.848C629.415 72.4669 630.462 72.1765 631.528 71.98C631.528 71.98 633.525 65.0647 636.877 65.9042Z" fill="#F6851F" stroke="#263238" stroke-width="1.10919" stroke-miterlimit="10"/>
<path d="M609.74 107.966C608.647 114.698 608.059 121.505 607.98 128.327C607.98 138.501 612.086 188.503 614.153 191.206C616.22 193.91 624.433 196.286 627.966 193.895C631.5 191.505 662.059 171.442 662.352 168.141C662.645 164.839 657.645 152.873 655.592 151.976C653.539 151.08 651.765 151.379 648.832 154.068C645.485 156.716 641.957 159.118 638.274 161.254C638.274 161.254 636.22 122.935 633.874 113.643C631.528 104.351 630.341 102.573 628.874 101.975" fill="#F6851F"/>
<path d="M609.74 107.966C608.647 114.698 608.059 121.505 607.98 128.327C607.98 138.501 612.086 188.503 614.153 191.206C616.22 193.91 624.433 196.286 627.966 193.895C631.5 191.505 662.059 171.442 662.352 168.141C662.645 164.839 657.645 152.873 655.592 151.976C653.539 151.08 651.765 151.379 648.832 154.068C645.485 156.716 641.957 159.118 638.274 161.254C638.274 161.254 636.22 122.935 633.874 113.643C631.528 104.351 630.341 102.573 628.874 101.975" stroke="#263238" stroke-width="1.10919" stroke-miterlimit="10"/>
<path d="M663.93 146.669C663.93 146.669 672.31 126.222 672.925 124.728C673.539 123.234 675.578 120.829 677.338 120.53C679.098 120.231 692.618 117.243 693.791 116.944C694.964 116.646 695.858 118.14 692.618 120.231C689.377 122.323 681.444 123.234 681.444 123.234L680.257 132.212C680.257 132.212 688.204 125.923 688.204 129.224C688.204 132.525 682.324 134.603 681.444 134.916C680.564 135.229 678.218 139.056 677.38 139.697C676.032 140.325 674.629 140.826 673.19 141.191C673.19 141.191 672.603 144.791 671.43 145.986C670.257 147.181 664.964 151.08 664.964 151.08L663.93 146.669Z" fill="white" stroke="#263238" stroke-width="1.10919" stroke-miterlimit="10"/>
<path d="M672.925 124.728C672.925 124.728 676.333 120.459 676.835 120.459C679.24 122.189 681.539 124.066 683.721 126.08C684.14 126.492 681.514 130.846 681.109 131.544C680.704 132.241 680.551 132.81 679.447 132.397C678.7 132.083 678.003 131.656 677.38 131.131" fill="white"/>
<path d="M672.925 124.728C672.925 124.728 676.333 120.459 676.835 120.459C679.24 122.189 681.539 124.066 683.721 126.08C684.14 126.492 681.514 130.846 681.109 131.544C680.704 132.241 680.551 132.81 679.447 132.397C678.7 132.083 678.003 131.656 677.38 131.131" stroke="#263238" stroke-width="1.10919" stroke-miterlimit="10"/>
<path d="M672.017 128.214C672.017 128.214 675.732 123.945 676.277 123.945C676.822 123.945 681.514 127.73 681.514 128.427C681.514 129.124 680.69 133.35 680.006 133.493C679.035 133.498 678.067 133.402 677.115 133.208" fill="white"/>
<path d="M672.017 128.214C672.017 128.214 675.732 123.945 676.277 123.945C676.822 123.945 681.514 127.73 681.514 128.427C681.514 129.124 680.69 133.35 680.006 133.493C679.035 133.498 678.067 133.402 677.115 133.208" stroke="#263238" stroke-width="1.10919" stroke-miterlimit="10"/>
<path d="M671.877 132.283C672.869 131.178 673.979 130.19 675.188 129.338C676.277 128.768 678.763 131.159 680.271 132.183C681.78 133.208 683.581 133.791 682.757 134.773C681.933 135.755 678.763 134.361 678.079 134.361C677.313 134.232 676.57 133.992 675.872 133.649L674.084 139.127" fill="white"/>
<path d="M671.877 132.283C672.869 131.178 673.979 130.19 675.188 129.338C676.277 128.768 678.763 131.159 680.271 132.183C681.78 133.208 683.581 133.791 682.757 134.773C681.933 135.755 678.763 134.361 678.079 134.361C677.313 134.232 676.57 133.992 675.872 133.649L674.084 139.127" stroke="#263238" stroke-width="1.10919" stroke-miterlimit="10"/>
<path d="M654.126 152.873L664.405 144.492L669.112 153.471L660.285 162.748C660.285 162.748 654.126 161.553 654.126 152.873Z" fill="#F6851F" stroke="#263238" stroke-width="1.10919" stroke-miterlimit="10"/>
<path d="M47.4867 399.521C43.2729 398.172 39.332 396.061 35.8525 393.289C31.2016 389.205 16.5088 378.106 12.2629 375.26C8.01707 372.415 8.53383 385.562 9.97239 392.335C11.1358 398.186 13.5749 403.696 17.1093 408.457C19.7909 411.701 37.2911 418.418 39.2464 418.873C41.2017 419.328 49.023 419.47 50.6152 418.702C52.2074 417.934 48.8833 405.142 47.4867 399.521Z" fill="white" stroke="#263238" stroke-width="1.10919" stroke-miterlimit="10"/>
<path d="M18.0031 402.922C13.9109 397.571 11.0198 381.165 10.8941 374.876C8.10076 375.545 8.71529 386.402 9.97228 392.378C11.1357 398.229 13.5748 403.738 17.1092 408.499C19.7908 411.744 37.2909 418.46 39.2463 418.915C41.8894 419.27 44.5591 419.375 47.2212 419.228C37.7099 415.827 22.1232 408.3 18.0031 402.922Z" fill="white" stroke="#263238" stroke-width="1.10919" stroke-miterlimit="10"/>
<path d="M238.41 302.023C238.41 302.023 233.578 311.144 231.133 316.437C228.689 321.73 226.594 325.544 226.594 325.544C226.594 325.544 224.262 320.905 222.488 321.773C221.251 322.339 219.959 322.773 218.633 323.068C218.633 323.068 216.427 315.014 213.047 310.788C209.667 306.562 206.804 308.597 203.675 305.779C199.248 301.795 197.46 300.6 194.499 298.181C190.854 295.207 185.281 307.8 185.183 312.552C185.086 317.305 208.982 347.172 214.946 355.34C220.91 363.507 226.93 368.644 230.812 363.678C234.695 358.712 236.539 353.988 239.472 338.065C242.405 322.143 249.569 297.797 238.41 302.023Z" fill="#F6851F" stroke="#263238" stroke-width="1.10919" stroke-miterlimit="10"/>
<path d="M194.471 298.181L183.619 289.886C182.446 287.538 180.085 282.657 178.8 279.257C177.041 274.632 176.273 271.687 172.236 268.471C168.2 265.255 158.647 261.356 157.432 260.033C156.216 258.71 155.728 263.761 157.934 266.109C158.918 267.325 160.16 268.298 161.566 268.955C161.566 268.955 145.825 266.963 145.797 268.215C145.769 269.467 159.177 286.713 164.024 290.711C166.049 292.418 170.574 294.026 173.144 295.905C174.412 296.832 175.582 297.89 176.636 299.064C176.035 299.405 175.84 299.391 175.77 299.348C176.328 300.145 184.666 312.268 187.222 311.742C189.778 311.215 198.326 310.433 194.471 298.181Z" fill="white" stroke="#263238" stroke-width="1.10919" stroke-miterlimit="10"/>
<path d="M146.241 249.088L144.544 250.265L166.347 282.876L168.043 281.699L146.241 249.088Z" fill="#263238" stroke="#263238" stroke-width="1.10919" stroke-miterlimit="10"/>
<path d="M150.686 259.506C150.686 259.506 142.306 268.727 143.311 269.581C144.317 270.434 147.501 273.636 148.367 273.237C149.233 272.839 153.647 265.411 153.87 264.572C154.094 263.732 150.686 259.506 150.686 259.506Z" fill="white" stroke="#263238" stroke-width="1.10919" stroke-miterlimit="10"/>
<path d="M154.876 265.696C154.876 265.696 148.535 275.172 149.135 276.026C149.736 276.88 157.753 286.428 158.758 287.068C159.764 287.708 165.42 282.187 165.42 282.187L154.876 265.696Z" fill="white" stroke="#263238" stroke-width="1.10919" stroke-miterlimit="10"/>
<path d="M158.255 271.132C158.255 271.132 152.334 280.623 152.948 280.637" stroke="#263238" stroke-width="1.10919" stroke-miterlimit="10"/>
<path d="M162.222 277.691L156.761 284.265" stroke="#263238" stroke-width="1.10919" stroke-miterlimit="10"/>
<path d="M161.565 268.912L166.649 271.302C166.649 271.302 165.378 284.023 172.236 288.377" fill="white"/>
<path d="M161.565 268.912L166.649 271.302C166.649 271.302 165.378 284.023 172.236 288.377" stroke="#263238" stroke-width="1.10919" stroke-miterlimit="10"/>
<path d="M233.843 368.501C233.843 368.501 184.429 308.383 179.066 301.923C173.703 295.463 161.608 292.788 154.512 295.036C147.417 297.284 138.786 317.49 137.068 325.842C135.35 334.195 121.314 370.251 118.912 374.99C116.509 379.728 112.85 384.85 112.808 386.857C112.766 388.863 112.738 390.443 112.738 390.443L110.28 395.978C110.28 395.978 121.621 397.401 126.342 396.703C131.063 396.006 137.822 390.542 139.051 387.767C140.281 384.993 143.744 378.163 147.92 375.175C153.87 370.906 164.219 342.348 164.219 342.348L183.772 385.875C183.772 385.875 222.46 391.439 231.105 390.414C239.751 389.39 233.843 368.501 233.843 368.501Z" fill="#263238" stroke="#263238" stroke-width="1.10919" stroke-miterlimit="10"/>
<path d="M231.971 363.678C231.971 363.678 225.938 371.532 225.91 373.14V374.734L192.893 378.106C192.893 378.106 158.8 377.423 153.689 378.519C148.577 379.614 74.4981 399.706 69.7774 400.417C65.0567 401.129 62.7941 397.074 60.8388 397.031C58.8835 396.988 56.9421 395.352 54.2046 395.295C51.4672 395.238 49.037 399.194 47.4588 399.564C46.4426 399.946 45.3813 400.19 44.3023 400.289C43.1291 400.289 43.9671 397.444 43.1291 400.289C42.2912 403.135 40.1822 411.004 42.0677 414.632C43.2835 416.891 44.9887 418.838 47.0538 420.324C47.0538 420.324 110.56 420.395 121.077 420.609C131.594 420.822 164.247 417.891 168.172 417.564C172.097 417.236 228.857 420.765 237.865 420.95C246.874 421.135 276.679 420.95 281.832 417.834C286.986 414.718 293.592 397.301 292.545 390.5C291.497 383.698 236.999 364.233 236.999 364.233L231.971 363.678Z" fill="#263238" stroke="#263238" stroke-width="1.10919" stroke-miterlimit="10"/>
<path d="M229.722 358.043C229.165 359.43 229 360.949 229.248 362.426C229.583 365.272 290.938 395.153 292.921 394.043C294.905 392.933 296.301 381.322 296.301 381.322L229.792 354.443L229.722 358.043Z" fill="#F6851F" stroke="#263238" stroke-width="1.10919" stroke-miterlimit="10"/>
<path d="M255.868 262.324C255.868 262.324 244.597 278.075 240.435 290.369C236.273 302.663 229.583 344.853 227.139 350.004C224.695 355.155 224.625 358.342 228.131 359.21C231.636 360.078 265.072 375.118 276.343 379.728C287.614 384.339 297.726 388.55 299.43 381.393C301.134 374.236 301.232 369.853 301.036 359.068C300.841 348.282 300.659 297.555 299.765 282.771C298.871 267.987 291.106 243.854 280.91 244.452C270.715 245.049 255.868 262.324 255.868 262.324Z" fill="#F6851F" stroke="#263238" stroke-width="1.10919" stroke-miterlimit="10"/>
<path d="M277.223 206.887C276.022 198.207 271.944 191.121 264.974 186.682C266.076 185.428 267.569 184.601 269.201 184.341C270.833 184.082 272.503 184.406 273.927 185.259C273.927 185.259 274.863 181.872 272.153 180.691C271.356 180.376 270.495 180.272 269.648 180.386C268.8 180.5 267.995 180.83 267.307 181.346C267.307 181.346 267.768 176.807 270.784 174.601C273.801 172.396 279.681 175.54 279.681 175.54C279.681 175.54 278.424 163.773 270.952 165.893C263.48 168.013 264.471 174.43 264.471 174.43C264.471 174.43 263.075 169.109 258.633 168.639C254.192 168.169 250.77 171.883 250.77 171.883C250.77 171.883 254.555 168.554 258.536 174.316C259.586 175.698 260.283 177.324 260.561 179.048C260.839 180.773 260.69 182.54 260.128 184.191C258.945 183.72 257.737 183.317 256.51 182.982C246.008 180.136 234.024 183.21 228.912 188.418C224.825 189.444 220.992 191.324 217.655 193.938C212.069 198.762 217.292 205.421 218.06 206.332L218.479 208.723C219.008 213.57 219.787 218.386 220.812 223.151C221.859 226.58 223.689 227.747 223.605 229.639C223.521 231.532 220.463 238.291 222.641 240.596C224.82 242.901 226.706 242.204 226.706 242.204C226.706 242.204 235.267 260.545 239.01 259.094C242.753 257.642 249.192 250.969 249.192 250.969L257.642 256.447L273.214 238.959L270.421 231.333C270.421 231.333 278.857 218.655 277.223 206.887Z" fill="white" stroke="#263238" stroke-width="1.10919" stroke-miterlimit="10"/>
<path d="M225.002 206.061C229.527 203.87 241.106 201.167 239.122 204.71C237.139 208.253 236.692 214.457 239.234 215.154C241.776 215.851 247.167 219.551 249.011 220.846C250.854 222.14 253.201 221.258 253.201 219.295C253.201 217.331 255.24 213.461 259.36 215.495C263.48 217.53 263.732 221.457 262.684 226.011C262.126 228.639 260.589 230.945 258.396 232.442C258.396 232.442 263.313 236.469 270.882 232.613L270.394 231.304C270.394 231.304 278.774 218.597 277.181 206.83C275.98 198.15 271.902 191.064 264.933 186.624C266.034 185.37 267.528 184.543 269.16 184.284C270.792 184.025 272.461 184.349 273.885 185.202C273.885 185.202 274.821 181.815 272.111 180.634C271.315 180.319 270.453 180.214 269.606 180.329C268.759 180.443 267.954 180.773 267.265 181.288C267.265 181.288 267.726 176.749 270.743 174.544C273.76 172.338 279.64 175.483 279.64 175.483C279.64 175.483 278.383 163.716 270.91 165.836C263.438 167.956 264.43 174.373 264.43 174.373C264.43 174.373 263.033 169.051 258.592 168.582C254.15 168.112 250.729 171.826 250.729 171.826C250.729 171.826 254.514 168.496 258.494 174.259C259.545 175.64 260.241 177.267 260.519 178.991C260.797 180.716 260.648 182.483 260.086 184.134C258.903 183.663 257.696 183.259 256.469 182.925C245.966 180.079 233.983 183.153 228.871 188.36C224.784 189.387 220.951 191.267 217.614 193.881C212.027 198.705 217.251 205.364 218.019 206.275C218.061 206.36 220.477 208.253 225.002 206.061Z" fill="#263238" stroke="#263238" stroke-width="1.10919" stroke-miterlimit="10"/>
<path d="M228.521 223.094L228.438 227.362C229.822 227.737 231.274 227.769 232.673 227.457C234.072 227.146 235.378 226.498 236.482 225.57" stroke="#263238" stroke-width="1.10919" stroke-miterlimit="10"/>
<path d="M223.787 219.095C224.881 217.718 226.421 216.782 228.131 216.456C229.84 216.13 231.608 216.435 233.117 217.317" stroke="#263238" stroke-width="1.10919" stroke-miterlimit="10"/>
<path d="M231.985 242.744C231.985 242.744 237.432 242.531 240.756 236.071" stroke="#263238" stroke-width="1.10919" stroke-miterlimit="10"/>
<path d="M241.776 250.115C238.536 251.68 234.457 247.355 232.544 246.999C230.994 246.7 231.259 249.845 231.427 251.068C234.052 255.536 237.167 259.862 239.066 259.122C242.81 257.699 249.248 250.997 249.248 250.997L249.541 251.196C250.403 249.728 250.946 248.088 251.134 246.387C251.175 243.783 245.002 248.621 241.776 250.115Z" fill="#263238" stroke="#263238" stroke-width="1.10919" stroke-miterlimit="10"/>
<path d="M289.709 235.046C289.709 235.046 278.019 231.219 271.217 238.675C264.416 246.131 245.952 268.115 249.877 268.2C253.801 268.286 260.673 257.23 268.578 253.786C276.483 250.343 281.148 250.456 283.815 256.091C286.483 261.726 295.561 297.854 299.179 291.536C302.796 285.218 309.332 272.583 306.036 260.531C302.74 248.479 293.578 237.522 289.709 235.046Z" fill="white" stroke="#263238" stroke-width="1.10919" stroke-miterlimit="10"/>
<path d="M259.876 277.976C259.876 277.976 250.1 295.349 249.164 304.911C248.228 314.473 245.086 354.358 245.086 354.358C245.086 354.358 241.217 351.882 239.206 354.23C237.195 356.577 235.924 361.757 235.924 361.757C235.924 361.757 230.477 360.049 229.248 362.426C228.545 363.805 227.732 365.123 226.817 366.367L192.893 378.106C192.893 378.106 246.524 381.18 250.84 380.867C253.475 380.651 255.972 379.578 257.963 377.807C257.963 377.807 261.427 380.653 267.349 378.391C273.27 376.128 275.295 373.368 276.944 368.601C278.592 363.834 286.385 305.708 286.385 305.708" fill="#F6851F"/>
<path d="M259.876 277.976C259.876 277.976 250.1 295.349 249.164 304.911C248.228 314.473 245.086 354.358 245.086 354.358C245.086 354.358 241.217 351.882 239.206 354.23C237.195 356.577 235.924 361.757 235.924 361.757C235.924 361.757 230.477 360.049 229.248 362.426C228.545 363.805 227.732 365.123 226.817 366.367L192.893 378.106C192.893 378.106 246.524 381.18 250.84 380.867C253.475 380.651 255.972 379.578 257.963 377.807C257.963 377.807 261.427 380.653 267.349 378.391C273.27 376.128 275.295 373.368 276.944 368.601C278.592 363.834 286.385 305.708 286.385 305.708" stroke="#263238" stroke-width="1.10919" stroke-miterlimit="10"/>
<path d="M192.893 378.106C192.893 378.106 209.192 379.045 224.541 379.828C222.32 376.143 223.354 370.821 224.541 367.192L192.893 378.106Z" fill="white" stroke="#263238" stroke-width="1.10919" stroke-miterlimit="10"/>
<path d="M0 419.228H726.668" stroke="#263238" stroke-width="1.10919" stroke-miterlimit="10"/>
</svg>
