<svg width="136" height="57" viewBox="0 0 136 57" fill="none" xmlns="http://www.w3.org/2000/svg">
<path d="M136 54.3002C136 54.3429 105.553 54.3796 68.003 54.3796C30.4535 54.3796 0 54.3429 0 54.3002C0 54.2574 30.4412 54.2207 68.003 54.2207C105.565 54.2207 136 54.2574 136 54.3002Z" fill="#263238"/>
<path d="M22.6392 27.092L20.6558 26.8536C19.0745 27.9091 17.1556 28.335 15.2763 28.0476C13.397 27.7602 11.6931 26.7802 10.4996 25.3003C9.30614 23.8204 8.70932 21.9477 8.8265 20.0501C8.94368 18.1525 9.76636 16.3674 11.1329 15.0456C12.4994 13.7238 14.3108 12.9609 16.2113 12.9069C18.1117 12.8529 19.9636 13.5116 21.403 14.7536C22.8423 15.9957 23.7651 17.7312 23.9899 19.619C24.2147 21.5069 23.7253 23.4105 22.6178 24.9558L22.6392 27.092Z" fill="white"/>
<path d="M22.6395 27.0921C22.6395 27.0921 22.6395 27.0401 22.6395 26.9485C22.6395 26.8568 22.6395 26.7101 22.6395 26.5328C22.6395 26.1692 22.6212 25.6374 22.609 24.9529L22.6548 24.9743C22.6522 24.9769 22.6491 24.9791 22.6457 24.9805C22.6423 24.982 22.6386 24.9827 22.6349 24.9827C22.6312 24.9827 22.6275 24.982 22.6241 24.9805C22.6207 24.9791 22.6176 24.9769 22.6151 24.9743C22.6114 24.9694 22.6093 24.9635 22.6093 24.9574C22.6093 24.9514 22.6114 24.9455 22.6151 24.9406C23.3289 23.9362 23.7873 22.7729 23.9506 21.5515C24.0547 20.7534 24.0331 19.9439 23.8864 19.1525C23.7153 18.2528 23.3829 17.3914 22.9054 16.6099C22.3707 15.7505 21.673 15.0041 20.8517 14.4126C19.9655 13.7672 18.9466 13.3277 17.869 13.126C16.7236 12.9143 15.5451 12.9644 14.4218 13.2727C13.2431 13.6002 12.1638 14.2144 11.2802 15.0604C10.8274 15.4883 10.4282 15.9696 10.0914 16.4937C9.9386 16.7596 9.7858 17.0224 9.65134 17.2975L9.47103 17.7162L9.3824 17.924L9.31517 18.1409C8.9485 19.2594 8.84394 20.4473 9.00957 21.6126C9.16551 22.7067 9.56667 23.7514 10.1831 24.6686C10.7485 25.5155 11.4755 26.2424 12.3223 26.8079C13.0833 27.3214 13.9315 27.6921 14.8252 27.9019L15.4548 28.012C15.6626 28.0425 15.8673 28.0486 16.066 28.067C16.454 28.0922 16.8435 28.0851 17.2303 28.0456C18.4533 27.9207 19.6277 27.5012 20.6531 26.8232H20.6714L22.1322 27.0157L22.5173 27.0676L22.6517 27.089H22.5264L22.1475 27.0493L20.6653 26.8843H20.6837C19.6559 27.5788 18.4731 28.0102 17.2395 28.1403C16.8478 28.183 16.4532 28.1932 16.0599 28.1709C15.8582 28.1525 15.6473 28.1495 15.4486 28.1189L14.7885 27.9936C13.8754 27.7928 13.0071 27.425 12.2276 26.9087C11.3657 26.3343 10.6262 25.5947 10.0517 24.7328C9.42357 23.7987 9.01314 22.7356 8.85065 21.6218C8.68068 20.4363 8.78524 19.2276 9.15626 18.089L9.22349 17.869L9.31517 17.655L9.49548 17.2302C9.62994 16.9491 9.80108 16.6802 9.94777 16.4112C10.2903 15.8797 10.6967 15.3922 11.158 14.9596C12.0555 14.0919 13.1552 13.4617 14.3576 13.126C15.5069 12.8154 16.7117 12.7694 17.8813 12.9915C18.9758 13.201 20.0102 13.6508 20.9098 14.3087C21.7421 14.9113 22.4481 15.6713 22.9879 16.5457C23.4699 17.3397 23.8033 18.2147 23.972 19.128C24.1177 19.9352 24.1352 20.7603 24.0239 21.5729C23.8507 22.8054 23.3774 23.9766 22.6456 24.9834L22.6059 24.9437C22.6085 24.941 22.6116 24.9389 22.615 24.9374C22.6184 24.936 22.6221 24.9352 22.6258 24.9352C22.6295 24.9352 22.6332 24.936 22.6366 24.9374C22.64 24.9389 22.6431 24.941 22.6456 24.9437C22.6473 24.9497 22.6473 24.956 22.6456 24.962C22.6456 25.6527 22.6456 26.1844 22.6456 26.5603C22.6456 26.7345 22.6456 26.8659 22.6456 26.9668C22.6456 27.0676 22.6395 27.0921 22.6395 27.0921Z" fill="#263238"/>
<path d="M13.0771 20.9891L14.0306 19.9684L15.9896 21.5942L19.6018 17.875L20.5522 18.8315L15.9132 23.5042L13.0771 20.9891Z" fill="#FF725E"/>
<path d="M34.8025 3.77147C34.8987 3.47193 35.063 3.19875 35.2825 2.9734C35.502 2.74804 35.7708 2.57664 36.0677 2.47266C36.3122 2.39014 36.5934 2.33514 36.7309 2.12121C36.8076 1.95537 36.8551 1.77756 36.8715 1.59557C36.9111 1.46244 36.977 1.33861 37.0654 1.23139C37.1537 1.12418 37.2626 1.03576 37.3857 0.971365C37.5088 0.906974 37.6435 0.867917 37.782 0.856503C37.9204 0.845088 38.0597 0.861545 38.1917 0.904906C38.3121 0.97167 38.4436 1.01619 38.5798 1.03632C39.1391 1.03632 39.2216 -0.021072 39.7808 0.000320269C39.6161 0.174577 39.5093 0.395561 39.4752 0.632923C39.4616 0.750984 39.4879 0.87021 39.5499 0.97158C39.6119 1.07295 39.7062 1.15061 39.8175 1.19217C40.4104 1.35414 40.6946 0.205073 41.3027 0.275362C41.6328 0.315091 41.8742 0.724604 42.1982 0.651259C42.3189 0.607534 42.4307 0.542303 42.5282 0.458727C42.715 0.350449 42.9358 0.317047 43.1463 0.365258C43.3567 0.413469 43.541 0.539705 43.662 0.718492C43.8545 1.0241 43.8851 1.51612 44.2396 1.61391C44.3528 1.62725 44.4676 1.61615 44.5762 1.58135C44.6848 1.54656 44.7847 1.48888 44.8691 1.41221C45.0135 1.71771 45.0856 2.05231 45.08 2.39015C45.4227 2.42651 45.7379 2.5942 45.9596 2.85803C46.1812 3.12186 46.2921 3.4613 46.2688 3.8051C46.6352 3.85878 46.9873 3.98446 47.3048 4.17487C47.4627 4.27184 47.5903 4.41117 47.6729 4.57702C47.7556 4.74288 47.79 4.92861 47.7724 5.11308C47.748 5.19334 47.7357 5.27675 47.7357 5.36062C47.7532 5.45027 47.7944 5.53361 47.8549 5.60205C48.0987 5.85284 48.313 6.13071 48.4936 6.43023C48.6372 6.75112 48.5731 7.20953 48.2461 7.34705C48.1697 7.37761 48.078 7.39289 48.0352 7.46318C48.0122 7.52109 48.0122 7.58558 48.0352 7.64348C48.1249 7.87916 48.2518 8.09893 48.4111 8.29442C48.5696 8.4929 48.6471 8.74401 48.6281 8.99731C48.5853 9.2479 48.3225 9.46183 48.081 9.35181C48.3408 9.65741 48.6036 9.96302 48.8634 10.2686C49.0192 10.452 49.169 10.6812 49.1079 10.9104C49.007 11.216 48.57 11.216 48.3041 11.0601C48.0383 10.9043 47.8518 10.6201 47.5798 10.4489C47.4635 10.3962 47.3529 10.3317 47.2498 10.2564C47.1734 10.1861 47.1123 10.0914 47.0145 10.07C46.8158 10.0211 46.7089 10.3236 46.8036 10.4978C46.9377 10.6513 47.1125 10.7636 47.3079 10.8218C47.4943 10.9104 47.6838 11.0662 47.6685 11.2679C47.6685 11.3657 47.6043 11.4544 47.5982 11.5522C47.5798 11.8944 48.0963 11.9617 48.2919 12.2398C48.347 12.3531 48.3757 12.4774 48.3757 12.6034C48.3757 12.7294 48.347 12.8538 48.2919 12.9671C48.1941 13.2544 47.8916 13.5967 47.6501 13.4102C47.5646 13.3461 47.5279 13.233 47.4515 13.1596C47.3521 13.0844 47.2355 13.035 47.1123 13.016C46.8139 12.9274 46.5475 12.7544 46.3452 12.5179C46.718 12.6921 47.1459 12.9518 47.1428 13.3613C47.1232 13.5322 47.0779 13.6991 47.0084 13.8564C46.9045 14.162 46.9136 14.5226 46.8128 14.8466C46.7757 15.0099 46.6876 15.1572 46.5612 15.2671C46.4349 15.377 46.2768 15.4438 46.1099 15.4578C46.2245 15.5819 46.2941 15.7409 46.3077 15.9093C46.3212 16.0778 46.2778 16.2459 46.1845 16.3867C46.0912 16.5276 45.9533 16.633 45.793 16.6862C45.6326 16.7395 45.459 16.7373 45.3 16.6802C45.2174 16.6378 45.1269 16.6128 45.0342 16.6069C44.9353 16.627 44.8442 16.6747 44.7713 16.7444C44.5264 16.9195 44.2378 17.0236 43.9375 17.0452C43.6371 17.0668 43.3366 17.005 43.0691 16.8666L43.2922 16.6405C42.7423 16.8768 42.1447 16.9814 41.5472 16.9461C40.9574 16.8605 40.3768 16.396 40.3706 15.8001C40.3706 15.5434 40.4532 15.2347 40.2606 15.0605C40.1862 15.0114 40.1024 14.9785 40.0145 14.9637C39.9266 14.949 39.8366 14.9528 39.7503 14.9749L37.5285 15.2347C37.173 15.3091 36.8039 15.2837 36.462 15.1613C36.3791 15.1275 36.3036 15.0776 36.24 15.0146C36.1764 14.9515 36.1259 14.8766 36.0912 14.794C36.0566 14.7114 36.0386 14.6228 36.0382 14.5332C36.0379 14.4437 36.0552 14.3549 36.0891 14.272C35.7973 14.0505 35.4487 13.9159 35.0837 13.8839C34.6772 13.8472 34.2677 13.942 33.8613 13.9267C33.657 13.9345 33.4545 13.8859 33.2761 13.7861C33.0976 13.6864 32.9501 13.5394 32.8497 13.3613C32.6939 12.9824 33.0606 12.4445 33.4426 12.5943C33.1217 12.0686 32.1224 12.5148 31.7709 12.0075C31.4837 11.5949 31.939 11.0907 32.0765 10.6017C31.9421 10.4764 31.7343 10.452 31.5937 10.3328C31.3034 10.0761 31.4806 9.59323 31.719 9.29069C31.9574 8.98814 32.2691 8.64892 32.1804 8.27303C32.0918 7.89713 31.5998 7.64042 31.6365 7.24619C31.6495 7.13709 31.7034 7.03699 31.7874 6.96609C31.8713 6.89519 31.979 6.85877 32.0888 6.86419C32.0307 6.10323 33.464 5.99628 33.5251 5.23838C33.5252 5.17835 33.5047 5.12012 33.467 5.07335C33.4351 5.03181 33.393 4.99919 33.3448 4.97861C33.1103 4.90022 32.867 4.85095 32.6205 4.83192C32.376 4.77997 32.1193 4.62412 32.0949 4.37963C32.0704 4.13515 32.4708 3.94567 32.5747 4.17182C32.6109 4.09732 32.6637 4.03209 32.7291 3.9811C32.7944 3.93012 32.8705 3.89473 32.9515 3.87763C33.0326 3.86053 33.1165 3.86218 33.1968 3.88245C33.2772 3.90271 33.3518 3.94106 33.4151 3.99457C33.4607 3.86778 33.5483 3.76043 33.6634 3.69037C33.7785 3.62032 33.9141 3.59178 34.0477 3.6095C34.3137 3.65229 34.566 3.75697 34.7842 3.91511" fill="#263238"/>
<path d="M41.2534 9.32739C40.5902 8.5267 39.545 8.13858 38.5212 7.96133C38.0945 7.86023 37.6493 7.86653 37.2255 7.97967C37.0154 8.04049 36.8276 8.16142 36.6854 8.32757C36.5431 8.49372 36.4525 8.69785 36.4248 8.91482L36.8129 9.52603C37.2622 10.5926 38.5029 11.054 39.3769 11.8089C39.7559 12.1389 40.1501 12.5698 40.6544 12.5362C40.9196 12.5034 41.1633 12.3739 41.3389 12.1726C42.054 11.4269 41.9165 10.1311 41.2534 9.32739Z" fill="#F6851F"/>
<path d="M43.8056 14.0275C43.8786 13.4872 43.7595 12.9384 43.469 12.477C43.1785 12.0157 42.7352 11.671 42.2164 11.5032C42.3387 10.8309 41.813 10.18 41.1835 9.91715C40.554 9.65433 39.845 9.69406 39.1635 9.73378C38.6202 9.14498 37.8717 8.78698 37.0723 8.73354C36.2729 8.68009 35.4835 8.93528 34.8667 9.44652C33.5892 8.7803 31.9787 9.43123 30.9519 10.4397C30.7208 10.7056 30.4521 10.9362 30.1543 11.1243C29.9188 11.2293 29.6769 11.3191 29.43 11.3932C28.1006 11.8913 27.3396 13.4255 27.4741 14.8374C27.5137 15.0613 27.5229 15.2895 27.5016 15.5158C27.4198 15.8027 27.3017 16.0779 27.1502 16.3348C27.0209 16.6305 26.9564 16.9503 26.9612 17.273C26.9659 17.5956 27.0397 17.9134 27.1777 18.2051C27.416 18.6972 27.8439 19.1219 27.8775 19.669C27.8928 19.944 27.8042 20.2191 27.8469 20.4911C27.9722 21.2734 29.0694 21.5546 29.3016 22.3247C29.3505 22.4805 29.3566 22.6303 29.3902 22.8014C29.4643 23.1282 29.6543 23.417 29.925 23.6143C30.1298 23.7671 30.3896 23.868 30.5363 24.085C30.6156 24.2614 30.6721 24.4473 30.7043 24.6381C30.8388 25.0934 32.5716 26.1997 33.0453 26.2303L43.6772 20.6439C44.0284 20.3385 44.2758 19.9315 44.3853 19.4792C44.4949 19.0269 44.461 18.5517 44.2884 18.1196C44.2126 17.9856 44.1745 17.8334 44.1784 17.6795C44.2163 17.5522 44.2809 17.4345 44.3679 17.3342C44.8508 16.6038 44.4321 15.6258 43.9462 14.8893C43.8723 14.7915 43.8155 14.682 43.7781 14.5654C43.7515 14.386 43.7608 14.2032 43.8056 14.0275Z" fill="#263238"/>
<path d="M40.783 15.6716C40.2269 14.6591 39.4078 13.8155 38.4122 13.2298C37.4166 12.6441 36.2813 12.3379 35.1262 12.3436C34.064 12.4021 33.0246 12.6744 32.0702 13.1443C31.1609 13.5258 30.3892 14.1749 29.8576 15.0054C29.3473 15.4577 28.2593 18.5596 29.2892 20.7446C30.4352 23.1681 31.9388 26.0835 33.1612 27.688C35.6549 30.8968 38.5979 29.8608 38.5979 29.8608L39.9089 32.5746L43.5762 35.6856L46.8492 30.3498L47.5613 29.1977L40.783 15.6716Z" fill="#AE7461"/>
<path d="M37.8645 24.3753C37.7873 24.2637 37.6832 24.1734 37.5619 24.1128C37.4406 24.0521 37.3059 24.023 37.1703 24.0282C37.0347 24.0334 36.9027 24.0726 36.7863 24.1424C36.6699 24.2121 36.5731 24.3101 36.5046 24.4272C36.3273 24.7328 36.4435 25.069 36.6604 25.396C36.911 25.5304 37.1189 25.6802 37.3817 25.5793L37.5039 25.5274C37.7014 25.4299 37.8551 25.262 37.9348 25.0568C37.9756 24.9453 37.9904 24.826 37.9782 24.7079C37.9661 24.5898 37.9272 24.4761 37.8645 24.3753Z" fill="#6F4439"/>
<path d="M31.9602 23.153C32.0244 23.2711 32.1321 23.3596 32.2605 23.3995C32.389 23.4395 32.5279 23.4277 32.6478 23.3669C32.7075 23.3396 32.7613 23.3007 32.8058 23.2525C32.8504 23.2042 32.8849 23.1476 32.9074 23.0859C32.9299 23.0241 32.9398 22.9586 32.9367 22.893C32.9336 22.8274 32.9174 22.763 32.8892 22.7037C32.825 22.5856 32.7172 22.4971 32.5888 22.4572C32.4604 22.4172 32.3215 22.4289 32.2016 22.4898C32.1418 22.5171 32.0881 22.556 32.0435 22.6042C31.999 22.6524 31.9644 22.7091 31.942 22.7708C31.9195 22.8325 31.9095 22.8981 31.9127 22.9637C31.9158 23.0293 31.9319 23.0936 31.9602 23.153Z" fill="#263238"/>
<path d="M30.8448 21.6493C30.9334 21.6768 31.1504 21.2368 31.621 20.9709C32.0916 20.705 32.5959 20.7509 32.6142 20.6653C32.6142 20.6256 32.5103 20.5492 32.2933 20.5217C32.0039 20.4922 31.7125 20.553 31.459 20.6958C31.2059 20.8333 31.0026 21.0472 30.8784 21.3071C30.7928 21.5026 30.802 21.6371 30.8448 21.6493Z" fill="#263238"/>
<path d="M35.7959 23.9169C35.4953 23.9761 35.2036 24.0736 34.928 24.2072C34.7966 24.2653 34.6651 24.305 34.5979 24.2317C34.5189 24.1087 34.4775 23.9653 34.4787 23.8191C34.4298 23.4554 34.3809 23.0734 34.3259 22.6731C34.0937 21.0473 33.8553 19.7423 33.7881 19.7515C33.7208 19.7607 33.8583 21.0839 34.0937 22.7098C34.1517 23.107 34.2098 23.4891 34.2648 23.8527C34.2685 24.0449 34.3412 24.2293 34.4696 24.3722C34.5115 24.407 34.5609 24.4315 34.614 24.4437C34.6671 24.4559 34.7223 24.4555 34.7752 24.4425C34.8537 24.4218 34.9296 24.392 35.0013 24.3539C35.2828 24.2409 35.5496 24.0941 35.7959 23.9169Z" fill="#263238"/>
<path d="M38.6069 29.8517C40.2806 28.9623 41.6749 27.6262 42.6348 25.9919C42.6348 25.9919 42.7448 29.1611 39.0439 30.7716L38.6069 29.8517Z" fill="#6F4439"/>
<path d="M30.1876 20.6286C30.3343 20.702 30.6644 20.4178 31.1045 20.2161C31.5445 20.0144 31.9815 19.9288 32.0213 19.7699C32.0213 19.6935 31.9235 19.6049 31.7157 19.5682C31.4281 19.5319 31.1362 19.5797 30.8753 19.7057C30.6101 19.8234 30.3858 20.017 30.2304 20.2619C30.1235 20.4483 30.1204 20.592 30.1876 20.6286Z" fill="#263238"/>
<path d="M37.3476 20.3841C37.4095 20.5035 37.4221 20.6424 37.3827 20.771C37.3433 20.8996 37.2549 21.0076 37.1367 21.0717C37.0808 21.1057 37.0185 21.1282 36.9537 21.1379C36.8889 21.1476 36.8228 21.1442 36.7594 21.128C36.6959 21.1117 36.6363 21.083 36.5841 21.0434C36.5318 21.0038 36.488 20.9542 36.4552 20.8975C36.3939 20.7783 36.3813 20.64 36.42 20.5117C36.4588 20.3834 36.546 20.2751 36.6631 20.2099C36.7192 20.1754 36.7816 20.1525 36.8468 20.1426C36.9119 20.1327 36.9783 20.1359 37.0422 20.1522C37.106 20.1684 37.166 20.1973 37.2184 20.2372C37.2709 20.277 37.3148 20.327 37.3476 20.3841Z" fill="#263238"/>
<path d="M37.5893 18.1808C37.5618 18.2695 37.082 18.1808 36.59 18.4375C36.098 18.6943 35.8566 19.119 35.771 19.0854C35.7313 19.0701 35.7374 18.9326 35.8352 18.7401C35.9724 18.4838 36.186 18.2766 36.4464 18.1472C36.7036 18.0164 36.996 17.9714 37.2807 18.0189C37.4977 18.0586 37.6016 18.1411 37.5893 18.1808Z" fill="#263238"/>
<path d="M36.5595 16.2676C36.5197 16.4296 36.0797 16.503 35.6182 16.7291C35.1567 16.9553 34.8084 17.2303 34.6586 17.16C34.5914 17.1233 34.5944 16.9797 34.7106 16.7872C34.8772 16.5386 35.1101 16.3417 35.3829 16.2187C35.6498 16.0869 35.949 16.0349 36.2447 16.069C36.4647 16.1026 36.5778 16.1912 36.5595 16.2676Z" fill="#263238"/>
<path d="M42.0543 19.3146C41.9106 19.0518 41.8709 18.2695 42.1093 18.0922C42.7388 17.6033 44.0163 16.9737 44.9942 18.7218C46.3297 21.1085 43.6556 21.9581 43.6129 21.8939C43.5701 21.8298 42.5494 20.2192 42.0543 19.3146Z" fill="#AE7461"/>
<path d="M43.784 20.6592C43.784 20.6592 43.8421 20.6592 43.9307 20.6592C44.0501 20.6435 44.1591 20.5835 44.2363 20.4911C44.435 20.2588 44.4227 19.7393 44.1935 19.3023C44.0867 19.0928 43.933 18.9109 43.7443 18.7705C43.6802 18.7082 43.6019 18.6626 43.5161 18.6375C43.4304 18.6125 43.3398 18.6088 43.2523 18.6269C43.1977 18.641 43.1498 18.6738 43.1168 18.7196C43.0839 18.7654 43.068 18.8212 43.072 18.8775C43.072 18.9631 43.1178 19.0028 43.1086 19.012C43.0995 19.0211 43.0353 19.012 42.9986 18.8928C42.9751 18.8266 42.9751 18.7542 42.9986 18.688C43.0395 18.6028 43.1102 18.5354 43.1973 18.4985C43.3064 18.4641 43.4224 18.4578 43.5346 18.4802C43.6469 18.5027 43.7516 18.5531 43.839 18.6269C44.0558 18.7782 44.2329 18.9795 44.3555 19.2137C44.6092 19.7026 44.6153 20.2894 44.3249 20.5828C44.2712 20.6371 44.206 20.6787 44.1341 20.7046C44.0622 20.7305 43.9854 20.7401 43.9093 20.7325C43.8207 20.7019 43.7779 20.6592 43.784 20.6592Z" fill="#6F4439"/>
<path d="M28.7788 21.0686C28.9489 20.819 29.0447 20.5263 29.055 20.2244C29.0653 19.9225 28.9896 19.6239 28.8369 19.3633C29.2097 19.2839 29.3075 18.691 29.3442 18.309C29.3809 17.927 29.5306 17.6611 29.3442 17.3341C29.2979 17.2739 29.2694 17.2019 29.2617 17.1263C29.2617 17.0071 29.3564 16.9155 29.4389 16.8207C29.649 16.5972 29.7997 16.3245 29.8771 16.0276C29.9545 15.7308 29.9562 15.4192 29.882 15.1216C30.5231 15.062 31.1394 14.8447 31.6759 14.489C31.9001 14.5999 32.1487 14.6522 32.3986 14.6412C32.6485 14.6302 32.8915 14.5561 33.105 14.4258C33.3186 14.2956 33.4957 14.1134 33.6198 13.8963C33.744 13.6791 33.8112 13.4341 33.8152 13.184C33.9764 13.2854 34.1575 13.351 34.3463 13.3763C34.535 13.4016 34.727 13.3861 34.9092 13.3307C35.2728 13.2164 35.6177 13.0496 35.933 12.8356C36.0502 13.195 36.293 13.5 36.6169 13.6948C36.9408 13.8896 37.324 13.961 37.6963 13.8961C37.7445 13.875 37.7966 13.8642 37.8491 13.8642C37.9017 13.8642 37.9537 13.875 38.0019 13.8961C38.0875 13.9572 38.0967 14.0794 38.112 14.1833C38.1405 14.3473 38.2022 14.5037 38.2932 14.643C38.3843 14.7822 38.5029 14.9014 38.6416 14.9933C38.7804 15.0851 38.9365 15.1477 39.1002 15.1771C39.264 15.2065 39.4321 15.2022 39.5941 15.1643C39.547 15.2954 39.5303 15.4354 39.5454 15.5739C39.5605 15.7123 39.6069 15.8455 39.6811 15.9633C39.7554 16.0812 39.8555 16.1805 39.9738 16.2539C40.0922 16.3273 40.2257 16.3727 40.3643 16.3868C40.4804 16.3868 40.6271 16.3868 40.6699 16.4998C40.6806 16.543 40.6806 16.5881 40.6699 16.6312C40.5952 16.9632 40.6153 17.3095 40.7279 17.6306C40.7909 17.7881 40.9119 17.9155 41.0659 17.9865C41.22 18.0576 41.3954 18.0669 41.5561 18.0126C41.507 18.1207 41.4802 18.2376 41.4776 18.3563C41.475 18.4751 41.4965 18.5931 41.5408 18.7032C41.5666 18.7556 41.6039 18.8015 41.65 18.8373C41.6961 18.8732 41.7497 18.8981 41.8068 18.9101C41.8639 18.9222 41.923 18.9211 41.9797 18.907C42.0363 18.8928 42.089 18.866 42.1337 18.8285C42.1979 18.7521 43.2614 17.8598 43.2767 17.7589C43.4478 16.4662 42.0359 15.9253 41.3391 14.8129C40.6183 13.7173 39.654 12.8032 38.5215 12.1419C38.0573 11.8491 37.557 11.6179 37.0332 11.4543C36.4269 11.3039 35.8057 11.2219 35.1812 11.2098C34.3691 11.1231 33.5483 11.1706 32.7517 11.3504C31.2909 11.7569 30.2029 12.967 29.3044 14.1895C28.9455 14.6415 28.6494 15.1401 28.4243 15.6716C28.2017 16.3274 28.0982 17.0178 28.1187 17.71C28.0665 18.7141 28.2226 19.7182 28.5771 20.6591" fill="#263238"/>
<path d="M27.8468 20.4912C27.8294 20.3819 27.8294 20.2705 27.8468 20.1612C27.8468 20.0542 27.8743 19.9228 27.8773 19.7639C27.8792 19.5847 27.8416 19.4074 27.7673 19.2443C27.6716 19.0388 27.5592 18.8416 27.4311 18.6545C27.2743 18.4324 27.1489 18.1897 27.0583 17.9333C26.907 17.4675 26.907 16.9658 27.0583 16.5C27.1204 16.3312 27.196 16.1677 27.2845 16.0111C27.3749 15.8513 27.4389 15.6779 27.4739 15.4976C27.4936 15.3052 27.4874 15.1109 27.4556 14.9201C27.3574 14.0494 27.5743 13.1723 28.0668 12.4477C28.1991 12.2529 28.3529 12.0735 28.5252 11.9129C28.7047 11.7502 28.9039 11.6106 29.1181 11.4973C29.2272 11.4402 29.3395 11.3892 29.4542 11.3445C29.5704 11.3017 29.6896 11.2681 29.8057 11.2284C30.0419 11.1575 30.2605 11.0377 30.4475 10.8769C30.64 10.718 30.8081 10.5224 30.9975 10.3482C31.1881 10.1676 31.3925 10.0021 31.6088 9.85314C31.8309 9.70381 32.065 9.57297 32.3086 9.46195C32.5584 9.35136 32.8183 9.26538 33.0848 9.20525C33.6334 9.07672 34.2085 9.12376 34.729 9.33971L34.8848 9.41001H34.839C35.1533 9.14185 35.5188 8.94021 35.9133 8.8173C36.3077 8.69439 36.7231 8.65275 37.1341 8.69489C37.9252 8.74883 38.6637 9.11092 39.1908 9.70338L39.1602 9.68811C39.5212 9.66014 39.8835 9.65503 40.2451 9.67282C40.5978 9.68856 40.9447 9.7683 41.2689 9.90814C41.5759 10.0582 41.8367 10.2884 42.0237 10.5744C42.2132 10.8467 42.2899 11.1819 42.2377 11.5095L42.2132 11.4698C42.7167 11.6289 43.1489 11.9585 43.4356 12.4019C43.7028 12.7934 43.8435 13.2573 43.839 13.7312C43.8376 13.8397 43.8284 13.948 43.8115 14.0552C43.7895 14.1561 43.7732 14.2581 43.7626 14.3608C43.7534 14.4566 43.7681 14.5532 43.8054 14.6419C43.8455 14.7278 43.8936 14.8096 43.9491 14.8864C44.1415 15.1729 44.3004 15.4805 44.4227 15.8032C44.5223 16.0657 44.5711 16.3447 44.5664 16.6253C44.5598 16.8335 44.5055 17.0374 44.4075 17.2212C44.328 17.371 44.2363 17.4627 44.1996 17.5269C44.1782 17.5654 44.1618 17.6064 44.1508 17.6491C44.1548 17.6049 44.1683 17.5622 44.1905 17.5238C44.2241 17.4413 44.3127 17.3465 44.3891 17.1999C44.4819 17.0179 44.5321 16.8173 44.5358 16.6131C44.5384 16.337 44.4876 16.063 44.3861 15.8063C44.2632 15.4833 44.1032 15.1756 43.9093 14.8895C43.8534 14.8097 43.8034 14.7259 43.7596 14.6389C43.7189 14.5424 43.7022 14.4376 43.7107 14.3333C43.7107 14.2263 43.7412 14.1255 43.7565 14.0277C43.7729 13.9266 43.7821 13.8245 43.784 13.7221C43.7845 13.2606 43.6449 12.8098 43.3837 12.4294C43.1019 12.0001 42.6794 11.6824 42.1888 11.5309H42.1582V11.5003C42.2056 11.1892 42.1312 10.8717 41.9504 10.6141C41.7658 10.342 41.5114 10.1246 41.2139 9.98454C40.8971 9.84957 40.5586 9.77295 40.2146 9.75839C39.856 9.74019 39.4966 9.74633 39.1388 9.77674H39.1205V9.76145C38.5831 9.18281 37.8449 8.8314 37.057 8.77914C36.269 8.72687 35.4909 8.9777 34.8818 9.4803L34.8604 9.49863H34.8329L34.6862 9.4314C34.1811 9.2224 33.6234 9.17645 33.0909 9.29998C32.8301 9.35994 32.5754 9.44383 32.33 9.55058C32.0914 9.66139 31.8615 9.79012 31.6424 9.93565C31.426 10.0811 31.2216 10.2436 31.0312 10.4216C30.8447 10.5927 30.6736 10.7883 30.478 10.9533C30.3831 11.035 30.2808 11.1076 30.1724 11.1703C30.0597 11.2293 29.9422 11.2784 29.821 11.317C29.7018 11.3567 29.5857 11.3903 29.4726 11.4331C29.3596 11.4751 29.2494 11.5241 29.1425 11.5798C28.9345 11.689 28.7414 11.8246 28.568 11.9832C28.3987 12.1393 28.247 12.3135 28.1157 12.5027C27.8671 12.8671 27.6878 13.2743 27.587 13.7037C27.4897 14.1035 27.4638 14.5174 27.5106 14.9262C27.5365 15.1229 27.5365 15.3223 27.5106 15.519C27.4731 15.7057 27.4061 15.8852 27.312 16.0508C27.223 16.2039 27.1473 16.3645 27.0858 16.5306C27.0313 16.6889 26.9954 16.853 26.9788 17.0195C26.9443 17.328 26.9745 17.6403 27.0675 17.9364C27.1551 18.1904 27.2774 18.4311 27.4311 18.6515C27.5575 18.8406 27.6679 19.0399 27.7612 19.2474C27.8345 19.4171 27.871 19.6004 27.8682 19.7853C27.8682 19.9442 27.8407 20.0756 27.8315 20.1826C27.8247 20.2629 27.8247 20.3437 27.8315 20.424C27.8437 20.4607 27.8498 20.4882 27.8468 20.4912Z" fill="#455A64"/>
<path d="M33.4484 9.53504C33.3721 9.53955 33.2955 9.53955 33.2192 9.53504C33.0091 9.54332 32.8021 9.58885 32.608 9.6695C32.3198 9.78149 32.0682 9.97077 31.8806 10.2165C31.6534 10.5171 31.5272 10.8819 31.52 11.2586C31.5165 11.3714 31.5258 11.4841 31.5475 11.5948C31.5542 11.6444 31.5716 11.692 31.5986 11.7342C31.6255 11.7764 31.6612 11.8123 31.7034 11.8393L31.8073 11.8882L31.6973 11.9157C31.4098 11.9828 31.1599 12.1593 31.0005 12.4077C30.8759 12.6076 30.8191 12.8423 30.8385 13.077C30.8498 13.2323 30.8913 13.3838 30.9608 13.5232C31.0097 13.621 31.0463 13.6699 31.0402 13.6729L31.0097 13.6424C30.9819 13.6091 30.9573 13.5733 30.9363 13.5354C30.853 13.3967 30.8018 13.2411 30.7866 13.08C30.7594 12.833 30.8142 12.5839 30.9424 12.371C31.1083 12.103 31.3728 11.911 31.6789 11.8362V11.9126C31.6245 11.8801 31.5781 11.8358 31.5432 11.7829C31.5083 11.73 31.4857 11.6699 31.4772 11.607C31.4533 11.4905 31.443 11.3715 31.4467 11.2525C31.4539 10.8568 31.589 10.4741 31.8317 10.1615C32.0303 9.90992 32.2948 9.71842 32.5958 9.60838C32.7953 9.53046 33.0081 9.49206 33.2222 9.49531C33.2806 9.49565 33.3389 9.50076 33.3964 9.51058C33.4301 9.52892 33.4484 9.53198 33.4484 9.53504Z" fill="#455A64"/>
<path d="M38.8547 10.1586C38.8493 10.204 38.8369 10.2484 38.818 10.29C38.7722 10.4079 38.7159 10.5214 38.6499 10.6292C38.5468 10.7915 38.4103 10.9301 38.2496 11.0357C38.0433 11.1688 37.7948 11.22 37.5528 11.1793L37.6017 11.1426C37.6017 11.1885 37.6017 11.2343 37.5864 11.2802C37.5711 11.326 37.565 11.3718 37.5558 11.4207C37.4843 11.6837 37.3476 11.9243 37.1586 12.1206C37.0086 12.2829 36.8278 12.4138 36.6268 12.5056C36.4921 12.5673 36.3489 12.6085 36.202 12.6279C36.1485 12.6378 36.0936 12.6378 36.04 12.6279C36.2345 12.5957 36.4237 12.5371 36.6023 12.4537C36.7922 12.3581 36.9623 12.2275 37.1035 12.0686C37.2788 11.878 37.4065 11.6487 37.4764 11.3993C37.4764 11.3535 37.4978 11.3107 37.5039 11.2679C37.51 11.2251 37.5039 11.1793 37.5039 11.1365V11.0907H37.5467C37.7691 11.1283 37.9976 11.0826 38.1884 10.9623C38.3441 10.8665 38.4783 10.7395 38.5827 10.5895C38.7813 10.3389 38.8394 10.1525 38.8547 10.1586Z" fill="#455A64"/>
<path d="M41.3422 11.6929C41.3422 11.6929 41.3422 11.6929 41.3606 11.7387C41.3677 11.7873 41.3677 11.8368 41.3606 11.8854C41.3405 12.0664 41.2532 12.2332 41.1161 12.353C40.9079 12.5225 40.6555 12.6286 40.3887 12.6586C40.242 12.68 40.0831 12.7075 39.9273 12.7166C39.752 12.7356 39.5757 12.6923 39.4291 12.5944L39.3955 12.5638H39.4597C39.3425 12.8581 39.1818 13.1332 38.983 13.3798C38.816 13.5827 38.5959 13.735 38.3473 13.8199C38.1802 13.8767 38.0012 13.8893 37.8278 13.8565C37.7808 13.8475 37.7348 13.8342 37.6903 13.8168C37.6627 13.8168 37.6475 13.7954 37.6475 13.7924C37.6475 13.7893 37.7147 13.8107 37.8308 13.826C37.9984 13.8454 38.1681 13.8244 38.3259 13.7649C38.5657 13.6793 38.7773 13.5291 38.9371 13.3309C39.1289 13.0883 39.2834 12.8185 39.3955 12.5302L39.42 12.4783L39.4628 12.518L39.4933 12.5425C39.6246 12.6273 39.7812 12.664 39.9364 12.6464C40.088 12.6373 40.239 12.6199 40.3887 12.5944C40.6424 12.5713 40.8847 12.4782 41.0886 12.3255C41.2194 12.2159 41.3089 12.065 41.3422 11.8976C41.3477 11.8295 41.3477 11.761 41.3422 11.6929Z" fill="#455A64"/>
<path d="M39.2185 1.71167C39.2185 1.71167 39.1788 1.73611 39.1177 1.79418C39.0309 1.87678 38.9703 1.98305 38.9435 2.09978C38.9023 2.28876 38.9271 2.48613 39.0138 2.65904C39.132 2.88417 39.2834 3.09022 39.463 3.27025L39.4936 3.30387L39.4508 3.32526C39.1495 3.48009 38.907 3.72903 38.7601 4.03426C38.6743 4.20274 38.6295 4.38915 38.6295 4.57824C38.6295 4.76733 38.6743 4.95374 38.7601 5.12221C38.8348 5.27794 38.9446 5.4142 39.0809 5.52026C39.2172 5.62632 39.3762 5.6993 39.5455 5.73342L39.6617 5.75482L39.5577 5.80982C39.3869 5.9039 39.2374 6.03228 39.1185 6.1869C38.9997 6.34151 38.9141 6.51903 38.8671 6.7083C38.7911 7.01592 38.8258 7.34044 38.9649 7.62511C39.0535 7.81076 39.1793 7.97617 39.3347 8.11102C39.4447 8.2027 39.515 8.24244 39.5119 8.24855L39.46 8.22409C39.4112 8.19662 39.3642 8.166 39.3194 8.13242C39.1061 7.96791 38.9442 7.74593 38.8527 7.49258C38.7612 7.23922 38.7439 6.96501 38.8029 6.70218C38.8491 6.5022 38.937 6.3142 39.0607 6.15044C39.1844 5.98668 39.3413 5.85083 39.5211 5.75176V5.8251C39.3393 5.79045 39.1681 5.71384 39.0211 5.60136C38.8742 5.48888 38.7555 5.34365 38.6745 5.17722C38.5779 4.99372 38.5295 4.78865 38.534 4.5813C38.5386 4.38417 38.5855 4.19033 38.6715 4.01287C38.8278 3.69407 39.0844 3.43535 39.4019 3.27636V3.33137C39.2197 3.14668 39.068 2.93418 38.9526 2.70182C38.8662 2.51771 38.8457 2.30945 38.8946 2.11201C38.9257 1.98607 38.9951 1.87288 39.0932 1.78807C39.1192 1.76603 39.148 1.74754 39.1788 1.73306L39.2185 1.71167Z" fill="#455A64"/>
<path d="M46.3507 4.56616C46.3507 4.56616 46.3507 4.5845 46.3263 4.612C46.2983 4.65367 46.2677 4.69348 46.2346 4.73119C46.1132 4.87648 45.9711 5.00313 45.8128 5.10708C45.5692 5.267 45.2959 5.37614 45.0091 5.42797C44.6415 5.5013 44.2608 5.47169 43.9089 5.3424L43.9609 5.30878C43.9537 5.56698 43.8895 5.82039 43.7727 6.05078C43.6559 6.28117 43.4895 6.48282 43.2855 6.64122C43.0641 6.80234 42.7982 6.89065 42.5244 6.89393C42.2506 6.89722 41.9826 6.81531 41.7575 6.65955L41.8186 6.62288C41.8466 6.81397 41.8234 7.00907 41.7514 7.18825C41.6889 7.34994 41.5978 7.49901 41.4824 7.62831C41.2877 7.83334 41.0525 7.9957 40.7918 8.10506C40.6255 8.17823 40.4538 8.23851 40.2783 8.28537C40.2176 8.30919 40.1538 8.32461 40.0889 8.33121C40.1485 8.30481 40.2097 8.28235 40.2722 8.26397C40.3884 8.22119 40.5626 8.16007 40.7734 8.06227C41.0229 7.94866 41.2472 7.7866 41.4335 7.58553C41.5503 7.45874 41.6382 7.30807 41.6909 7.14395C41.7437 6.97984 41.7602 6.8062 41.7391 6.6351L41.7239 6.54036L41.8003 6.59843C42.014 6.74617 42.2687 6.82327 42.5285 6.81888C42.7883 6.8145 43.0402 6.72886 43.2488 6.57398C43.4434 6.42319 43.6023 6.23136 43.7143 6.01215C43.8263 5.79294 43.8885 5.55175 43.8967 5.30573V5.25071L43.9456 5.27211C44.2845 5.39722 44.6507 5.42889 45.006 5.36379C45.2875 5.31516 45.5565 5.2113 45.7976 5.05819C46.0054 4.92258 46.1918 4.75675 46.3507 4.56616Z" fill="#455A64"/>
<path d="M45.7581 9.45882C45.7581 9.45882 45.7581 9.47715 45.7581 9.51688C45.7368 9.57062 45.7008 9.61725 45.6542 9.65135C45.4818 9.76645 45.2831 9.83586 45.0766 9.85305C44.7682 9.88949 44.4562 9.82858 44.1842 9.67885C43.8517 9.49022 43.602 9.18381 43.4844 8.8201H43.5577C43.3405 9.13056 43.0284 9.36218 42.6684 9.48021C42.3738 9.58049 42.0597 9.6098 41.7516 9.56578C41.5493 9.54003 41.3517 9.48549 41.1648 9.40381C41.0942 9.37918 41.0281 9.34304 40.9692 9.29685C41.2228 9.40128 41.4889 9.47216 41.7608 9.50771C42.054 9.53893 42.3504 9.50447 42.6287 9.40686C42.9706 9.29076 43.267 9.06929 43.4752 8.77426L43.521 8.70703L43.5485 8.78648C43.6482 9.09983 43.8519 9.36973 44.1259 9.55147C44.3999 9.73322 44.7277 9.8159 45.0552 9.78581C45.2539 9.77314 45.4472 9.71567 45.6205 9.61773C45.6837 9.58268 45.7324 9.52638 45.7581 9.45882Z" fill="#455A64"/>
<path d="M34.0202 4.6731C34.0706 4.95593 34.1743 5.2266 34.3258 5.47072C34.4904 5.73133 34.7146 5.94918 34.9798 6.10638C35.3079 6.29072 35.6833 6.37367 36.0585 6.34475C36.2753 6.33001 36.4875 6.27618 36.685 6.18584L36.7309 6.16445V6.21334C36.7896 6.5072 36.9037 6.7872 37.067 7.03847C37.1978 7.23814 37.3562 7.41821 37.5377 7.57328C37.6052 7.63116 37.6767 7.68426 37.7516 7.7322C37.7774 7.75062 37.8071 7.76271 37.8385 7.76749C37.8698 7.77227 37.9018 7.7696 37.9319 7.7597C37.951 7.75303 37.9683 7.74214 37.9826 7.72786C37.9969 7.71357 38.0077 7.69625 38.0144 7.67718C38.0144 7.65273 38.0144 7.63746 38.0144 7.63746C38.0144 7.63746 38.0144 7.63746 38.0144 7.68024C38.0102 7.70338 38.0006 7.72517 37.9862 7.74379C37.9718 7.7624 37.9532 7.77729 37.9319 7.7872C37.8977 7.80059 37.8609 7.8059 37.8243 7.80272C37.7877 7.79954 37.7524 7.78796 37.721 7.76887C37.6405 7.72326 37.5638 7.67113 37.4918 7.61301C37.3001 7.46028 37.1331 7.27885 36.9968 7.07514C36.8235 6.82012 36.702 6.53354 36.6392 6.23168L36.6942 6.25918C36.488 6.35398 36.2665 6.41091 36.0402 6.42726C35.6859 6.46 35.3296 6.39116 35.013 6.2288C34.6964 6.06644 34.4326 5.81727 34.2524 5.51045C34.1445 5.32682 34.0681 5.12643 34.0263 4.91758C34.0263 4.84117 34.0079 4.78617 34.0049 4.74644C34.0051 4.72122 34.0103 4.69631 34.0202 4.6731Z" fill="#455A64"/>
<path d="M37.4945 23.7153C37.4151 23.7367 37.5709 24.2379 37.2531 24.7299C36.9353 25.222 36.3791 25.3411 36.3974 25.4053C36.4158 25.4695 36.5472 25.4664 36.7733 25.4053C37.0702 25.3179 37.3267 25.1285 37.4976 24.8705C37.661 24.623 37.7223 24.3218 37.6687 24.0301C37.6229 23.7978 37.5281 23.6909 37.4945 23.7153Z" fill="#263238"/>
<path d="M39.8569 32.3578C39.8569 32.3578 42.0237 46.6356 44.6152 49.1202C47.4023 51.7942 52.4112 53.1114 52.4112 53.1114C52.4112 53.1114 59.0764 55.7488 61.3929 55.1742L65.5796 40.8108C65.5116 40.562 65.3633 40.3426 65.1577 40.1867C64.9521 40.0309 64.7008 39.9473 64.4428 39.949C64.0272 39.9337 62.8323 40.493 62.2883 40.3616C60.1185 39.839 55.0332 32.0583 55.0332 32.0583C55.0332 32.0583 50.2016 25.3962 46.0821 25.9982C43.2583 26.4108 42.0878 27.6668 41.0243 30.515C40.7677 31.2011 40.37 31.8258 39.8569 32.3486V32.3578Z" fill="#F6851F"/>
<path d="M39.8566 32.3577L37.9772 41.8711L29.2919 39.4018L27.7944 44.4749L42.4879 51.1095L45.3789 39.081L39.8566 32.3577Z" fill="#F6851F"/>
<path d="M59.5042 49.1382C59.4644 49.123 60.1154 47.3413 60.9313 45.1654C61.7473 42.9895 62.4594 41.2292 62.5083 41.2445C62.5572 41.2598 61.8971 43.0414 61.0811 45.2173C60.2651 47.3932 59.5439 49.1535 59.5042 49.1382Z" fill="#263238"/>
<path d="M59.3423 47.1429C59.8228 45.5261 60.4067 43.9418 61.0903 42.3999C60.8726 43.2151 60.6052 44.0163 60.2897 44.7989C60.0217 45.5987 59.7053 46.3815 59.3423 47.1429Z" fill="#263238"/>
<path d="M39.6308 35.1082C39.7142 35.8479 39.7571 36.5916 39.7592 37.336C39.7836 37.9472 39.8081 38.5034 39.8325 38.9068C39.8621 39.1225 39.8703 39.3405 39.8569 39.5578C39.7805 39.3517 39.7351 39.1354 39.7225 38.916C39.6675 38.5156 39.6247 37.9564 39.6002 37.3421C39.5758 36.7279 39.5727 36.1655 39.5819 35.7622C39.5715 35.543 39.5879 35.3233 39.6308 35.1082Z" fill="#263238"/>
<g opacity="0.3">
<path d="M34.8481 47.6592L38.0845 46.2534L39.857 39.9763L38.6529 47.7081L36.2661 48.301L34.8481 47.6592Z" fill="black"/>
</g>
<g opacity="0.3">
<path d="M61.8636 42.4701C61.7521 42.4182 61.6265 42.4048 61.5065 42.4319C61.3865 42.459 61.2788 42.5251 61.2004 42.6199C61.0324 42.8184 60.9047 43.0478 60.8245 43.2953C60.1868 44.9109 59.5471 46.5336 58.9053 48.1635C58.7957 48.39 58.7413 48.6393 58.7464 48.8909C58.7739 49.1415 58.9695 49.389 59.1957 49.3554C59.4218 49.3218 59.5318 49.0895 59.6266 48.8817C60.5424 46.8191 61.3194 44.6975 61.9522 42.5312" fill="black"/>
</g>
<path d="M15.8398 40.6763C15.8398 40.6763 17.0103 39.1116 17.6979 38.7785C18.2449 38.5126 21.4996 37.9381 21.8969 38.0145C22.2942 38.0909 29.2925 39.625 29.2925 39.625L28.3757 42.6811L27.9265 42.4733C27.9265 42.4733 26.5146 43.1823 25.4358 42.843C24.573 42.5109 23.7523 42.078 22.991 41.5534L22.0283 41.914C22.0283 41.914 23.0857 42.2471 23.1652 42.6841C23.2446 43.1211 22.6426 43.17 22.6426 43.17L22.5998 43.3626C22.5632 43.5245 22.4647 43.6657 22.3253 43.7559C22.186 43.8461 22.0169 43.8782 21.8541 43.8454C21.2429 43.7232 20.3261 43.5093 20.1366 43.2892C20.0541 43.1975 19.6293 42.4152 19.6293 42.4152C18.9723 41.9537 18.9845 41.4984 19.0181 41.2172C19.0915 40.6549 19.6874 40.0284 19.6874 40.0284L18.5047 39.9643C18.5047 39.9643 16.6039 41.914 15.8398 40.6763Z" fill="#AE7461"/>
<path d="M25.6737 40.1627C24.2527 40.1627 22.9019 39.9733 21.8445 40.2361C21.5612 40.2892 21.2979 40.4192 21.0836 40.612C20.978 40.7104 20.9065 40.8399 20.8796 40.9817C20.8527 41.1235 20.8717 41.2702 20.9338 41.4004C21.0046 41.5014 21.0989 41.5837 21.2086 41.6401C21.3183 41.6965 21.44 41.7254 21.5634 41.7244C21.8078 41.7244 22.0523 41.6877 22.2999 41.6816C22.894 41.7056 23.4724 41.8802 23.9807 42.1889C24.488 42.4949 25.0337 42.7323 25.6034 42.8948C26.181 43.0201 27.541 42.9101 27.9383 42.4731" fill="#AE7461"/>
<path d="M27.9384 42.4732C27.9384 42.4732 27.914 42.5129 27.8498 42.574C27.748 42.6539 27.6347 42.7178 27.5136 42.7635C27.0708 42.9232 26.603 43.0028 26.1323 42.9988C25.8031 43.0053 25.4756 42.9504 25.1666 42.8368C24.8186 42.7031 24.4806 42.5448 24.155 42.3632C23.8051 42.1648 23.4366 42.0011 23.0549 41.8742C22.8568 41.8107 22.6514 41.7726 22.4437 41.7611C22.224 41.7613 22.0046 41.7745 21.7866 41.8008C21.5484 41.8291 21.3072 41.7832 21.0959 41.6694C20.9872 41.6086 20.8997 41.516 20.8451 41.404C20.7905 41.2921 20.7714 41.1661 20.7903 41.0429C20.8232 40.8149 20.9438 40.6088 21.1265 40.4684C21.2963 40.3445 21.4882 40.2543 21.6919 40.2025C22.3717 40.0457 23.0715 39.9942 23.7669 40.0497L25.1605 40.1231C25.3324 40.1238 25.504 40.137 25.6739 40.1628C25.63 40.1744 25.5848 40.1795 25.5394 40.1781C25.4539 40.1781 25.3255 40.1781 25.1605 40.1781C24.8304 40.1781 24.3537 40.1781 23.7639 40.1506C23.0812 40.1148 22.3969 40.1765 21.7316 40.3339C21.5481 40.3839 21.3752 40.4668 21.2212 40.5784C21.0701 40.6947 20.9713 40.8661 20.9462 41.0552C20.932 41.1472 20.9464 41.2414 20.9874 41.325C21.0283 41.4086 21.094 41.4776 21.1754 41.5227C21.3625 41.6228 21.5764 41.6613 21.7866 41.6328C22.0098 41.607 22.2343 41.5937 22.4589 41.593C22.6811 41.6069 22.9008 41.6479 23.1129 41.7153C23.5035 41.8484 23.8802 42.0193 24.2376 42.2256C24.916 42.6015 25.5547 42.901 26.1445 42.8766C26.6046 42.89 27.0638 42.8291 27.5045 42.6963C27.6603 42.646 27.8069 42.5707 27.9384 42.4732Z" fill="#6F4439"/>
<path d="M21.1298 39.8328C21.1298 39.8511 20.9953 39.9183 20.7569 39.9611C20.454 40.0132 20.1475 40.0418 19.8401 40.0467C19.3994 40.0832 18.9557 40.0554 18.5229 39.9642C18.9576 39.8972 19.3976 39.8716 19.837 39.8878C20.1977 39.8878 20.5247 39.8664 20.7539 39.8511C20.8779 39.8297 21.0042 39.8235 21.1298 39.8328Z" fill="#6F4439"/>
<path d="M22.6913 43.1731C22.1421 43.2613 21.5805 43.2342 21.0423 43.0937C20.5041 42.9533 20.001 42.7024 19.5649 42.3572C20.0615 42.5847 20.5718 42.7806 21.093 42.9439C21.6209 43.0512 22.1545 43.1277 22.6913 43.1731Z" fill="#6F4439"/>
<path d="M20.7383 41.5777C20.9724 41.5315 21.2148 41.5516 21.4381 41.6358C21.6754 41.6676 21.8995 41.7638 22.086 41.9139C21.8522 41.9127 21.6205 41.8703 21.4014 41.7886C21.1699 41.757 20.9455 41.6857 20.7383 41.5777Z" fill="#6F4439"/>
<path d="M6.36279 43.9768L14.0732 40.2179C14.1351 40.1872 14.2041 40.1738 14.273 40.1791C14.3419 40.1845 14.408 40.2085 14.4644 40.2485L22.9418 45.6363C22.9899 45.6691 23.0306 45.7116 23.061 45.7612C23.0915 45.8108 23.1112 45.8663 23.1187 45.9241C23.1262 45.9818 23.1214 46.0405 23.1046 46.0962C23.0878 46.1519 23.0594 46.2035 23.0213 46.2475L18.5411 52.219L6.36279 43.9768Z" fill="#263238"/>
<path d="M7.3252 44.2517L17.7035 51.085L22.4159 45.8286L14.2471 40.7556L7.3252 44.2517Z" fill="white"/>
<path d="M11.3592 42.2166L20.2675 48.2278L17.7035 51.0852L7.3252 44.2519L11.3592 42.2166Z" fill="#E0E0E0"/>
<path d="M15.9128 42.3936L14.5498 43.4999C14.5281 43.5187 14.5027 43.533 14.4753 43.5417C14.4479 43.5504 14.419 43.5535 14.3904 43.5506C14.3617 43.5477 14.334 43.5391 14.3089 43.5251C14.2837 43.5111 14.2617 43.4921 14.2442 43.4693C14.2253 43.4476 14.211 43.4223 14.2023 43.3948C14.1936 43.3674 14.1906 43.3385 14.1934 43.3099C14.1963 43.2813 14.205 43.2535 14.219 43.2284C14.2329 43.2032 14.2519 43.1812 14.2747 43.1637L15.6377 42.0574C15.6594 42.0385 15.6848 42.0243 15.7122 42.0156C15.7396 42.0068 15.7685 42.0038 15.7971 42.0067C15.8258 42.0095 15.8535 42.0182 15.8786 42.0322C15.9038 42.0462 15.9258 42.0652 15.9433 42.088C15.9618 42.1099 15.9757 42.1352 15.9842 42.1626C15.9927 42.19 15.9956 42.2187 15.9927 42.2472C15.9899 42.2757 15.9813 42.3034 15.9676 42.3285C15.9539 42.3536 15.9352 42.3758 15.9128 42.3936Z" fill="#E0E0E0"/>
<path d="M16.5274 42.895L15.1675 44.0013C15.1458 44.0202 15.1204 44.0344 15.093 44.0431C15.0656 44.0519 15.0367 44.0549 15.0081 44.052C14.9794 44.0492 14.9517 44.0405 14.9265 44.0265C14.9014 44.0125 14.8794 43.9935 14.8619 43.9707C14.843 43.949 14.8287 43.9237 14.82 43.8963C14.8113 43.8689 14.8082 43.8399 14.8111 43.8113C14.814 43.7827 14.8227 43.755 14.8366 43.7298C14.8506 43.7047 14.8696 43.6826 14.8924 43.6651L16.2554 42.5588C16.2769 42.5395 16.3022 42.5249 16.3297 42.5159C16.3572 42.5069 16.3862 42.5038 16.415 42.5066C16.4437 42.5095 16.4716 42.5184 16.4967 42.5326C16.5219 42.5469 16.5438 42.5662 16.561 42.5894C16.5797 42.6113 16.5938 42.6368 16.6022 42.6643C16.6107 42.6918 16.6135 42.7208 16.6103 42.7495C16.6072 42.7781 16.5982 42.8058 16.5839 42.8308C16.5697 42.8558 16.5504 42.8777 16.5274 42.895Z" fill="#E0E0E0"/>
<path d="M17.1872 43.4816L15.8242 44.5879C15.8029 44.6076 15.7776 44.6227 15.7501 44.6319C15.7226 44.6412 15.6934 44.6445 15.6645 44.6416C15.6356 44.6387 15.6076 44.6297 15.5825 44.6151C15.5573 44.6006 15.5355 44.5809 15.5186 44.5573C15.4988 44.536 15.4838 44.5108 15.4745 44.4832C15.4653 44.4557 15.462 44.4265 15.4649 44.3976C15.4678 44.3687 15.4768 44.3408 15.4913 44.3156C15.5058 44.2904 15.5255 44.2687 15.5491 44.2517L16.9091 43.1424C16.9308 43.1235 16.9561 43.1092 16.9835 43.1005C17.0109 43.0918 17.0399 43.0888 17.0685 43.0916C17.0971 43.0945 17.1248 43.1032 17.15 43.1172C17.1751 43.1311 17.1971 43.1501 17.2147 43.1729C17.2342 43.1945 17.2491 43.2199 17.2584 43.2475C17.2676 43.2751 17.2711 43.3043 17.2685 43.3333C17.2659 43.3623 17.2574 43.3904 17.2434 43.416C17.2294 43.4415 17.2102 43.4638 17.1872 43.4816Z" fill="#E0E0E0"/>
<path d="M17.4592 44.2794L16.686 44.909C16.6641 44.9275 16.6387 44.9414 16.6114 44.9498C16.584 44.9583 16.5552 44.9612 16.5267 44.9584C16.4982 44.9555 16.4706 44.947 16.4455 44.9332C16.4203 44.9195 16.3982 44.9009 16.3804 44.8784C16.3615 44.8567 16.3473 44.8314 16.3386 44.804C16.3298 44.7766 16.3268 44.7476 16.3297 44.719C16.3325 44.6904 16.3412 44.6626 16.3552 44.6375C16.3692 44.6124 16.3882 44.5904 16.411 44.5728L17.1841 43.9433C17.206 43.9248 17.2314 43.9109 17.2588 43.9024C17.2861 43.8939 17.3149 43.891 17.3434 43.8939C17.3719 43.8967 17.3996 43.9053 17.4247 43.919C17.4498 43.9328 17.472 43.9514 17.4898 43.9738C17.5086 43.9955 17.5229 44.0209 17.5316 44.0483C17.5403 44.0757 17.5434 44.1046 17.5405 44.1332C17.5376 44.1619 17.5289 44.1896 17.515 44.2147C17.501 44.2399 17.482 44.2619 17.4592 44.2794Z" fill="#E0E0E0"/>
<path d="M14.7667 42.2073L13.8682 42.8368C13.8453 42.8551 13.8189 42.8683 13.7905 42.8756C13.7622 42.8829 13.7326 42.8841 13.7038 42.8792C13.6749 42.8743 13.6474 42.8634 13.6231 42.8471C13.5988 42.8309 13.5782 42.8096 13.5626 42.7848C13.5469 42.7624 13.5357 42.7371 13.5298 42.7103C13.5239 42.6835 13.5233 42.6559 13.5282 42.6289C13.533 42.6019 13.5431 42.5761 13.5579 42.5531C13.5728 42.53 13.592 42.5101 13.6146 42.4945L14.5191 41.8619C14.5424 41.8446 14.5689 41.8321 14.5971 41.8253C14.6252 41.8185 14.6545 41.8175 14.6831 41.8224C14.7117 41.8272 14.739 41.8378 14.7633 41.8536C14.7877 41.8693 14.8086 41.8898 14.8248 41.9139C14.8403 41.9369 14.8511 41.9628 14.8566 41.9901C14.8621 42.0173 14.8621 42.0454 14.8567 42.0726C14.8513 42.0999 14.8406 42.1258 14.8251 42.1489C14.8097 42.172 14.7898 42.1919 14.7667 42.2073Z" fill="#F6851F"/>
<path d="M19.4091 45.2206L18.6328 45.9968C18.6134 46.0179 18.5897 46.0348 18.5634 46.0463C18.5371 46.0578 18.5087 46.0638 18.48 46.0638C18.4513 46.0638 18.4229 46.0578 18.3966 46.0463C18.3703 46.0348 18.3467 46.0179 18.3272 45.9968C18.3061 45.9774 18.2893 45.9537 18.2777 45.9274C18.2662 45.9011 18.2603 45.8727 18.2603 45.844C18.2603 45.8153 18.2662 45.7869 18.2777 45.7606C18.2893 45.7343 18.3061 45.7107 18.3272 45.6912L19.1035 44.9241C19.1229 44.903 19.1465 44.8862 19.1728 44.8747C19.1991 44.8631 19.2275 44.8572 19.2563 44.8572C19.285 44.8572 19.3134 44.8631 19.3397 44.8747C19.366 44.8862 19.3896 44.903 19.4091 44.9241C19.4287 44.9435 19.4444 44.9666 19.455 44.992C19.4657 45.0174 19.4712 45.0448 19.4712 45.0724C19.4712 45.1 19.4657 45.1273 19.455 45.1527C19.4444 45.1782 19.4287 45.2012 19.4091 45.2206Z" fill="#F6851F"/>
<path d="M18.5411 52.2188C18.493 52.2943 18.4304 52.3595 18.357 52.4108C18.2837 52.4621 18.2009 52.4984 18.1135 52.5177C18.0261 52.537 17.9358 52.5389 17.8476 52.5233C17.7595 52.5077 17.6753 52.4748 17.5998 52.4267L6.26804 45.1747C6.19258 45.1265 6.12734 45.064 6.07606 44.9906C6.02478 44.9172 5.98845 44.8345 5.96915 44.7471C5.94985 44.6597 5.94796 44.5693 5.96359 44.4812C5.97922 44.393 6.01206 44.3089 6.06023 44.2334C6.15796 44.0815 6.31199 43.9746 6.48848 43.9362C6.66498 43.8978 6.84949 43.9311 7.00149 44.0287L18.3333 51.2776C18.4088 51.3257 18.474 51.3883 18.5253 51.4616C18.5766 51.535 18.6129 51.6178 18.6322 51.7052C18.6515 51.7926 18.6534 51.8829 18.6377 51.9711C18.6221 52.0592 18.5893 52.1434 18.5411 52.2188Z" fill="#263238"/>
<path d="M105.589 29.9923L105.919 21.9182C105.919 21.9182 114.186 20.1274 114.391 18.6422L98.8048 16.8513L97.7749 29.4147L105.589 29.9923Z" fill="#455A64"/>
<g opacity="0.6">
<path d="M101.03 22.2239C100.883 22.1662 100.762 22.0564 100.691 21.9154C100.62 21.7745 100.604 21.6123 100.645 21.4599C100.696 21.3107 100.802 21.1871 100.942 21.1147C101.083 21.0424 101.245 21.027 101.396 21.0718C101.552 21.1329 101.68 21.2494 101.755 21.3989C101.83 21.5484 101.847 21.7203 101.803 21.8816C101.73 22.0289 101.604 22.1426 101.45 22.1994C101.296 22.2563 101.126 22.2519 100.975 22.1872" fill="white"/>
</g>
<path d="M98.808 16.8513L98.7041 18.1196L113.81 19.3206C113.978 19.2558 114.128 19.15 114.244 19.0128C114.361 18.8757 114.442 18.7115 114.479 18.5352L98.808 16.8513Z" fill="#263238"/>
<path d="M106.164 22.0162C106.164 21.9398 105.788 21.8756 105.434 21.6036C105.079 21.3316 104.899 20.9924 104.822 21.0169C104.746 21.0413 104.822 21.4906 105.265 21.8145C105.709 22.1384 106.176 22.0895 106.164 22.0162Z" fill="#263238"/>
<path d="M107.857 21.4659C107.878 21.3926 107.551 21.2367 107.325 20.8944C107.099 20.5521 107.041 20.2038 106.964 20.2007C106.888 20.1976 106.805 20.6255 107.108 21.0472C107.41 21.469 107.848 21.5362 107.857 21.4659Z" fill="#263238"/>
<path d="M108.951 19.5744C108.884 19.553 108.747 19.9258 108.912 20.3598C109.077 20.7937 109.419 20.9862 109.456 20.9251C109.492 20.864 109.291 20.6195 109.15 20.265C109.009 19.9105 109.015 19.5866 108.951 19.5744Z" fill="#263238"/>
<path d="M105.895 23.8496C105.867 23.7763 105.51 23.8496 105.079 23.7915C104.648 23.7335 104.324 23.5685 104.281 23.6296C104.239 23.6907 104.538 23.9902 105.045 24.0574C105.553 24.1247 105.919 23.9107 105.895 23.8496Z" fill="#263238"/>
<g opacity="0.3">
<path d="M105.589 29.9923L105.919 21.9182C105.919 21.9182 114.186 20.1274 114.391 18.6422L98.8048 16.8513L97.7749 29.4147L105.589 29.9923Z" fill="black"/>
</g>
<path d="M106.897 24.0698C106.772 24.3234 105.834 47.7663 105.834 47.7663L97.7628 44.5819C96.8345 42.6134 96.4292 40.4389 96.5862 38.2681C96.8368 34.6192 98.976 23.4219 98.976 23.4219L106.897 24.0698Z" fill="#263238"/>
<path d="M104.743 30.5057L100.844 23.4279C100.844 23.4279 106.983 17.6214 106.39 16.2371L92.1431 22.78L97.7723 34.0568L104.743 30.5057Z" fill="#455A64"/>
<g opacity="0.6">
<path d="M96.8219 26.2211C96.6665 26.249 96.5064 26.2182 96.3725 26.1346C96.2386 26.051 96.1406 25.9206 96.0976 25.7688C96.064 25.615 96.091 25.4542 96.173 25.3199C96.2549 25.1855 96.3856 25.088 96.5377 25.0475C96.7026 25.0186 96.8725 25.0519 97.0142 25.1412C97.156 25.2304 97.2595 25.3691 97.3047 25.5304C97.3222 25.6948 97.2753 25.8595 97.1739 25.99C97.0725 26.1205 96.9244 26.2066 96.7608 26.2302" fill="white"/>
</g>
<path d="M92.1431 22.7801L92.7115 23.917L106.253 17.1173C106.363 16.975 106.437 16.8075 106.466 16.6298C106.495 16.4521 106.48 16.2698 106.421 16.0996L92.1431 22.7801Z" fill="#263238"/>
<path d="M101.106 23.3852C101.069 23.318 100.712 23.4585 100.263 23.4097C99.8134 23.3608 99.4926 23.1621 99.4437 23.2232C99.3948 23.2844 99.6942 23.6236 100.238 23.6755C100.782 23.7275 101.152 23.4402 101.106 23.3852Z" fill="#263238"/>
<path d="M102.268 22.0376C102.249 21.9612 101.895 21.9948 101.516 21.8236C101.137 21.6525 100.905 21.3805 100.85 21.4172C100.795 21.4539 100.935 21.8634 101.409 22.0681C101.883 22.2729 102.298 22.1017 102.268 22.0376Z" fill="#263238"/>
<path d="M102.228 19.8584C102.158 19.8737 102.228 20.2648 102.601 20.549C102.974 20.8333 103.359 20.8241 103.359 20.7507C103.359 20.6774 103.053 20.5796 102.766 20.3412C102.478 20.1029 102.283 19.8309 102.228 19.8584Z" fill="#263238"/>
<path d="M101.815 25.0965C101.754 25.0476 101.488 25.3012 101.091 25.4693C100.694 25.6374 100.327 25.671 100.321 25.7474C100.315 25.8238 100.727 25.9216 101.195 25.7138C101.662 25.506 101.876 25.1332 101.815 25.0965Z" fill="#263238"/>
<g opacity="0.3">
<path d="M103.969 29.1061L103.276 27.844L96.4302 31.3829L97.0047 32.5442L103.969 29.1061Z" fill="black"/>
</g>
<path d="M65.5795 40.8107L67.8379 40.0925C67.8379 40.0925 71.988 36.7584 76.6454 37.1985C79.5982 37.5246 82.4601 38.418 85.074 39.8297L89.9178 42.4824L102.371 45.8165L95.1987 28.9105L102.28 25.9736C102.28 25.9736 109.357 37.3727 111.497 40.5815C113.636 43.7904 115.262 47.0298 115.515 49.6732C115.769 52.3167 113.779 56.0145 108.306 56.6441C102.833 57.2736 79.4081 55.7089 79.4081 55.7089L61.3774 55.1894L65.5795 40.8107Z" fill="#263238"/>
<path d="M65.5797 40.8108C65.5797 40.8108 65.5583 40.8964 65.5124 41.0584C65.4666 41.2203 65.3994 41.4679 65.3077 41.7857C65.1243 42.4275 64.8523 43.3718 64.4978 44.6003C63.7888 47.0452 62.7498 50.6452 61.4418 55.1865L61.399 55.1284L74.3047 55.4982C79.1638 55.5532 84.5271 55.9994 90.3092 56.2652C93.2002 56.4058 96.1951 56.5403 99.2786 56.632C100.807 56.6717 102.39 56.7084 103.976 56.7114C104.767 56.7114 105.568 56.7114 106.369 56.6809C106.769 56.6809 107.172 56.6595 107.573 56.6197C107.976 56.6 108.378 56.5571 108.777 56.4914C110.408 56.2837 111.949 55.6278 113.229 54.5966C113.876 54.0731 114.407 53.4213 114.79 52.6823C115.172 51.9433 115.397 51.1332 115.451 50.3029C115.463 50.0942 115.463 49.8851 115.451 49.6764C115.424 49.4655 115.405 49.2547 115.366 49.0469C115.297 48.6288 115.202 48.2154 115.081 47.8092C114.835 46.986 114.529 46.1821 114.165 45.4041C113.426 43.829 112.57 42.3119 111.604 40.8658C109.938 38.3446 108.358 35.8142 106.797 33.3327L102.212 25.9982L102.31 26.0288L95.2263 28.9626L95.2691 28.8617L102.432 45.7891L102.487 45.9144L102.353 45.8808L89.9027 42.5405L86.1682 40.4899C85.557 40.166 84.9916 39.8268 84.4079 39.5365C83.8242 39.2461 83.2375 38.9864 82.6568 38.7541C80.5646 37.8933 78.3467 37.3773 76.0894 37.2261C75.1468 37.2029 74.2054 37.3057 73.2901 37.5317C72.502 37.7275 71.7322 37.9903 70.9889 38.3171C69.8801 38.798 68.8309 39.4062 67.8625 40.1293L66.1573 40.6611L65.598 40.8292L66.145 40.6458L67.8503 40.0927C68.818 39.3626 69.8671 38.7473 70.9766 38.259C71.7219 37.9278 72.4937 37.66 73.2839 37.4583C74.2068 37.2337 75.1551 37.1309 76.1047 37.1527C78.3732 37.3014 80.6026 37.8175 82.7057 38.6808C83.2884 38.913 83.8752 39.1728 84.466 39.4601C85.0558 39.7657 85.6334 40.0927 86.2324 40.4135L89.9699 42.458L102.426 45.783L102.347 45.8747L95.1683 28.9564L95.1377 28.8862L95.208 28.8556L102.289 25.9187L102.35 25.8943L102.387 25.9493L106.971 33.2838C108.535 35.7653 110.115 38.2957 111.778 40.8139C112.751 42.2646 113.611 43.7879 114.351 45.3704C114.716 46.1557 115.022 46.9667 115.268 47.7969C115.39 48.2103 115.485 48.6308 115.555 49.056C115.598 49.2669 115.616 49.4808 115.644 49.6947C115.671 49.9087 115.674 50.1256 115.644 50.3426C115.59 51.1948 115.36 52.0265 114.968 52.7851C114.576 53.5437 114.031 54.2126 113.367 54.7494C112.063 55.7945 110.496 56.4578 108.838 56.6656C108.433 56.7314 108.025 56.7742 107.616 56.7939C107.212 56.8337 106.806 56.8428 106.393 56.855C105.586 56.8856 104.789 56.8826 103.994 56.8856C102.405 56.8856 100.837 56.8428 99.2939 56.8C96.2073 56.7084 93.2093 56.5708 90.3183 56.4272C84.5363 56.1522 79.176 55.6999 74.3169 55.6387L61.4082 55.2537H61.3501V55.1956L64.4642 44.6064L65.2924 41.804C65.3871 41.4984 65.4574 41.2509 65.5094 41.0859C65.5613 40.9208 65.5797 40.8108 65.5797 40.8108Z" fill="#455A64"/>
<path d="M101.516 45.5445C101.613 45.5422 101.71 45.5545 101.803 45.5811C101.989 45.6147 102.252 45.6728 102.579 45.7523C103.433 45.9505 104.265 46.2362 105.061 46.6049C105.866 46.9733 106.579 47.5185 107.145 48.2002C107.242 48.3167 107.332 48.4392 107.414 48.5669C107.482 48.6636 107.543 48.7658 107.594 48.8725C107.648 48.955 107.69 49.0445 107.719 49.1384C107.692 49.1536 107.493 48.7839 107.059 48.2857C106.482 47.6404 105.779 47.1203 104.993 46.7577C104.204 46.3959 103.386 46.0985 102.549 45.8684C102.198 45.7807 101.853 45.6726 101.516 45.5445Z" fill="#455A64"/>
<path d="M23.7334 50.8712C23.7334 50.8712 20.5398 49.0559 19.9194 49.0192C19.0301 48.9642 15.1153 49.0987 14.6355 49.0681C14.548 49.0626 14.4607 49.0815 14.3834 49.1229C14.3061 49.1644 14.2419 49.2265 14.198 49.3025C14.1542 49.3784 14.1324 49.4651 14.1352 49.5527C14.138 49.6404 14.1652 49.7255 14.2138 49.7985C14.3941 50.1041 14.825 50.5992 16.0474 50.5686C16.797 50.5206 17.5485 50.6246 18.2569 50.8743C18.5625 50.9965 18.4739 51.3663 18.4739 51.3663C18.4739 51.3663 16.7167 51.461 16.2063 51.3418C15.5034 51.1768 13.1839 49.5999 13.1839 49.5999L12.2671 49.0101C12.2671 49.0101 11.879 49.4807 12.4841 50.3578C12.8998 50.9434 13.3552 51.4999 13.8471 52.0233C13.8471 52.0233 12.9914 52.5429 13.7309 53.3588C13.7309 53.3588 13.1961 54.3673 14.4124 54.9541C14.5867 55.3862 14.8587 55.7722 15.207 56.0818C15.5768 56.3874 16.5119 56.3201 17.0865 56.3568C17.9444 56.3637 18.8012 56.2963 19.6474 56.1551C20.4088 55.9928 21.1607 55.7887 21.8997 55.5439L24.7938 55.7089L25.0566 50.7795L23.7334 50.8712Z" fill="#AE7461"/>
<path d="M15.6807 53.0531C15.2858 52.9783 14.9085 52.8301 14.5683 52.6161C14.2027 52.449 13.8712 52.2159 13.5903 51.9285C13.9566 52.0818 14.3093 52.2658 14.6447 52.4786C15.005 52.6417 15.3515 52.8338 15.6807 53.0531Z" fill="#6F4439"/>
<path d="M15.2987 54.1473C14.9725 54.1233 14.6574 54.0182 14.3819 53.8417C14.0868 53.7153 13.8268 53.5192 13.624 53.2703C13.9135 53.3886 14.1917 53.5328 14.4553 53.7012C14.749 53.8247 15.0313 53.974 15.2987 54.1473Z" fill="#6F4439"/>
<path d="M15.3659 55.3329C15.0832 55.3368 14.8053 55.2594 14.5653 55.1098C14.302 55.0075 14.0738 54.8314 13.9082 54.6025C14.1632 54.7002 14.4079 54.8231 14.6386 54.9693C14.8925 55.066 15.1362 55.1878 15.3659 55.3329Z" fill="#6F4439"/>
<g opacity="0.3">
<path d="M47.3262 50.9903C48.9581 48.8511 49.7955 46.2076 50.1347 43.5458C50.4739 40.884 50.3944 38.3506 50.263 35.6765C49.7412 40.8583 48.7584 45.9832 47.3262 50.9903Z" fill="black"/>
</g>
<path d="M50.5471 32.5778C50.5746 32.8498 50.5471 31.9849 50.5471 32.2722C50.4707 35.9394 48.3192 51.4916 45.523 54.5202C43.3837 56.8336 23.3911 55.8495 23.3911 55.8495L23.6111 50.639C23.6111 50.639 24.149 50.4831 27.7399 50.0278C31.3307 49.5724 38.6622 47.7083 38.6622 47.7083L41.107 31.4226" fill="#F6851F"/>
<path d="M41.107 31.4226C41.107 31.4226 41.107 31.5204 41.0734 31.7282L40.9542 32.5839C40.8442 33.3387 40.6822 34.442 40.4744 35.8539C40.0526 38.6868 39.4476 42.7605 38.7049 47.7296V47.7724H38.6652C36.526 48.3195 34.1789 48.8879 31.6608 49.4196C30.4017 49.6825 29.0998 49.9392 27.746 50.1195C26.3921 50.2998 24.9955 50.4556 23.6264 50.7307L23.6814 50.6573C23.6111 52.3198 23.5378 54.077 23.4645 55.8679L23.388 55.7854C24.7999 55.8495 26.2974 55.8984 27.8163 55.9351C30.6767 56.0023 33.4699 56.0176 36.1684 55.9351C37.5161 55.8954 38.8394 55.8343 40.1413 55.7304C41.4021 55.6473 42.6547 55.4675 43.888 55.1925C44.1843 55.1197 44.4753 55.0268 44.759 54.9144C45.0368 54.8166 45.2887 54.6566 45.4955 54.4468C45.8712 53.9931 46.18 53.4877 46.4123 52.9463C46.8738 51.9068 47.2599 50.8355 47.5675 49.7405C48.1787 47.6257 48.6096 45.6149 48.9671 43.7751C49.6731 40.0926 50.0734 37.0824 50.3057 34.9982C50.4218 33.9561 50.489 33.1432 50.5165 32.5931C50.5165 32.4555 50.5165 32.3333 50.5349 32.2294C50.5349 32.2294 50.5349 32.2294 50.5502 32.2294V32.4831C50.5502 32.5533 50.5502 32.6053 50.5318 32.645C50.5291 32.6258 50.5291 32.6062 50.5318 32.587C50.5318 32.587 50.5318 32.6084 50.5318 32.6389C50.5318 32.6084 50.5318 32.5533 50.5318 32.4831V32.2416C50.5318 32.2416 50.5318 32.2416 50.5532 32.2416C50.5532 32.3476 50.5532 32.4698 50.5532 32.6084C50.5349 33.1584 50.4768 33.9713 50.3729 35.0165C50.159 37.1038 49.7617 40.1201 49.0802 43.8087C48.7288 45.6424 48.304 47.6655 47.6958 49.7894C47.3898 50.8914 47.0048 51.97 46.5437 53.0166C46.3037 53.5672 45.9879 54.0815 45.6055 54.5446C45.3831 54.7688 45.1138 54.941 44.817 55.0489C44.5279 55.1651 44.2307 55.2601 43.9277 55.3331C42.6846 55.6131 41.4218 55.797 40.1504 55.8832C38.8547 55.9901 37.5284 56.0543 36.1776 56.094C33.476 56.1704 30.6767 56.1552 27.8163 56.094C26.2882 56.0574 24.7999 56.0085 23.388 55.9443H23.3086V55.8679C23.385 54.074 23.4583 52.3198 23.5317 50.6573V50.5993H23.5867C24.2988 50.4465 24.9894 50.3609 25.6831 50.26L27.7307 49.9942C29.0753 49.8169 30.3772 49.5602 31.6333 49.3005C34.1514 48.7748 36.4954 48.2125 38.6346 47.6716L38.5888 47.7235C39.3528 42.7575 39.9793 38.6868 40.4224 35.8539C40.6425 34.445 40.8167 33.3449 40.9358 32.59C40.9939 32.2202 41.0398 31.933 41.0734 31.7374C41.107 31.5418 41.107 31.4226 41.107 31.4226Z" fill="#263238"/>
</svg>
