<svg width="304" height="168" viewBox="0 0 304 168" fill="none" xmlns="http://www.w3.org/2000/svg">
<path d="M246.013 152.954L245.302 165.537C245.416 165.784 245.58 166.004 245.784 166.184C245.988 166.363 246.227 166.499 246.487 166.58C247.248 166.716 263.854 166.58 263.854 166.58C263.97 165.906 263.924 165.213 263.719 164.56C263.596 164.131 263.365 163.74 263.049 163.424C262.734 163.108 262.343 162.878 261.913 162.755C261.078 162.546 255.312 159.905 254.821 159.697C254.33 159.488 254.059 156.153 254.059 156.153L246.013 152.954Z" fill="white" stroke="#263238" stroke-width="1.10919" stroke-miterlimit="10"/>
<path d="M263.854 166.575C263.922 166.128 263.922 165.673 263.854 165.226L245.324 164.73L245.279 165.531C245.393 165.778 245.557 165.998 245.761 166.178C245.965 166.358 246.205 166.493 246.464 166.575C247.248 166.71 263.854 166.575 263.854 166.575Z" fill="white" stroke="#263238" stroke-width="1.10919" stroke-miterlimit="10"/>
<path d="M249.46 89.205C249.46 89.205 250.888 120.081 250.73 121.029L245.347 153.484C245.347 153.484 249.934 156.018 252.152 156.492C253.878 156.815 255.623 157.026 257.377 157.124C257.377 157.124 264.661 127.518 264.977 125.78C265.293 124.042 261.332 86.5417 261.332 86.5417L249.46 89.205Z" fill="#263238" stroke="#263238" stroke-width="1.10919" stroke-miterlimit="10"/>
<path d="M249.68 149.619C249.68 149.619 243.22 158.512 243.981 159.414C244.743 160.317 250.374 165.666 251.768 166.293C253.162 166.919 265.874 166.293 265.874 166.293C266.004 165.93 266.074 165.549 266.083 165.164C266.083 164.6 266.015 162.456 265.254 161.829C264.492 161.203 258.72 158.495 258.483 158.077C258.246 157.66 257.997 154.257 257.997 154.257L249.68 149.619Z" fill="white" stroke="#263238" stroke-width="1.10919" stroke-miterlimit="10"/>
<path d="M265.869 166.293C265.998 165.93 266.068 165.549 266.077 165.164V164.905L257.253 165.238C257.253 165.238 254.544 165.65 253.088 164.47C251.864 163.483 246.509 158.602 244.794 157.033C244.145 158.218 243.767 159.138 243.981 159.398C244.749 160.3 250.374 165.65 251.768 166.276C253.162 166.902 265.869 166.293 265.869 166.293Z" fill="white" stroke="#263238" stroke-width="1.10919" stroke-miterlimit="10"/>
<path d="M244.884 74.7998C244.884 74.7998 245.838 83.9801 246.628 85.4076C247.418 86.8352 248.687 89.0471 248.687 89.0471L260.683 122.772L248.337 150.003C248.337 150.003 257.365 155.86 259.261 156.492C260.074 156.813 260.926 157.025 261.795 157.124C261.795 157.124 276.358 123.088 276.358 120.713C276.358 118.337 266.201 84.3017 266.201 84.3017L266.89 72.5823L244.884 74.7998Z" fill="#263238" stroke="#263238" stroke-width="1.10919" stroke-miterlimit="10"/>
<path d="M256.891 77.6491L263.549 80.3124L258.031 75.9338L261.834 77.6491" stroke="#696969" stroke-width="1.10919" stroke-linecap="round" stroke-linejoin="round"/>
<path d="M253.066 100.783L260.7 122.772L249.618 148.259" stroke="#696969" stroke-width="1.10919" stroke-miterlimit="10"/>
<path d="M251.52 96.3315L252.304 98.5998" stroke="#696969" stroke-width="1.10919" stroke-miterlimit="10"/>
<path d="M275.523 57.7651C275.523 57.7651 279.269 54.2442 280.037 53.8154C280.804 53.3866 283.857 52.4668 284.077 51.4173C284.297 50.3678 284.004 45.2106 283.704 45.4307C283.405 45.6507 279.439 51.2706 279.439 51.2706L274.27 55.3163L275.523 57.7651Z" fill="white" stroke="#263238" stroke-width="1.10919" stroke-miterlimit="10"/>
<path d="M280.844 49.6062L280.392 53.0481" stroke="#263238" stroke-width="1.10919" stroke-miterlimit="10"/>
<path d="M282.04 47.8062L282.192 52.0042" stroke="#263238" stroke-width="1.10919" stroke-miterlimit="10"/>
<path d="M283.253 46.3843C283.253 46.3843 283.18 50.8023 283.253 51.2537V46.3843Z" fill="white"/>
<path d="M283.253 46.3843C283.253 46.3843 283.18 50.8023 283.253 51.2537" stroke="#263238" stroke-width="1.10919" stroke-miterlimit="10"/>
<path d="M284.286 50.2042C284.286 50.2042 285.561 48.63 285.262 47.5861C285.179 47.2838 285.028 47.0048 284.819 46.7709C284.611 46.5369 284.351 46.3544 284.06 46.2375L284.286 50.2042Z" fill="white" stroke="#263238" stroke-width="1.10919" stroke-miterlimit="10"/>
<path d="M275.077 53.7251C275.303 53.8718 277.097 56.6423 277.097 56.6423L274.84 59.6384C274.84 59.6384 275.969 61.7374 275.291 62.2622C274.614 62.7869 269 65.7041 269 65.7041L267.127 58.1432C267.127 58.1432 271.319 55.5194 271.545 55.5984C271.767 55.7139 271.969 55.8644 272.143 56.0442L275.077 53.7251Z" fill="#F6851F" stroke="#263238" stroke-width="1.10919" stroke-miterlimit="10"/>
<path d="M277.464 52.715L278.243 53.251L286.492 41.4469L285.713 40.9053L277.464 52.715Z" fill="#263238" stroke="#263238" stroke-width="1.10919" stroke-miterlimit="10"/>
<path d="M253.991 30.9802C253.528 31.2059 246.989 39.128 244.574 42.2257C242.159 45.3234 242.396 50.3791 242.509 53.1326C242.621 55.8862 241.38 76.3233 241.38 76.3233C241.38 76.3233 251.367 75.522 257.337 74.9465C263.307 74.371 271.799 73.818 271.799 73.818C271.799 73.818 269.389 63.2609 268.244 58.5494C267.099 53.838 265.259 47.0726 263.995 43.879C263.123 41.7331 262.085 39.6579 260.892 37.6722L253.991 30.9802Z" fill="#F6851F" stroke="#263238" stroke-width="1.10919" stroke-miterlimit="10"/>
<path d="M266.156 31.3243L262.483 35.4546L256.841 28.3394L260.17 24.4348C260.17 24.4348 262.122 22.3697 263.273 22.5954C264.424 22.8211 266.156 31.3243 266.156 31.3243Z" fill="white" stroke="#263238" stroke-width="1.10919" stroke-miterlimit="10"/>
<path d="M262.257 27.0757L264.497 33.3219L266.156 31.3245L262.257 27.0757Z" fill="#263238" stroke="#263238" stroke-width="1.10919" stroke-miterlimit="10"/>
<path d="M261.812 24.3221C261.812 24.3221 260.435 26.5001 259.289 26.043C258.144 25.586 255.041 22.2513 253.647 18.1436C252.253 14.0358 257.32 13.3192 258.121 11.7168C258.923 10.1143 259.617 9.87732 260.762 4.25176C261.908 -1.37381 274.767 0.809839 276.719 3.79472C278.671 6.77959 278.327 12.7493 283.721 10.797C289.116 8.84474 294.973 6.77959 296.236 11.5983C297.5 16.417 293.364 22.2739 294.86 24.3447C296.355 26.4155 301.174 24.9089 300.829 26.8669C300.485 28.8248 297.957 30.0831 298.759 30.5401C299.56 30.9972 304.04 28.7063 302.776 30.7715C301.512 32.8366 298.877 35.0202 298.533 34.1005C298.189 33.1808 298.533 32.0354 297.269 32.7238C296.005 33.4121 292.191 36.1657 290.611 34.6761C289.031 33.1864 291.068 27.7866 288.427 27.211C285.787 26.6355 279.36 28.475 277.176 28.5878C274.992 28.7007 274.767 28.0236 270.749 26.0656C266.732 24.1077 261.812 24.3221 261.812 24.3221Z" fill="#263238" stroke="#263238" stroke-width="1.10919" stroke-miterlimit="10"/>
<path d="M262.714 21.0889C262.714 21.0889 269.485 21.4331 273.847 20.2821C275.842 19.8168 277.8 19.2038 279.704 18.4482C279.704 18.4482 279.817 22.9227 278.671 24.1867C277.526 25.4506 276.031 26.596 276.031 27.5157C276.031 28.4354 277.159 29.9251 276.488 30.7319C275.816 31.5388 274.191 31.5332 273.734 31.5332C273.277 31.5332 269.604 34.9807 268.571 34.9807C267.539 34.9807 262.365 28.0913 262.257 27.0812C262.195 25.8576 262.195 24.6316 262.257 23.408" fill="white"/>
<path d="M262.714 21.0889C262.714 21.0889 269.485 21.4331 273.847 20.2821C275.842 19.8168 277.8 19.2038 279.704 18.4482C279.704 18.4482 279.817 22.9227 278.671 24.1867C277.526 25.4506 276.031 26.596 276.031 27.5157C276.031 28.4354 277.159 29.9251 276.488 30.7319C275.816 31.5388 274.191 31.5332 273.734 31.5332C273.277 31.5332 269.604 34.9807 268.571 34.9807C267.539 34.9807 262.365 28.0913 262.257 27.0812C262.195 25.8576 262.195 24.6316 262.257 23.408" stroke="#263238" stroke-width="1.10919" stroke-miterlimit="10"/>
<path d="M274.789 25.1233L273.525 26.6129C273.127 26.5525 272.754 26.3805 272.45 26.1169C272.145 25.8532 271.921 25.5088 271.804 25.1233" stroke="#263238" stroke-width="1.10919" stroke-miterlimit="10"/>
<path d="M270.518 28.5652C270.518 28.5652 270.405 30.4046 271.9 30.636" stroke="#263238" stroke-width="1.10919" stroke-miterlimit="10"/>
<path d="M273.39 23.1711C273.39 23.1711 275.455 22.4828 276.375 24.2037" stroke="#263238" stroke-width="1.10919" stroke-miterlimit="10"/>
<path d="M264.435 22.8268C264.435 22.8268 262.743 17.7486 261.106 19.6106C259.47 21.4726 260.418 24.6888 261.671 25.3546C262.041 25.5532 262.455 25.6571 262.875 25.6571C263.296 25.6571 263.709 25.5532 264.08 25.3546" fill="white"/>
<path d="M264.435 22.8268C264.435 22.8268 262.743 17.7486 261.106 19.6106C259.47 21.4726 260.418 24.6888 261.671 25.3546C262.041 25.5532 262.455 25.6571 262.875 25.6571C263.296 25.6571 263.709 25.5532 264.08 25.3546" stroke="#263238" stroke-width="1.10919" stroke-miterlimit="10"/>
<path d="M257.298 26.5002C257.298 26.5002 264.87 33.9652 264.633 34.9978C264.396 36.0304 263.138 36.6905 263.138 36.6905C263.138 36.6905 263.482 38.7557 262.912 39.2127C262.54 39.4955 262.107 39.6885 261.648 39.777C261.648 39.777 254.476 32.374 253.529 31.206C252.581 30.038 253.303 29.4851 253.873 29.2537C254.283 29.1026 254.706 28.9874 255.137 28.9095C255.137 28.9095 255.944 26.1673 257.298 26.5002Z" fill="#F6851F" stroke="#263238" stroke-width="1.10919" stroke-miterlimit="10"/>
<path d="M246.334 43.1792C245.893 45.8487 245.655 48.548 245.623 51.2536C245.623 55.288 247.282 75.1157 248.117 76.1878C248.952 77.2598 252.27 78.2021 253.698 77.2542C255.125 76.3063 267.471 68.3503 267.59 67.0413C267.708 65.7322 265.688 60.9869 264.859 60.6314C264.029 60.2759 263.312 60.3944 262.128 61.4609C260.775 62.511 259.35 63.4633 257.862 64.3103C257.862 64.3103 257.032 49.1151 256.084 45.4306C255.137 41.746 254.657 41.0407 254.064 40.8037" fill="#F6851F"/>
<path d="M246.334 43.1792C245.893 45.8487 245.655 48.548 245.623 51.2536C245.623 55.288 247.282 75.1157 248.117 76.1878C248.952 77.2598 252.27 78.2021 253.698 77.2542C255.125 76.3063 267.471 68.3503 267.59 67.0413C267.708 65.7322 265.688 60.9869 264.859 60.6314C264.029 60.2759 263.313 60.3944 262.128 61.4609C260.775 62.511 259.35 63.4633 257.862 64.3103C257.862 64.3103 257.032 49.1151 256.084 45.4306C255.137 41.746 254.657 41.0407 254.064 40.8037" stroke="#263238" stroke-width="1.10919" stroke-miterlimit="10"/>
<path d="M268.227 58.5269C268.227 58.5269 271.613 50.4186 271.861 49.8261C272.109 49.2337 272.933 48.2801 273.644 48.1616C274.355 48.0431 279.817 46.8582 280.291 46.7397C280.765 46.6212 281.126 47.2137 279.817 48.0431C278.508 48.8726 275.303 49.2337 275.303 49.2337L274.823 52.7941C274.823 52.7941 278.034 50.3001 278.034 51.6092C278.034 52.9182 275.658 53.742 275.303 53.8662C274.947 53.9903 273.999 55.5081 273.661 55.7621C273.116 56.0113 272.549 56.2097 271.968 56.3545C271.968 56.3545 271.731 57.7821 271.257 58.256C270.783 58.73 268.645 60.2761 268.645 60.2761L268.227 58.5269Z" fill="white" stroke="#263238" stroke-width="1.10919" stroke-miterlimit="10"/>
<path d="M271.861 49.826C271.861 49.826 273.238 48.1333 273.441 48.1333C274.412 48.8195 275.341 49.5638 276.222 50.3621C276.392 50.5257 275.331 52.2523 275.167 52.5288C275.004 52.8053 274.942 53.031 274.496 52.8674C274.194 52.7426 273.913 52.5733 273.661 52.3652" fill="white"/>
<path d="M271.861 49.826C271.861 49.826 273.238 48.1333 273.441 48.1333C274.412 48.8195 275.341 49.5638 276.222 50.3621C276.392 50.5257 275.331 52.2523 275.167 52.5288C275.004 52.8053 274.942 53.031 274.496 52.8674C274.194 52.7426 273.913 52.5733 273.661 52.3652" stroke="#263238" stroke-width="1.10919" stroke-miterlimit="10"/>
<path d="M271.494 51.2086C271.494 51.2086 272.995 49.5159 273.215 49.5159C273.435 49.5159 275.331 51.0168 275.331 51.2932C275.331 51.5697 274.998 53.2455 274.722 53.302C274.33 53.304 273.938 53.2662 273.554 53.1891" fill="white"/>
<path d="M271.494 51.2086C271.494 51.2086 272.995 49.5159 273.215 49.5159C273.435 49.5159 275.331 51.0168 275.331 51.2932C275.331 51.5697 274.998 53.2455 274.722 53.302C274.33 53.304 273.938 53.2662 273.554 53.1891" stroke="#263238" stroke-width="1.10919" stroke-miterlimit="10"/>
<path d="M271.438 52.8224C271.838 52.3842 272.287 51.9924 272.775 51.6544C273.215 51.4287 274.219 52.3766 274.829 52.7829C275.438 53.1891 276.166 53.4205 275.833 53.8098C275.5 54.1991 274.219 53.6462 273.943 53.6462C273.634 53.5951 273.334 53.5001 273.051 53.3641L272.329 55.5364" fill="white"/>
<path d="M271.438 52.8224C271.838 52.3842 272.287 51.9924 272.775 51.6544C273.215 51.4287 274.219 52.3766 274.829 52.7829C275.438 53.1891 276.166 53.4205 275.833 53.8098C275.5 54.1991 274.219 53.6462 273.943 53.6462C273.634 53.5951 273.334 53.5001 273.051 53.3641L272.329 55.5364" stroke="#263238" stroke-width="1.10919" stroke-miterlimit="10"/>
<path d="M264.266 60.987L268.419 57.6636L270.321 61.224L266.754 64.9029C266.754 64.9029 264.266 64.4289 264.266 60.987Z" fill="#F6851F" stroke="#263238" stroke-width="1.10919" stroke-miterlimit="10"/>
<path d="M19.1846 158.794C17.4823 158.259 15.8902 157.422 14.4844 156.322C12.6055 154.703 6.66959 150.302 4.95428 149.173C3.23896 148.045 3.44773 153.259 4.02891 155.944C4.49894 158.264 5.48432 160.449 6.91222 162.337C7.99558 163.624 15.0656 166.287 15.8556 166.468C16.6455 166.648 19.8053 166.705 20.4486 166.4C21.0918 166.095 19.7489 161.023 19.1846 158.794Z" fill="white" stroke="#263238" stroke-width="1.10919" stroke-miterlimit="10"/>
<path d="M7.27333 160.142C5.62008 158.021 4.45208 151.515 4.4013 149.021C3.2728 149.286 3.52107 153.591 4.02889 155.961C4.49892 158.281 5.4843 160.466 6.91221 162.354C7.99557 163.641 15.0656 166.304 15.8556 166.484C16.9234 166.625 18.0019 166.667 19.0774 166.609C15.2349 165.26 8.93786 162.275 7.27333 160.142Z" fill="white" stroke="#263238" stroke-width="1.10919" stroke-miterlimit="10"/>
<path d="M96.3174 120.131C96.3174 120.131 94.3651 123.748 93.3776 125.847C92.3902 127.946 91.5438 129.459 91.5438 129.459C91.5438 129.459 90.6015 127.619 89.8849 127.963C89.385 128.188 88.8631 128.36 88.3276 128.477C88.3276 128.477 87.4361 125.283 86.0706 123.607C84.7051 121.931 83.5484 122.738 82.2845 121.621C80.4958 120.041 79.7736 119.567 78.5774 118.608C77.1047 117.429 74.8533 122.422 74.8138 124.307C74.7743 126.192 84.4286 138.035 86.838 141.274C89.2473 144.513 91.6793 146.55 93.2479 144.58C94.8165 142.611 95.5613 140.738 96.7462 134.424C97.9311 128.11 100.826 118.456 96.3174 120.131Z" fill="#F6851F" stroke="#263238" stroke-width="1.10919" stroke-miterlimit="10"/>
<path d="M78.5662 118.608L74.182 115.318C73.708 114.387 72.7544 112.452 72.2353 111.104C71.5244 109.27 71.214 108.102 69.5834 106.827C67.9527 105.551 64.0932 104.005 63.6023 103.481C63.1114 102.956 62.9139 104.959 63.8054 105.89C64.2029 106.372 64.7045 106.758 65.2725 107.018C65.2725 107.018 58.9134 106.228 58.9021 106.725C58.8908 107.222 64.3076 114.06 66.2656 115.646C67.0837 116.323 68.9119 116.96 69.9501 117.705C70.4624 118.073 70.9351 118.493 71.3607 118.958C71.1181 119.093 71.0391 119.088 71.0109 119.071C71.2366 119.387 74.6052 124.194 75.6377 123.985C76.6703 123.777 80.1235 123.466 78.5662 118.608Z" fill="white" stroke="#263238" stroke-width="1.10919" stroke-miterlimit="10"/>
<path d="M59.0813 99.1402L58.3958 99.6072L67.204 112.539L67.8895 112.072L59.0813 99.1402Z" fill="#263238" stroke="#263238" stroke-width="1.10919" stroke-miterlimit="10"/>
<path d="M60.8771 103.272C60.8771 103.272 57.4916 106.928 57.8979 107.267C58.3041 107.605 59.5906 108.875 59.9404 108.717C60.2903 108.559 62.0733 105.613 62.1636 105.28C62.2539 104.948 60.8771 103.272 60.8771 103.272Z" fill="white" stroke="#263238" stroke-width="1.10919" stroke-miterlimit="10"/>
<path d="M62.5696 105.726C62.5696 105.726 60.008 109.484 60.2506 109.823C60.4932 110.161 63.732 113.947 64.1383 114.201C64.5445 114.455 66.8297 112.266 66.8297 112.266L62.5696 105.726Z" fill="white" stroke="#263238" stroke-width="1.10919" stroke-miterlimit="10"/>
<path d="M63.9352 107.882C63.9352 107.882 61.5427 111.645 61.791 111.651" stroke="#263238" stroke-width="1.10919" stroke-miterlimit="10"/>
<path d="M65.5378 110.483L63.3315 113.09" stroke="#263238" stroke-width="1.10919" stroke-miterlimit="10"/>
<path d="M65.2725 107.001L67.3263 107.949C67.3263 107.949 66.8129 112.994 69.5833 114.72" fill="white"/>
<path d="M65.2725 107.001L67.3263 107.949C67.3263 107.949 66.8129 112.994 69.5833 114.72" stroke="#263238" stroke-width="1.10919" stroke-miterlimit="10"/>
<path d="M94.4723 146.493C94.4723 146.493 74.5092 122.654 72.3425 120.092C70.1758 117.53 65.2894 116.469 62.423 117.361C59.5566 118.252 56.0695 126.265 55.3755 129.577C54.6815 132.889 49.0108 147.187 48.0403 149.066C47.0698 150.945 45.5914 152.976 45.5745 153.772C45.5576 154.568 45.5463 155.194 45.5463 155.194L44.5532 157.389C44.5532 157.389 49.1349 157.953 51.0421 157.677C52.9492 157.4 55.6802 155.233 56.1767 154.133C56.6733 153.033 58.0726 150.324 59.7597 149.139C62.1634 147.447 66.3445 136.122 66.3445 136.122L74.244 153.383C74.244 153.383 89.8737 155.589 93.3664 155.183C96.8591 154.776 94.4723 146.493 94.4723 146.493Z" fill="#263238" stroke="#263238" stroke-width="1.10919" stroke-miterlimit="10"/>
<path d="M93.7164 144.58C93.7164 144.58 91.2788 147.695 91.2676 148.333V148.965L77.9287 150.302C77.9287 150.302 64.1554 150.031 62.0902 150.465C60.0251 150.9 30.0973 158.867 28.1902 159.149C26.283 159.431 25.3689 157.823 24.579 157.806C23.789 157.789 23.0047 157.141 21.8988 157.118C20.7928 157.095 19.811 158.664 19.1734 158.811C18.7629 158.962 18.3341 159.059 17.8982 159.098C17.4243 159.098 17.7628 157.97 17.4243 159.098C17.0857 160.227 16.2337 163.347 16.9954 164.786C17.4866 165.682 18.1756 166.454 19.0098 167.043C19.0098 167.043 44.6662 167.071 48.915 167.156C53.1638 167.241 66.356 166.078 67.9415 165.948C69.527 165.819 92.4581 167.218 96.0975 167.291C99.7369 167.365 111.778 167.291 113.86 166.056C115.942 164.82 118.611 157.914 118.188 155.216C117.765 152.519 95.7477 144.8 95.7477 144.8L93.7164 144.58Z" fill="#263238" stroke="#263238" stroke-width="1.10919" stroke-miterlimit="10"/>
<path d="M92.8078 142.346C92.5826 142.896 92.5161 143.498 92.616 144.084C92.7514 145.212 117.539 157.062 118.34 156.622C119.141 156.181 119.706 151.577 119.706 151.577L92.836 140.918L92.8078 142.346Z" fill="#F6851F" stroke="#263238" stroke-width="1.10919" stroke-miterlimit="10"/>
<path d="M103.37 104.389C103.37 104.389 98.817 110.635 97.1355 115.51C95.4541 120.385 92.7513 137.115 91.7639 139.158C90.7765 141.2 90.7482 142.464 92.1645 142.809C93.5808 143.153 107.089 149.117 111.642 150.945C116.196 152.773 120.281 154.443 120.969 151.605C121.658 148.767 121.697 147.029 121.618 142.752C121.539 138.475 121.466 118.36 121.105 112.497C120.744 106.635 117.606 97.0649 113.487 97.3019C109.368 97.5389 103.37 104.389 103.37 104.389Z" fill="#F6851F" stroke="#263238" stroke-width="1.10919" stroke-miterlimit="10"/>
<path d="M111.998 82.4057C111.513 78.9638 109.865 76.1538 107.05 74.3934C107.495 73.8961 108.098 73.5681 108.757 73.4653C109.417 73.3624 110.091 73.491 110.666 73.8291C110.666 73.8291 111.044 72.4862 109.95 72.0179C109.628 71.8931 109.28 71.8515 108.938 71.8969C108.595 71.9422 108.27 72.0731 107.992 72.2774C107.992 72.2774 108.178 70.4775 109.397 69.6029C110.616 68.7283 112.991 69.9753 112.991 69.9753C112.991 69.9753 112.483 65.309 109.465 66.1497C106.446 66.9904 106.846 69.5352 106.846 69.5352C106.846 69.5352 106.282 67.4249 104.488 67.2387C102.694 67.0525 101.311 68.5252 101.311 68.5252C101.311 68.5252 102.84 67.2048 104.448 69.49C104.873 70.0377 105.154 70.6827 105.266 71.3664C105.379 72.0502 105.319 72.7512 105.092 73.4059C104.614 73.2191 104.126 73.059 103.63 72.9263C99.3871 71.7978 94.5458 73.0166 92.4806 75.0818C90.8295 75.4888 89.2808 76.2343 87.9328 77.271C85.6758 79.1838 87.7861 81.8245 88.0964 82.1856L88.2657 83.1336C88.4793 85.0559 88.7938 86.9658 89.208 88.8551C89.6312 90.2149 90.3704 90.6776 90.3365 91.428C90.3026 92.1785 89.0669 94.8587 89.9472 95.7728C90.8274 96.6868 91.5891 96.4104 91.5891 96.4104C91.5891 96.4104 95.048 103.684 96.5602 103.108C98.0724 102.532 100.674 99.8861 100.674 99.8861L104.087 102.058L110.379 95.1239L109.25 92.0995C109.25 92.0995 112.658 87.0721 111.998 82.4057Z" fill="white" stroke="#263238" stroke-width="1.10919" stroke-miterlimit="10"/>
<path d="M90.9006 82.0785C92.7287 81.2096 97.4064 80.1375 96.6051 81.5425C95.8039 82.9475 95.6233 85.4076 96.6503 85.6841C97.6772 85.9606 99.8552 87.4276 100.6 87.9411C101.345 88.4546 102.293 88.1047 102.293 87.3261C102.293 86.5474 103.117 85.0126 104.781 85.8195C106.446 86.6264 106.547 88.1837 106.124 89.9893C105.899 91.0316 105.278 91.9459 104.392 92.5397C104.392 92.5397 106.378 94.1365 109.436 92.6074L109.239 92.0883C109.239 92.0883 112.624 87.0496 111.981 82.3832C111.496 78.9413 109.848 76.1314 107.032 74.3709C107.477 73.8736 108.081 73.5457 108.74 73.4428C109.399 73.34 110.074 73.4685 110.649 73.8066C110.649 73.8066 111.027 72.4637 109.933 71.9954C109.611 71.8706 109.263 71.829 108.92 71.8744C108.578 71.9198 108.253 72.0506 107.975 72.255C107.975 72.255 108.161 70.455 109.38 69.5804C110.599 68.7058 112.974 69.9528 112.974 69.9528C112.974 69.9528 112.466 65.2865 109.447 66.1272C106.429 66.968 106.829 69.5127 106.829 69.5127C106.829 69.5127 106.265 67.4024 104.471 67.2162C102.676 67.03 101.294 68.5027 101.294 68.5027C101.294 68.5027 102.823 67.1824 104.431 69.4676C104.856 70.0152 105.137 70.6602 105.249 71.344C105.362 72.0278 105.302 72.7288 105.075 73.3835C104.597 73.1966 104.109 73.0365 103.613 72.9038C99.37 71.7753 94.5287 72.9941 92.4635 75.0593C90.8124 75.4664 89.2638 76.2119 87.9157 77.2486C85.6587 79.1614 87.769 81.8021 88.0793 82.1632C88.0963 82.197 89.0724 82.9475 90.9006 82.0785Z" fill="#263238" stroke="#263238" stroke-width="1.10919" stroke-miterlimit="10"/>
<path d="M92.3227 88.8325L92.2888 90.5253C92.8481 90.6736 93.4346 90.6866 93.9999 90.5629C94.5651 90.4393 95.0927 90.1826 95.5389 89.8143" stroke="#263238" stroke-width="1.10919" stroke-miterlimit="10"/>
<path d="M90.4099 87.2471C90.8519 86.7009 91.474 86.3298 92.1646 86.2006C92.8553 86.0714 93.5695 86.1923 94.1791 86.5418" stroke="#263238" stroke-width="1.10919" stroke-miterlimit="10"/>
<path d="M93.7219 96.6248C93.7219 96.6248 95.9225 96.5402 97.2654 93.9785" stroke="#263238" stroke-width="1.10919" stroke-miterlimit="10"/>
<path d="M97.6774 99.5477C96.3683 100.168 94.7207 98.453 93.9477 98.312C93.3214 98.1935 93.4286 99.4405 93.4963 99.9257C94.5571 101.697 95.8154 103.413 96.5828 103.119C98.0949 102.555 100.696 99.8975 100.696 99.8975L100.815 99.9765C101.163 99.394 101.382 98.7437 101.458 98.0694C101.475 97.0368 98.9808 98.9552 97.6774 99.5477Z" fill="#263238" stroke="#263238" stroke-width="1.10919" stroke-miterlimit="10"/>
<path d="M117.042 93.5724C117.042 93.5724 112.32 92.0546 109.572 95.0112C106.824 97.9679 99.3645 106.686 100.95 106.719C102.536 106.753 105.312 102.369 108.505 101.004C111.699 99.6381 113.584 99.6832 114.661 101.918C115.739 104.152 119.407 118.478 120.868 115.973C122.329 113.468 124.97 108.457 123.638 103.678C122.307 98.8989 118.605 94.5542 117.042 93.5724Z" fill="white" stroke="#263238" stroke-width="1.10919" stroke-miterlimit="10"/>
<path d="M104.99 110.596C104.99 110.596 101.04 117.485 100.662 121.277C100.284 125.069 99.0147 140.885 99.0147 140.885C99.0147 140.885 97.4517 139.903 96.6392 140.834C95.8267 141.765 95.3132 143.819 95.3132 143.819C95.3132 143.819 93.1127 143.142 92.6161 144.084C92.3321 144.631 92.0037 145.154 91.6343 145.647L77.9287 150.302C77.9287 150.302 99.5959 151.521 101.339 151.397C102.404 151.311 103.413 150.886 104.217 150.183C104.217 150.183 105.616 151.312 108.009 150.415C110.401 149.518 111.219 148.423 111.885 146.533C112.551 144.642 115.7 121.593 115.7 121.593" fill="#F6851F"/>
<path d="M104.99 110.596C104.99 110.596 101.04 117.485 100.662 121.277C100.284 125.069 99.0147 140.885 99.0147 140.885C99.0147 140.885 97.4517 139.903 96.6392 140.834C95.8267 141.765 95.3132 143.819 95.3132 143.819C95.3132 143.819 93.1127 143.142 92.6161 144.084C92.3321 144.631 92.0037 145.154 91.6343 145.647L77.9287 150.302C77.9287 150.302 99.5959 151.521 101.339 151.397C102.404 151.311 103.413 150.886 104.217 150.183C104.217 150.183 105.616 151.312 108.009 150.415C110.401 149.518 111.219 148.423 111.885 146.533C112.551 144.642 115.7 121.593 115.7 121.593" stroke="#263238" stroke-width="1.10919" stroke-miterlimit="10"/>
<path d="M77.9287 150.302C77.9287 150.302 84.5135 150.674 90.7146 150.985C89.8174 149.523 90.235 147.413 90.7146 145.974L77.9287 150.302Z" fill="white" stroke="#263238" stroke-width="1.10919" stroke-miterlimit="10"/>
<path d="M0 166.609H293.573" stroke="#263238" stroke-width="1.10919" stroke-miterlimit="10"/>
</svg>
