<svg width="280" height="170" viewBox="0 0 280 170" fill="none" xmlns="http://www.w3.org/2000/svg">
<path d="M241.139 142.212C241.139 142.212 235.934 145.752 232.413 147.929C228.892 150.105 224.165 150.778 224.087 151.469C224.008 152.16 218.722 169.147 218.722 169.147H269.802C269.802 169.147 265.961 160.508 265.078 157.325C264.196 154.143 264.199 152.318 263.476 151.972C262.754 151.627 253.228 146.443 248.746 143.421L241.139 142.212Z" fill="white" stroke="#263238" stroke-width="0.796667" stroke-miterlimit="10"/>
<path d="M226.009 150.542L230.859 169.147H256.359L263.946 152.591C263.872 152.322 263.704 152.096 263.477 151.96C262.757 151.615 253.228 146.431 248.746 143.409L241.139 142.197C241.139 142.197 235.934 145.752 232.413 147.929C230.286 149.217 227.723 149.984 226.009 150.542Z" fill="#084A5B" stroke="#263238" stroke-width="0.796667" stroke-linecap="round" stroke-linejoin="round"/>
<path d="M241.139 142.212C241.139 142.212 239.259 143.491 236.994 144.982C236.872 145.583 236.778 146.19 236.713 146.801C235.988 153.342 238.714 159.071 242.799 159.599C246.885 160.126 250.786 155.252 251.511 148.711C251.64 147.552 251.661 146.382 251.573 145.219C250.527 144.576 249.561 143.967 248.763 143.424L241.139 142.212Z" fill="white" stroke="#263238" stroke-width="0.796667" stroke-miterlimit="10"/>
<path d="M240.903 134.786L238.98 145.234C238.98 145.234 239.86 156.807 243.145 156.895C246.43 156.983 250.106 145.504 250.106 145.504L250.266 136.35L240.903 134.786Z" fill="#BABABA" stroke="#263238" stroke-width="0.796667" stroke-linecap="round" stroke-linejoin="round"/>
<path d="M250.263 136.48L248.175 137.274L243.699 139.469L250.131 144.167L250.263 136.48Z" fill="#263238" stroke="#263238" stroke-width="0.796667" stroke-miterlimit="10"/>
<path d="M267.791 118.418C268.03 117.1 267.932 115.736 267.509 114.473C267.087 113.21 266.354 112.094 265.39 111.245C265.089 109.59 264.271 108.096 263.073 107.013C261.875 105.929 260.368 105.322 258.805 105.291C258.523 104.038 257.92 102.896 257.065 101.996C256.21 101.096 255.137 100.473 253.969 100.2C252.801 99.9269 251.585 100.014 250.461 100.451C249.336 100.888 248.349 101.658 247.611 102.672C246.526 101.692 245.181 101.108 243.768 101.005C242.356 100.902 240.95 101.286 239.752 102.1C238.554 102.914 237.627 104.116 237.103 105.535C236.58 106.954 236.487 108.515 236.839 109.994C235.816 109.43 234.636 109.295 233.526 109.614C232.417 109.934 231.456 110.686 230.831 111.725C230.205 112.764 229.959 114.016 230.14 115.239C230.32 116.463 230.915 117.571 231.808 118.349C231.419 118.89 231.142 119.516 230.998 120.183C230.854 120.851 230.846 121.544 230.974 122.215C231.102 122.886 231.364 123.519 231.74 124.071C232.117 124.623 232.6 125.08 233.156 125.411C232.942 125.951 232.835 126.534 232.843 127.122C232.85 127.71 232.973 128.289 233.202 128.822C233.431 129.355 233.761 129.831 234.172 130.217C234.582 130.604 235.063 130.893 235.584 131.066C236.105 131.238 236.653 131.291 237.194 131.22C237.735 131.149 238.256 130.956 238.723 130.654C239.19 130.352 239.593 129.947 239.906 129.466C240.219 128.984 240.434 128.438 240.538 127.861C240.728 126.814 240.538 125.728 240.007 124.827L242.382 116.766L251.816 119.632L248.657 130.635C248.374 131.274 248.229 131.973 248.234 132.681C248.239 133.389 248.393 134.086 248.685 134.72C248.976 135.355 249.398 135.909 249.918 136.341C250.437 136.773 251.041 137.072 251.684 137.216C252.326 137.359 252.991 137.342 253.627 137.168C254.263 136.993 254.853 136.664 255.354 136.207C255.855 135.749 256.252 135.175 256.517 134.527C256.781 133.879 256.906 133.175 256.881 132.468C257.868 132.601 258.871 132.458 259.792 132.051C260.713 131.645 261.522 130.99 262.14 130.149C262.758 129.308 263.165 128.309 263.321 127.249C263.478 126.189 263.379 125.103 263.033 124.096C264.229 123.705 265.304 122.969 266.142 121.969C266.981 120.969 267.551 119.741 267.791 118.418Z" fill="#263238" stroke="#263238" stroke-width="0.796667" stroke-miterlimit="10"/>
<path d="M237.724 123.618C237.724 123.618 236.877 119.734 235.254 122.394C233.63 125.054 235.285 127.601 236.557 128.74C237.828 129.878 237.724 123.618 237.724 123.618Z" fill="#BABABA" stroke="#263238" stroke-width="0.796667" stroke-linecap="round" stroke-linejoin="round"/>
<path d="M253.409 128.711C253.409 128.711 255.871 125.748 256.121 128.911C256.371 132.073 253.778 133.458 252.163 133.81C250.547 134.161 253.409 128.711 253.409 128.711Z" fill="#BABABA" stroke="#263238" stroke-width="0.796667" stroke-linecap="round" stroke-linejoin="round"/>
<path d="M237.795 121.434C237.795 121.434 236.338 129.046 236.975 131.379C237.613 133.712 240.217 140.066 242.541 140.293C244.865 140.519 248.841 137.484 249.968 136.226C250.458 135.713 250.912 135.161 251.326 134.575L254.422 126.956C254.422 126.956 253.823 126.213 254.176 124.706C254.427 123.738 254.867 122.839 255.469 122.072C255.171 121.837 254.93 121.528 254.767 121.171C254.605 120.814 254.524 120.42 254.534 120.022C254.584 119.187 254.68 118.355 254.821 117.532C254.821 117.532 251.849 115.936 250.596 112.936C250.596 112.936 247.586 114.239 245.68 112.606C245.68 112.606 243.147 115.779 241.355 114.864C241.346 114.878 241.155 121.347 237.795 121.434Z" fill="#BABABA" stroke="#263238" stroke-width="0.796667" stroke-linecap="round" stroke-linejoin="round"/>
<path d="M242.075 119.87C242.075 119.87 245.171 118.585 246.055 121.326" stroke="#263238" stroke-width="0.796667" stroke-miterlimit="10"/>
<path d="M248.982 123.171L252.08 124.089" stroke="#263238" stroke-width="0.796667" stroke-miterlimit="10"/>
<path d="M243.28 124.034C243.166 124.664 242.845 125.128 242.563 125.069C242.282 125.01 242.153 124.457 242.268 123.821C242.383 123.184 242.701 122.723 242.985 122.783C243.269 122.842 243.394 123.406 243.28 124.034Z" fill="#263238" stroke="#263238" stroke-width="0.796667" stroke-miterlimit="10"/>
<path d="M250.408 126.921C250.144 127.498 249.724 127.858 249.465 127.72C249.206 127.582 249.211 127.005 249.473 126.424C249.736 125.843 250.157 125.491 250.416 125.625C250.676 125.76 250.67 126.343 250.408 126.921Z" fill="#263238" stroke="#263238" stroke-width="0.796667" stroke-miterlimit="10"/>
<path d="M243.805 127.891L243.042 129.401L246.831 130.55L246.892 129.331" stroke="#263238" stroke-width="0.796667" stroke-miterlimit="10"/>
<path d="M243.027 133.094L244.71 133.711" stroke="#263238" stroke-width="0.796667" stroke-miterlimit="10"/>
<path d="M239.697 140.918L237.857 153.082L225.447 168.898H235.055L240.818 154.822C240.818 154.822 242.181 154.046 242.822 153.354C243.463 152.663 244.261 150.929 244.261 150.929C244.261 150.929 243.941 152.312 244.663 153.088C245.385 153.864 246.183 153.606 246.183 153.176C246.183 152.745 246.023 151.275 246.104 150.323C246.186 149.371 247.228 145.401 246.666 144.625C246.104 143.849 241.943 144.018 241.943 144.018L241.782 142.376C241.782 142.376 246.588 141.769 246.908 140.908C247.228 140.048 247.47 139.526 246.186 139.614C244.902 139.702 243.466 139.441 241.864 139.872C240.262 140.302 240.018 140.138 239.697 140.918Z" fill="#BABABA" stroke="#263238" stroke-width="0.796667" stroke-linecap="round" stroke-linejoin="round"/>
<path d="M241.299 146.013C241.299 146.013 244.275 145.504 244.901 145.504C245.528 145.504 246.503 146.28 246.503 146.28" stroke="#263238" stroke-width="0.796667" stroke-miterlimit="10"/>
<path d="M241.38 148.517C241.38 148.517 244.261 147.395 245.143 147.222C246.026 147.05 246.343 148.435 246.343 148.435" stroke="#263238" stroke-width="0.796667" stroke-miterlimit="10"/>
<path d="M241.94 144.028L240.818 144.458" stroke="#263238" stroke-width="0.796667" stroke-miterlimit="10"/>
<path d="M168.31 80.1613C168.491 77.1783 169.713 74.3829 171.722 72.3507C173.731 70.3186 176.376 69.2044 179.111 69.2376C178.789 67.1876 178.974 65.0799 179.647 63.1324C180.32 61.1849 181.457 59.4684 182.94 58.1603C184.422 56.8522 186.197 56.0001 188.081 55.6921C189.964 55.3841 191.888 55.6314 193.653 56.4084C194.258 54.1034 195.497 52.056 197.201 50.543C198.905 49.03 200.992 48.1244 203.18 47.9485C205.368 47.7726 207.551 48.3349 209.435 49.5595C211.319 50.7841 212.812 52.6118 213.713 54.7957C215.001 52.9403 216.766 51.5465 218.781 50.793C220.797 50.0396 222.972 49.9609 225.026 50.567C227.081 51.173 228.922 52.4363 230.313 54.1947C231.705 55.9531 232.583 58.1266 232.836 60.4363C235.163 61.5938 237.033 63.6233 238.108 66.1581C239.183 68.6928 239.393 71.5659 238.699 74.2582C240.74 76.1464 242.056 78.8038 242.389 81.705C242.721 84.6062 242.045 87.54 240.495 89.9264C238.944 92.3129 236.631 93.9782 234.014 94.5934C231.397 95.2085 228.665 94.7285 226.36 93.2484C226.141 94.9744 225.572 96.6258 224.694 98.0815C223.815 99.5372 222.651 100.76 221.285 101.661C219.919 102.562 218.387 103.119 216.8 103.289C215.213 103.459 213.612 103.24 212.114 102.646C211.566 104.971 210.375 107.057 208.704 108.619C207.034 110.181 204.964 111.143 202.777 111.374C200.59 111.606 198.392 111.095 196.482 109.912C194.573 108.729 193.044 106.931 192.105 104.762C190.434 105.402 188.644 105.578 186.896 105.275C185.149 104.972 183.498 104.199 182.093 103.026C180.687 101.853 179.571 100.317 178.844 98.5544C178.118 96.7922 177.803 94.8596 177.929 92.9301C177.936 92.8136 177.944 92.6971 177.951 92.5805C175.177 92.2952 172.617 90.8372 170.816 88.5173C169.016 86.1974 168.116 83.1991 168.31 80.1613Z" fill="#263238" stroke="#263238" stroke-width="0.796667" stroke-linecap="round" stroke-linejoin="round"/>
<path d="M218.182 109.592C215.229 109.378 212.957 107.263 213.106 104.867C213.255 102.471 215.769 100.702 218.721 100.916C221.674 101.13 223.946 103.245 223.797 105.641C223.648 108.037 221.134 109.806 218.182 109.592Z" fill="#263238" stroke="#263238" stroke-width="0.796667" stroke-linecap="round" stroke-linejoin="round"/>
<path d="M217.88 115.54C217.776 117.214 219.364 118.686 221.419 118.834C223.474 118.983 225.23 117.753 225.334 116.08C225.438 114.406 223.855 112.935 221.795 112.785C219.735 112.636 217.984 113.872 217.88 115.54Z" fill="#263238" stroke="#263238" stroke-width="0.796667" stroke-linecap="round" stroke-linejoin="round"/>
<path d="M169.919 76.8351C170.1 73.853 171.321 71.0583 173.329 69.0262C175.337 66.9941 177.981 65.8792 180.715 65.9111C180.393 63.8611 180.578 61.7534 181.251 59.8059C181.924 57.8584 183.061 56.1419 184.544 54.8338C186.026 53.5257 187.801 52.6737 189.685 52.3657C191.568 52.0577 193.492 52.3049 195.257 53.0819C195.865 50.7791 197.104 48.7342 198.808 47.2232C200.512 45.7122 202.598 44.8079 204.785 44.6321C206.971 44.4563 209.154 45.0175 211.037 46.2401C212.92 47.4627 214.414 49.2878 215.317 51.4692C216.605 49.6138 218.37 48.22 220.385 47.4666C222.401 46.7131 224.576 46.6344 226.63 47.2405C228.685 47.8465 230.526 49.1098 231.918 50.8682C233.309 52.6266 234.187 54.8001 234.44 57.1098C236.77 58.262 238.642 60.2901 239.717 62.8254C240.793 65.3608 240.999 68.2351 240.299 70.926C242.347 72.8119 243.67 75.4711 244.006 78.3764C244.343 81.2817 243.668 84.2209 242.115 86.6113C240.562 89.0018 238.245 90.6688 235.623 91.2819C233.001 91.8951 230.265 91.4095 227.959 89.9216C227.586 92.855 226.208 95.5261 224.104 97.3948C221.999 99.2634 219.325 100.19 216.622 99.9871C215.627 99.9143 214.646 99.6874 213.709 99.3134C213.161 101.639 211.971 103.726 210.301 105.288C208.63 106.851 206.56 107.813 204.373 108.045C202.186 108.277 199.988 107.767 198.078 106.584C196.168 105.402 194.639 103.604 193.699 101.435C192.028 102.063 190.241 102.229 188.497 101.921C186.754 101.612 185.108 100.837 183.706 99.6655C182.304 98.4937 181.189 96.9611 180.46 95.2039C179.732 93.4466 179.412 91.5192 179.529 89.5927C179.537 89.4709 179.544 89.3596 179.551 89.2431C176.781 88.9553 174.225 87.4979 172.426 85.1807C170.627 82.8636 169.728 79.8695 169.919 76.8351Z" fill="white" stroke="#263238" stroke-width="0.796667" stroke-miterlimit="10"/>
<path d="M214.71 101.536C214.561 103.935 216.834 106.052 219.771 106.265C222.708 106.477 225.223 104.707 225.373 102.307C225.522 99.9079 223.248 97.7959 220.311 97.5834C217.374 97.3708 214.859 99.1414 214.71 101.536Z" fill="white" stroke="#263238" stroke-width="0.796667" stroke-miterlimit="10"/>
<path d="M219.489 112.214C219.385 113.883 220.968 115.359 223.028 115.508C225.087 115.658 226.839 114.422 226.943 112.754C227.047 111.085 225.459 109.608 223.404 109.459C221.349 109.311 219.592 110.546 219.489 112.214Z" fill="white" stroke="#263238" stroke-width="0.796667" stroke-miterlimit="10"/>
<path d="M114.298 113.548C114.298 113.548 115.984 106.033 123.426 105.861C130.867 105.688 134.795 113.293 135.27 114.842C135.745 116.391 145.28 120.801 144.319 125.724C143.358 130.646 139.435 127.364 139.261 129.361C139.086 131.359 142.633 136.009 140.542 140.067C138.451 144.126 136.377 146.718 131.255 144.129C126.132 141.541 123.886 138.6 122.206 140.155C120.525 141.71 119.564 144.041 113.478 142.141C107.391 140.24 109.636 134.972 110.195 131.604C110.755 128.237 105.393 125.645 107.073 120.55C108.754 115.454 112.379 112.511 114.298 113.548Z" fill="#263238" stroke="#263238" stroke-width="0.796667" stroke-miterlimit="10"/>
<path d="M127.669 140.404L126.629 144.723C126.629 144.723 131.994 147.918 135.517 149.473C137.494 150.374 139.564 151.012 141.683 151.374L145.685 168.991H98.6878C98.6878 168.991 105.171 152.841 105.651 151.546C106.132 150.252 106.374 149.561 106.374 149.561C106.374 149.561 113.739 147.742 115.9 146.53C118.061 145.317 118.463 144.632 118.463 144.632L118.69 134.36L127.669 140.404Z" fill="#084A5B" stroke="#263238" stroke-width="0.796667" stroke-linecap="round" stroke-linejoin="round"/>
<path d="M115.498 146.742C115.647 146.672 115.779 146.603 115.9 146.536C118.061 145.323 118.463 144.638 118.463 144.638L118.69 134.36L127.657 140.404L126.618 144.723C126.618 144.723 127.958 145.52 129.737 146.512L131.502 156.987L118.53 157.594L115.498 146.742Z" fill="white" stroke="#263238" stroke-width="0.796667" stroke-miterlimit="10"/>
<path d="M120.225 137.297L119.106 134.63L127.669 140.404L126.629 144.723L125.91 148.006L120.225 137.297Z" fill="#263238" stroke="#263238" stroke-width="0.796667" stroke-miterlimit="10"/>
<path d="M140.32 168.991L138.078 157.073" stroke="#263238" stroke-width="0.796667" stroke-miterlimit="10"/>
<path d="M111.977 169.079L109.254 155.172" stroke="#263238" stroke-width="0.796667" stroke-miterlimit="10"/>
<path d="M128.405 120.356C129.082 121.215 129.835 122.001 130.653 122.702C131.814 123.639 134.498 123.951 134.498 123.951C134.498 123.951 134.135 130.922 133.41 134.275C132.685 137.627 129.493 141.392 128.768 141.786C128.043 142.18 121.95 139.207 120.284 137.955C118.617 136.703 117.673 133.496 117.673 133.496C116.74 133.134 115.897 132.546 115.209 131.777C113.975 130.447 114.338 127.085 114.338 127.085C114.338 127.085 116.007 128.961 116.802 129.116C117.597 129.27 118.617 126.77 118.617 126.77C118.617 126.77 121.88 126.536 122.675 124.815C123.471 123.093 121.734 119.965 123.257 117.843C124.78 115.721 128.405 120.356 128.405 120.356Z" fill="white" stroke="#263238" stroke-width="0.796667" stroke-miterlimit="10"/>
<path d="M130.943 126.3C130.731 127.092 130.585 127.904 130.507 128.725C130.434 129.822 131.521 134.123 131.521 134.123H128.838" stroke="#263238" stroke-width="0.796667" stroke-miterlimit="10"/>
<path d="M130.288 136.151C129.21 136.566 128.033 136.566 126.955 136.151C125.213 135.448 123.836 132.241 123.836 132.241" stroke="#263238" stroke-width="0.796667" stroke-miterlimit="10"/>
<path d="M128.832 136.475C128.832 136.475 128.551 139.279 127.098 138.421C125.646 137.563 125.435 134.902 125.435 134.902C126.33 135.89 127.552 136.456 128.832 136.475Z" fill="#263238" stroke="#263238" stroke-width="0.796667" stroke-miterlimit="10"/>
<path d="M126.382 129.24C126.095 129.24 125.862 128.785 125.862 128.225C125.862 127.664 126.095 127.209 126.382 127.209C126.669 127.209 126.902 127.664 126.902 128.225C126.902 128.785 126.669 129.24 126.382 129.24Z" fill="#263238" stroke="#263238" stroke-width="0.796667" stroke-miterlimit="10"/>
<path d="M131.617 127.539C131.617 128.1 131.828 128.555 132.086 128.555C132.345 128.555 132.558 128.1 132.558 127.539C132.558 126.979 132.348 126.521 132.086 126.521C131.825 126.521 131.617 126.967 131.617 127.539Z" fill="#263238" stroke="#263238" stroke-width="0.796667" stroke-miterlimit="10"/>
<path d="M128.045 125.175C128.045 125.175 125.862 123.035 124.176 126.033" stroke="#263238" stroke-width="0.796667" stroke-miterlimit="10"/>
<path d="M131.167 125.23C131.167 125.23 133.3 123.944 133.747 126.139" stroke="#263238" stroke-width="0.796667" stroke-miterlimit="10"/>
<path d="M135.964 22.0735H52.5811C51.4415 22.0756 50.3134 22.3139 49.2613 22.7748C48.2092 23.2357 47.2537 23.9101 46.4493 24.7595C45.6449 25.6089 45.0074 26.6168 44.5731 27.7255C44.1389 28.8342 43.9164 30.022 43.9185 31.2211V83.4993C43.9185 84.6984 44.1429 85.8859 44.579 86.9937C45.0152 88.1016 45.6544 89.1082 46.4602 89.9562C47.266 90.8041 48.2227 91.4767 49.2756 91.9356C50.3284 92.3945 51.4569 92.6307 52.5965 92.6307H96.1103L107.043 114.793L109.027 92.6307H135.964C137.104 92.6307 138.233 92.3945 139.285 91.9356C140.338 91.4767 141.295 90.8041 142.101 89.9562C142.907 89.1082 143.546 88.1016 143.982 86.9937C144.418 85.8859 144.643 84.6984 144.643 83.4993V31.2211C144.645 30.0206 144.422 28.8315 143.986 27.7217C143.551 26.612 142.912 25.6034 142.106 24.7538C141.3 23.9041 140.343 23.23 139.289 22.7701C138.235 22.3102 137.105 22.0735 135.964 22.0735Z" fill="#263238" stroke="#263238" stroke-width="0.796667" stroke-linecap="round" stroke-linejoin="round"/>
<path d="M126.198 1H12.8016C9.67165 1 6.66986 2.30834 4.45662 4.63721C2.24338 6.96607 1 10.1247 1 13.4182V84.5135C1 87.807 2.24338 90.9656 4.45662 93.2945C6.66986 95.6234 9.67165 96.9317 12.8016 96.9317H71.9884L86.8665 127.071L89.5649 96.9317H126.198C129.328 96.9317 132.33 95.6234 134.543 93.2945C136.757 90.9656 138 87.807 138 84.5135V13.4182C138 10.1247 136.757 6.96607 134.543 4.63721C132.33 2.30834 129.328 1 126.198 1Z" fill="white" stroke="#263238" stroke-width="1.08342" stroke-miterlimit="10"/>
<path d="M49.3758 29L47.2822 25.1999H46.6942V29H44.2421V18.9333H48.3577C49.1512 18.9333 49.8251 19.0719 50.3796 19.3492C50.9437 19.6264 51.3643 20.0088 51.6415 20.4964C51.9188 20.9744 52.0574 21.5097 52.0574 22.1025C52.0574 22.7717 51.8662 23.3692 51.4838 23.895C51.111 24.4208 50.5565 24.7936 49.8204 25.0135L52.1434 29H49.3758ZM46.6942 23.4648H48.2143C48.6636 23.4648 48.9982 23.3548 49.2181 23.1349C49.4475 22.9151 49.5622 22.6044 49.5622 22.2028C49.5622 21.8204 49.4475 21.5193 49.2181 21.2994C48.9982 21.0795 48.6636 20.9696 48.2143 20.9696H46.6942V23.4648ZM61.1396 24.8701C61.1396 25.0995 61.1252 25.3385 61.0965 25.5871H55.547C55.5852 26.0842 55.7429 26.4666 56.0202 26.7343C56.307 26.9924 56.6559 27.1215 57.067 27.1215C57.6788 27.1215 58.1043 26.8633 58.3433 26.3471H60.9531C60.8193 26.8729 60.5755 27.3461 60.2218 27.7668C59.8776 28.1874 59.4427 28.5172 58.9169 28.7562C58.3911 28.9952 57.8031 29.1147 57.153 29.1147C56.3691 29.1147 55.6712 28.9474 55.0594 28.6128C54.4476 28.2782 53.9696 27.8002 53.6254 27.1788C53.2812 26.5574 53.1092 25.8309 53.1092 24.9991C53.1092 24.1674 53.2765 23.4409 53.6111 22.8195C53.9552 22.1981 54.4332 21.7201 55.0451 21.3855C55.6569 21.0509 56.3596 20.8836 57.153 20.8836C57.9274 20.8836 58.6157 21.0461 59.218 21.3711C59.8203 21.6962 60.2887 22.1598 60.6233 22.7621C60.9675 23.3644 61.1396 24.067 61.1396 24.8701ZM58.6301 24.2248C58.6301 23.8041 58.4867 23.4695 58.1999 23.221C57.9131 22.9724 57.5546 22.8481 57.1244 22.8481C56.7133 22.8481 56.3643 22.9676 56.0775 23.2066C55.8003 23.4456 55.6282 23.785 55.5613 24.2248H58.6301ZM61.9456 24.9848C61.9456 24.1626 62.0986 23.4409 62.4045 22.8195C62.72 22.1981 63.1454 21.7201 63.6808 21.3855C64.2161 21.0509 64.8136 20.8836 65.4733 20.8836C66.0373 20.8836 66.5296 20.9983 66.9503 21.2277C67.3805 21.4572 67.7103 21.7583 67.9397 22.1311V20.9983H70.3919V29H67.9397V27.8671C67.7007 28.24 67.3661 28.5411 66.9359 28.7706C66.5153 29 66.023 29.1147 65.4589 29.1147C64.8088 29.1147 64.2161 28.9474 63.6808 28.6128C63.1454 28.2687 62.72 27.7859 62.4045 27.1645C62.0986 26.5335 61.9456 25.807 61.9456 24.9848ZM67.9397 24.9991C67.9397 24.3873 67.7677 23.9045 67.4235 23.5508C67.0889 23.1971 66.6778 23.0202 66.1903 23.0202C65.7027 23.0202 65.2868 23.1971 64.9427 23.5508C64.6081 23.895 64.4408 24.373 64.4408 24.9848C64.4408 25.5966 64.6081 26.0842 64.9427 26.4475C65.2868 26.8012 65.7027 26.9781 66.1903 26.9781C66.6778 26.9781 67.0889 26.8012 67.4235 26.4475C67.7677 26.0938 67.9397 25.611 67.9397 24.9991ZM71.6783 24.9848C71.6783 24.1626 71.8313 23.4409 72.1372 22.8195C72.4527 22.1981 72.8781 21.7201 73.4135 21.3855C73.9488 21.0509 74.5463 20.8836 75.206 20.8836C75.7318 20.8836 76.2098 20.9935 76.64 21.2134C77.0797 21.4333 77.4239 21.7296 77.6725 22.1025V18.3884H80.1246V29H77.6725V27.8528C77.443 28.2352 77.1132 28.5411 76.683 28.7706C76.2624 29 75.77 29.1147 75.206 29.1147C74.5463 29.1147 73.9488 28.9474 73.4135 28.6128C72.8781 28.2687 72.4527 27.7859 72.1372 27.1645C71.8313 26.5335 71.6783 25.807 71.6783 24.9848ZM77.6725 24.9991C77.6725 24.3873 77.5004 23.9045 77.1562 23.5508C76.8216 23.1971 76.4105 23.0202 75.923 23.0202C75.4354 23.0202 75.0196 23.1971 74.6754 23.5508C74.3408 23.895 74.1735 24.373 74.1735 24.9848C74.1735 25.5966 74.3408 26.0842 74.6754 26.4475C75.0196 26.8012 75.4354 26.9781 75.923 26.9781C76.4105 26.9781 76.8216 26.8012 77.1562 26.4475C77.5004 26.0938 77.6725 25.611 77.6725 24.9991ZM92.638 29L91.7059 28.0966C90.7786 28.804 89.6697 29.1577 88.3791 29.1577C87.6047 29.1577 86.9307 29.0335 86.3571 28.7849C85.7835 28.5268 85.339 28.1683 85.0235 27.7094C84.7176 27.241 84.5646 26.696 84.5646 26.0746C84.5646 25.4437 84.7319 24.8749 85.0665 24.3682C85.4107 23.8519 85.9221 23.4313 86.6009 23.1063C86.3523 22.8003 86.1755 22.5088 86.0703 22.2315C85.9652 21.9447 85.9126 21.634 85.9126 21.2994C85.9126 20.8214 86.0369 20.3864 86.2854 19.9945C86.534 19.6025 86.8925 19.2966 87.3609 19.0767C87.8389 18.8473 88.403 18.7326 89.053 18.7326C89.7127 18.7326 90.2719 18.8521 90.7308 19.0911C91.1897 19.3301 91.5339 19.6503 91.7633 20.0518C91.9927 20.4534 92.0979 20.8931 92.0788 21.3711H89.77C89.7796 21.113 89.7127 20.917 89.5693 20.7832C89.4354 20.6398 89.2538 20.5681 89.0244 20.5681C88.7949 20.5681 88.6037 20.635 88.4508 20.7688C88.2978 20.9027 88.2213 21.0748 88.2213 21.2851C88.2213 21.4858 88.2835 21.6962 88.4077 21.916C88.5416 22.1359 88.7471 22.3893 89.0244 22.6761L91.4765 25.0708C91.4956 25.023 91.5195 24.9657 91.5482 24.8988C91.5864 24.8318 91.6247 24.7554 91.6629 24.6693L92.1935 23.7659H94.6456L93.9573 25.0135C93.6992 25.5775 93.4028 26.1129 93.0682 26.6196L95.4917 29H92.638ZM88.4938 27.1788C89.1343 27.1788 89.7031 26.9972 90.2002 26.6339L87.9632 24.4686C87.2749 24.8223 86.9307 25.3003 86.9307 25.9026C86.9307 26.2658 87.0693 26.5718 87.3466 26.8203C87.6334 27.0593 88.0158 27.1788 88.4938 27.1788ZM34.9083 43.2218H31.1513L30.549 45H27.9821L31.6245 34.9333H34.4638L38.1062 45H35.5106L34.9083 43.2218ZM34.2774 41.329L33.0298 37.6436L31.7966 41.329H34.2774ZM38.7271 40.9991C38.7271 40.1674 38.8944 39.4409 39.229 38.8195C39.5732 38.1981 40.0464 37.7201 40.6487 37.3855C41.2605 37.0509 41.9584 36.8836 42.7423 36.8836C43.7461 36.8836 44.5826 37.1465 45.2518 37.6723C45.9306 38.1981 46.3751 38.939 46.5855 39.895H43.9756C43.7557 39.2831 43.3303 38.9772 42.6993 38.9772C42.25 38.9772 41.8915 39.1541 41.6238 39.5078C41.3561 39.8519 41.2223 40.3491 41.2223 40.9991C41.2223 41.6492 41.3561 42.1511 41.6238 42.5048C41.8915 42.849 42.25 43.0211 42.6993 43.0211C43.3303 43.0211 43.7557 42.7152 43.9756 42.1033H46.5855C46.3751 43.0402 45.9306 43.7763 45.2518 44.3117C44.5731 44.847 43.7366 45.1147 42.7423 45.1147C41.9584 45.1147 41.2605 44.9474 40.6487 44.6128C40.0464 44.2782 39.5732 43.8002 39.229 43.1788C38.8944 42.5574 38.7271 41.8309 38.7271 40.9991ZM47.4096 40.9991C47.4096 40.1674 47.5769 39.4409 47.9115 38.8195C48.2556 38.1981 48.7288 37.7201 49.3311 37.3855C49.943 37.0509 50.6408 36.8836 51.4248 36.8836C52.4286 36.8836 53.2651 37.1465 53.9343 37.6723C54.613 38.1981 55.0576 38.939 55.2679 39.895H52.658C52.4381 39.2831 52.0127 38.9772 51.3817 38.9772C50.9324 38.9772 50.5739 39.1541 50.3062 39.5078C50.0386 39.8519 49.9047 40.3491 49.9047 40.9991C49.9047 41.6492 50.0386 42.1511 50.3062 42.5048C50.5739 42.849 50.9324 43.0211 51.3817 43.0211C52.0127 43.0211 52.4381 42.7152 52.658 42.1033H55.2679C55.0576 43.0402 54.613 43.7763 53.9343 44.3117C53.2555 44.847 52.419 45.1147 51.4248 45.1147C50.6408 45.1147 49.943 44.9474 49.3311 44.6128C48.7288 44.2782 48.2556 43.8002 47.9115 43.1788C47.5769 42.5574 47.4096 41.8309 47.4096 40.9991ZM64.1224 40.8701C64.1224 41.0995 64.108 41.3385 64.0794 41.5871H58.5298C58.568 42.0842 58.7258 42.4666 59.003 42.7343C59.2898 42.9924 59.6387 43.1215 60.0498 43.1215C60.6617 43.1215 61.0871 42.8633 61.3261 42.3471H63.936C63.8021 42.8729 63.5583 43.3461 63.2046 43.7668C62.8605 44.1874 62.4255 44.5172 61.8997 44.7562C61.3739 44.9952 60.7859 45.1147 60.1359 45.1147C59.3519 45.1147 58.6541 44.9474 58.0422 44.6128C57.4304 44.2782 56.9524 43.8002 56.6082 43.1788C56.2641 42.5574 56.092 41.8309 56.092 40.9991C56.092 40.1674 56.2593 39.4409 56.5939 38.8195C56.938 38.1981 57.416 37.7201 58.0279 37.3855C58.6397 37.0509 59.3424 36.8836 60.1359 36.8836C60.9102 36.8836 61.5985 37.0461 62.2008 37.3711C62.8031 37.6962 63.2715 38.1598 63.6061 38.7621C63.9503 39.3644 64.1224 40.067 64.1224 40.8701ZM61.6129 40.2248C61.6129 39.8041 61.4695 39.4695 61.1827 39.221C60.8959 38.9724 60.5374 38.8481 60.1072 38.8481C59.6961 38.8481 59.3472 38.9676 59.0604 39.2066C58.7831 39.4456 58.611 39.785 58.5441 40.2248H61.6129ZM67.8682 38.1311C68.1072 37.7583 68.437 37.4572 68.8576 37.2277C69.2783 36.9983 69.7706 36.8836 70.3346 36.8836C70.9943 36.8836 71.5918 37.0509 72.1271 37.3855C72.6625 37.7201 73.0831 38.1981 73.3891 38.8195C73.7045 39.4409 73.8623 40.1626 73.8623 40.9848C73.8623 41.807 73.7045 42.5335 73.3891 43.1645C73.0831 43.7859 72.6625 44.2687 72.1271 44.6128C71.5918 44.9474 70.9943 45.1147 70.3346 45.1147C69.7802 45.1147 69.2878 45 68.8576 44.7706C68.437 44.5411 68.1072 44.2448 67.8682 43.8815V48.8144H65.416V36.9983H67.8682V38.1311ZM71.3671 40.9848C71.3671 40.373 71.195 39.895 70.8509 39.5508C70.5163 39.1971 70.1004 39.0202 69.6033 39.0202C69.1157 39.0202 68.6999 39.1971 68.3557 39.5508C68.0211 39.9045 67.8538 40.3873 67.8538 40.9991C67.8538 41.611 68.0211 42.0938 68.3557 42.4475C68.6999 42.8012 69.1157 42.9781 69.6033 42.9781C70.0909 42.9781 70.5067 42.8012 70.8509 42.4475C71.195 42.0842 71.3671 41.5966 71.3671 40.9848ZM79.6085 42.9207V45H78.3609C77.4718 45 76.7787 44.7849 76.2816 44.3547C75.7845 43.9149 75.5359 43.2027 75.5359 42.218V39.0346H74.5608V36.9983H75.5359V35.048H77.988V36.9983H79.5941V39.0346H77.988V42.2467C77.988 42.4857 78.0454 42.6578 78.1601 42.763C78.2748 42.8681 78.466 42.9207 78.7337 42.9207H79.6085ZM87.6556 45.1147C86.8716 45.1147 86.1642 44.9474 85.5332 44.6128C84.9118 44.2782 84.4195 43.8002 84.0562 43.1788C83.7025 42.5574 83.5256 41.8309 83.5256 40.9991C83.5256 40.177 83.7073 39.4552 84.0706 38.8338C84.4338 38.2028 84.931 37.7201 85.5619 37.3855C86.1929 37.0509 86.9003 36.8836 87.6842 36.8836C88.4682 36.8836 89.1756 37.0509 89.8066 37.3855C90.4375 37.7201 90.9346 38.2028 91.2979 38.8338C91.6612 39.4552 91.8428 40.177 91.8428 40.9991C91.8428 41.8213 91.6564 42.5479 91.2836 43.1788C90.9203 43.8002 90.4184 44.2782 89.7779 44.6128C89.1469 44.9474 88.4395 45.1147 87.6556 45.1147ZM87.6556 42.9924C88.124 42.9924 88.5207 42.8203 88.8458 42.4762C89.1804 42.132 89.3477 41.6397 89.3477 40.9991C89.3477 40.3586 89.1852 39.8663 88.8601 39.5221C88.5446 39.178 88.1527 39.0059 87.6842 39.0059C87.2062 39.0059 86.8095 39.178 86.494 39.5221C86.1785 39.8567 86.0208 40.3491 86.0208 40.9991C86.0208 41.6397 86.1738 42.132 86.4797 42.4762C86.7952 42.8203 87.1871 42.9924 87.6556 42.9924ZM101.045 36.9983V45H98.5929V43.9102C98.3444 44.2639 98.005 44.5507 97.5748 44.7706C97.1542 44.9809 96.6857 45.086 96.1695 45.086C95.5576 45.086 95.0175 44.9522 94.5491 44.6845C94.0806 44.4073 93.7173 44.0105 93.4592 43.4943C93.2011 42.9781 93.072 42.371 93.072 41.6731V36.9983H95.5098V41.3433C95.5098 41.8787 95.6485 42.2945 95.9257 42.5909C96.2029 42.8872 96.5758 43.0354 97.0442 43.0354C97.5222 43.0354 97.8998 42.8872 98.1771 42.5909C98.4543 42.2945 98.5929 41.8787 98.5929 41.3433V36.9983H101.045ZM105.259 38.3319C105.545 37.8921 105.904 37.548 106.334 37.2994C106.764 37.0413 107.242 36.9122 107.768 36.9122V39.5078H107.094C106.482 39.5078 106.023 39.6416 105.717 39.9093C105.412 40.1674 105.259 40.6263 105.259 41.2859V45H102.806V36.9983H105.259V38.3319ZM47.0026 50.9333V52.8979H44.3353V61H41.8832V52.8979H39.2159V50.9333H47.0026ZM55.7761 56.8701C55.7761 57.0995 55.7617 57.3385 55.733 57.5871H50.1835C50.2217 58.0842 50.3794 58.4666 50.6567 58.7343C50.9435 58.9924 51.2924 59.1215 51.7035 59.1215C52.3153 59.1215 52.7408 58.8633 52.9798 58.3471H55.5896C55.4558 58.8729 55.212 59.3461 54.8583 59.7668C54.5141 60.1874 54.0792 60.5172 53.5534 60.7562C53.0276 60.9952 52.4396 61.1147 51.7895 61.1147C51.0056 61.1147 50.3077 60.9474 49.6959 60.6128C49.0841 60.2782 48.6061 59.8002 48.2619 59.1788C47.9177 58.5574 47.7457 57.8309 47.7457 56.9991C47.7457 56.1674 47.913 55.4409 48.2476 54.8195C48.5917 54.1981 49.0697 53.7201 49.6816 53.3855C50.2934 53.0509 50.9961 52.8836 51.7895 52.8836C52.5639 52.8836 53.2522 53.0461 53.8545 53.3711C54.4568 53.6962 54.9252 54.1598 55.2598 54.7621C55.604 55.3644 55.7761 56.067 55.7761 56.8701ZM53.2666 56.2248C53.2666 55.8041 53.1232 55.4695 52.8364 55.221C52.5496 54.9724 52.1911 54.8481 51.7609 54.8481C51.3498 54.8481 51.0008 54.9676 50.714 55.2066C50.4368 55.4456 50.2647 55.785 50.1978 56.2248H53.2666ZM59.5218 54.3319C59.8086 53.8921 60.1671 53.548 60.5973 53.2994C61.0275 53.0413 61.5055 52.9122 62.0313 52.9122V55.5078H61.3573C60.7455 55.5078 60.2866 55.6416 59.9807 55.9093C59.6748 56.1674 59.5218 56.6263 59.5218 57.2859V61H57.0697V52.9983H59.5218V54.3319ZM73.4135 52.9122C74.4077 52.9122 75.1964 53.2134 75.7796 53.8157C76.3723 54.4179 76.6687 55.2544 76.6687 56.3252V61H74.2309V56.655C74.2309 56.1387 74.0922 55.742 73.815 55.4648C73.5473 55.178 73.1745 55.0346 72.6965 55.0346C72.2185 55.0346 71.8409 55.178 71.5636 55.4648C71.2959 55.742 71.1621 56.1387 71.1621 56.655V61H68.7243V56.655C68.7243 56.1387 68.5857 55.742 68.3084 55.4648C68.0408 55.178 67.6679 55.0346 67.1899 55.0346C66.7119 55.0346 66.3343 55.178 66.0571 55.4648C65.7894 55.742 65.6555 56.1387 65.6555 56.655V61H63.2034V52.9983H65.6555V54.0021C65.9041 53.6675 66.2291 53.4046 66.6307 53.2134C67.0322 53.0126 67.4863 52.9122 67.993 52.9122C68.5952 52.9122 69.1306 53.0413 69.599 53.2994C70.077 53.5575 70.4499 53.9256 70.7176 54.4036C70.9948 53.9638 71.3724 53.6053 71.8504 53.3281C72.3284 53.0509 72.8494 52.9122 73.4135 52.9122ZM81.6388 61.1147C80.9409 61.1147 80.3195 60.9952 79.7746 60.7562C79.2297 60.5172 78.7995 60.1922 78.484 59.7811C78.1685 59.3605 77.9917 58.892 77.9534 58.3758H80.3769C80.4056 58.653 80.5346 58.8777 80.7641 59.0498C80.9935 59.2218 81.2755 59.3079 81.6101 59.3079C81.916 59.3079 82.1503 59.2505 82.3128 59.1358C82.4849 59.0115 82.5709 58.8538 82.5709 58.6626C82.5709 58.4331 82.4514 58.2658 82.2124 58.1607C81.9734 58.046 81.5862 57.9217 81.0509 57.7878C80.4773 57.654 79.9993 57.5154 79.6169 57.372C79.2345 57.219 78.9046 56.9848 78.6274 56.6693C78.3502 56.3443 78.2115 55.9093 78.2115 55.3644C78.2115 54.9055 78.3358 54.4896 78.5844 54.1168C78.8425 53.7344 79.2153 53.4333 79.7029 53.2134C80.2 52.9935 80.788 52.8836 81.4667 52.8836C82.4705 52.8836 83.2592 53.1321 83.8328 53.6292C84.416 54.1264 84.7506 54.786 84.8366 55.6082H82.5709C82.5327 55.3309 82.4084 55.111 82.1981 54.9485C81.9973 54.786 81.7296 54.7047 81.395 54.7047C81.1082 54.7047 80.8883 54.7621 80.7354 54.8768C80.5824 54.982 80.5059 55.1302 80.5059 55.3214C80.5059 55.5508 80.6254 55.7229 80.8644 55.8376C81.113 55.9523 81.4954 56.067 82.0116 56.1818C82.6044 56.3347 83.0871 56.4877 83.46 56.6406C83.8328 56.784 84.1579 57.023 84.4351 57.3576C84.7219 57.6827 84.8701 58.1224 84.8796 58.6769C84.8796 59.1454 84.7458 59.566 84.4781 59.9388C84.22 60.3021 83.8424 60.5889 83.3453 60.7992C82.8577 61.0096 82.2889 61.1147 81.6388 61.1147ZM97.1193 61L96.1872 60.0966C95.2599 60.804 94.1509 61.1577 92.8603 61.1577C92.086 61.1577 91.412 61.0335 90.8384 60.7849C90.2648 60.5268 89.8202 60.1683 89.5048 59.7094C89.1988 59.241 89.0459 58.696 89.0459 58.0746C89.0459 57.4437 89.2132 56.8749 89.5478 56.3682C89.8919 55.8519 90.4034 55.4313 91.0822 55.1063C90.8336 54.8003 90.6567 54.5088 90.5516 54.2315C90.4464 53.9447 90.3938 53.634 90.3938 53.2994C90.3938 52.8214 90.5181 52.3864 90.7667 51.9945C91.0152 51.6025 91.3737 51.2966 91.8422 51.0767C92.3202 50.8473 92.8842 50.7326 93.5343 50.7326C94.1939 50.7326 94.7532 50.8521 95.2121 51.0911C95.671 51.3301 96.0151 51.6503 96.2446 52.0518C96.474 52.4534 96.5792 52.8931 96.56 53.3711H94.2513C94.2609 53.113 94.1939 52.917 94.0505 52.7832C93.9167 52.6398 93.7351 52.5681 93.5056 52.5681C93.2762 52.5681 93.085 52.635 92.932 52.7688C92.7791 52.9027 92.7026 53.0748 92.7026 53.2851C92.7026 53.4858 92.7647 53.6962 92.889 53.916C93.0228 54.1359 93.2284 54.3893 93.5056 54.6761L95.9578 57.0708C95.9769 57.023 96.0008 56.9657 96.0295 56.8988C96.0677 56.8318 96.1059 56.7554 96.1442 56.6693L96.6748 55.7659H99.1269L98.4386 57.0135C98.1805 57.5775 97.8841 58.1129 97.5495 58.6196L99.973 61H97.1193ZM92.975 59.1788C93.6156 59.1788 94.1844 58.9972 94.6815 58.6339L92.4445 56.4686C91.7561 56.8223 91.412 57.3003 91.412 57.9026C91.412 58.2658 91.5506 58.5718 91.8278 58.8203C92.1146 59.0593 92.497 59.1788 92.975 59.1788ZM33.6314 71.9523C33.6314 70.9581 33.8465 70.0738 34.2767 69.2994C34.7069 68.5155 35.3044 67.9084 36.0692 67.4782C36.8436 67.0385 37.7183 66.8186 38.6934 66.8186C39.8884 66.8186 40.9113 67.1341 41.7622 67.765C42.613 68.396 43.1818 69.2564 43.4686 70.3462H40.7727C40.572 69.9256 40.2852 69.6053 39.9123 69.3855C39.549 69.1656 39.1332 69.0556 38.6647 69.0556C37.9095 69.0556 37.2977 69.3185 36.8292 69.8443C36.3608 70.3701 36.1266 71.0728 36.1266 71.9523C36.1266 72.8318 36.3608 73.5345 36.8292 74.0603C37.2977 74.5861 37.9095 74.849 38.6647 74.849C39.1332 74.849 39.549 74.7391 39.9123 74.5192C40.2852 74.2993 40.572 73.979 40.7727 73.5584H43.4686C43.1818 74.6482 42.613 75.5086 41.7622 76.1396C40.9113 76.761 39.8884 77.0717 38.6934 77.0717C37.7183 77.0717 36.8436 76.8566 36.0692 76.4264C35.3044 75.9866 34.7069 75.3796 34.2767 74.6052C33.8465 73.8309 33.6314 72.9466 33.6314 71.9523ZM48.6127 77.1147C47.8288 77.1147 47.1213 76.9474 46.4904 76.6128C45.869 76.2782 45.3766 75.8002 45.0133 75.1788C44.6596 74.5574 44.4828 73.8309 44.4828 72.9991C44.4828 72.177 44.6644 71.4552 45.0277 70.8338C45.391 70.2028 45.8881 69.7201 46.519 69.3855C47.15 69.0509 47.8574 68.8836 48.6414 68.8836C49.4253 68.8836 50.1327 69.0509 50.7637 69.3855C51.3946 69.7201 51.8918 70.2028 52.255 70.8338C52.6183 71.4552 52.8 72.177 52.8 72.9991C52.8 73.8213 52.6135 74.5479 52.2407 75.1788C51.8774 75.8002 51.3755 76.2782 50.735 76.6128C50.104 76.9474 49.3966 77.1147 48.6127 77.1147ZM48.6127 74.9924C49.0811 74.9924 49.4779 74.8203 49.8029 74.4762C50.1375 74.132 50.3048 73.6397 50.3048 72.9991C50.3048 72.3586 50.1423 71.8663 49.8172 71.5221C49.5018 71.178 49.1098 71.0059 48.6414 71.0059C48.1634 71.0059 47.7666 71.178 47.4511 71.5221C47.1357 71.8567 46.9779 72.3491 46.9779 72.9991C46.9779 73.6397 47.1309 74.132 47.4368 74.4762C47.7523 74.8203 48.1442 74.9924 48.6127 74.9924ZM58.9765 68.9122C59.9133 68.9122 60.659 69.2182 61.2135 69.83C61.7775 70.4323 62.0596 71.264 62.0596 72.3252V77H59.6218V72.655C59.6218 72.1196 59.4831 71.7038 59.2059 71.4074C58.9287 71.111 58.5558 70.9629 58.0874 70.9629C57.6189 70.9629 57.2461 71.111 56.9689 71.4074C56.6916 71.7038 56.553 72.1196 56.553 72.655V77H54.1009V68.9983H56.553V70.0594C56.8016 69.7057 57.1362 69.4285 57.5568 69.2277C57.9774 69.0174 58.4507 68.9122 58.9765 68.9122ZM63.276 72.9848C63.276 72.1626 63.429 71.4409 63.7349 70.8195C64.0504 70.1981 64.4758 69.7201 65.0111 69.3855C65.5465 69.0509 66.144 68.8836 66.8036 68.8836C67.3294 68.8836 67.8074 68.9935 68.2376 69.2134C68.6774 69.4333 69.0216 69.7296 69.2701 70.1025V66.3884H71.7223V77H69.2701V75.8528C69.0407 76.2352 68.7109 76.5411 68.2807 76.7706C67.86 77 67.3677 77.1147 66.8036 77.1147C66.144 77.1147 65.5465 76.9474 65.0111 76.6128C64.4758 76.2687 64.0504 75.7859 63.7349 75.1645C63.429 74.5335 63.276 73.807 63.276 72.9848ZM69.2701 72.9991C69.2701 72.3873 69.098 71.9045 68.7539 71.5508C68.4193 71.1971 68.0082 71.0202 67.5206 71.0202C67.0331 71.0202 66.6172 71.1971 66.2731 71.5508C65.9385 71.895 65.7712 72.373 65.7712 72.9848C65.7712 73.5966 65.9385 74.0842 66.2731 74.4475C66.6172 74.8012 67.0331 74.9781 67.5206 74.9781C68.0082 74.9781 68.4193 74.8012 68.7539 74.4475C69.098 74.0938 69.2701 73.611 69.2701 72.9991ZM74.7295 68.1666C74.2993 68.1666 73.9456 68.0423 73.6683 67.7937C73.4007 67.5356 73.2668 67.2201 73.2668 66.8473C73.2668 66.4649 73.4007 66.1494 73.6683 65.9008C73.9456 65.6427 74.2993 65.5137 74.7295 65.5137C75.1501 65.5137 75.4943 65.6427 75.762 65.9008C76.0392 66.1494 76.1778 66.4649 76.1778 66.8473C76.1778 67.2201 76.0392 67.5356 75.762 67.7937C75.4943 68.0423 75.1501 68.1666 74.7295 68.1666ZM75.9484 68.9983V77H73.4963V68.9983H75.9484ZM82.1852 74.9207V77H80.9376C80.0485 77 79.3554 76.7849 78.8583 76.3547C78.3612 75.9149 78.1126 75.2027 78.1126 74.218V71.0346H77.1375V68.9983H78.1126V67.048H80.5648V68.9983H82.1708V71.0346H80.5648V74.2467C80.5648 74.4857 80.6221 74.6578 80.7368 74.763C80.8516 74.8681 81.0428 74.9207 81.3104 74.9207H82.1852ZM84.7843 68.1666C84.3541 68.1666 84.0004 68.0423 83.7232 67.7937C83.4555 67.5356 83.3216 67.2201 83.3216 66.8473C83.3216 66.4649 83.4555 66.1494 83.7232 65.9008C84.0004 65.6427 84.3541 65.5137 84.7843 65.5137C85.205 65.5137 85.5491 65.6427 85.8168 65.9008C86.094 66.1494 86.2327 66.4649 86.2327 66.8473C86.2327 67.2201 86.094 67.5356 85.8168 67.7937C85.5491 68.0423 85.205 68.1666 84.7843 68.1666ZM86.0032 68.9983V77H83.5511V68.9983H86.0032ZM91.4226 77.1147C90.6387 77.1147 89.9313 76.9474 89.3003 76.6128C88.6789 76.2782 88.1866 75.8002 87.8233 75.1788C87.4696 74.5574 87.2927 73.8309 87.2927 72.9991C87.2927 72.177 87.4743 71.4552 87.8376 70.8338C88.2009 70.2028 88.698 69.7201 89.329 69.3855C89.9599 69.0509 90.6674 68.8836 91.4513 68.8836C92.2352 68.8836 92.9427 69.0509 93.5736 69.3855C94.2046 69.7201 94.7017 70.2028 95.065 70.8338C95.4283 71.4552 95.6099 72.177 95.6099 72.9991C95.6099 73.8213 95.4235 74.5479 95.0506 75.1788C94.6874 75.8002 94.1855 76.2782 93.5449 76.6128C92.914 76.9474 92.2065 77.1147 91.4226 77.1147ZM91.4226 74.9924C91.8911 74.9924 92.2878 74.8203 92.6128 74.4762C92.9474 74.132 93.1147 73.6397 93.1147 72.9991C93.1147 72.3586 92.9522 71.8663 92.6272 71.5221C92.3117 71.178 91.9197 71.0059 91.4513 71.0059C90.9733 71.0059 90.5766 71.178 90.2611 71.5221C89.9456 71.8567 89.7879 72.3491 89.7879 72.9991C89.7879 73.6397 89.9408 74.132 90.2467 74.4762C90.5622 74.8203 90.9542 74.9924 91.4226 74.9924ZM101.786 68.9122C102.723 68.9122 103.469 69.2182 104.023 69.83C104.587 70.4323 104.87 71.264 104.87 72.3252V77H102.432V72.655C102.432 72.1196 102.293 71.7038 102.016 71.4074C101.739 71.111 101.366 70.9629 100.897 70.9629C100.429 70.9629 100.056 71.111 99.7788 71.4074C99.5016 71.7038 99.3629 72.1196 99.3629 72.655V77H96.9108V68.9983H99.3629V70.0594C99.6115 69.7057 99.9461 69.4285 100.367 69.2277C100.787 69.0174 101.261 68.9122 101.786 68.9122Z" fill="black"/>
<path d="M87.9324 169.159H280" stroke="#263238" stroke-width="0.796667" stroke-miterlimit="10"/>
</svg>
